<?xml version="1.0" encoding="UTF-8"?>
<svg width="92px" height="108px" viewBox="0 0 92 108" version="1.1" xmlns="http://www.w3.org/2000/svg" xmlns:xlink="http://www.w3.org/1999/xlink">
    <!-- Generator: Sketch 53.2 (72643) - https://sketchapp.com -->
    <title>Untitled</title>
    <desc>Created with Sketch.</desc>
    <g id="Page-1" stroke="none" stroke-width="1" fill="none" fill-rule="evenodd">
        <g id="iconfinder_tickets_2032427" fill-rule="nonzero">
            <path d="M58.5,29.7 C58.7,29.7 58.9,29.7 59.1,29.7 L56.3,14 C55.6,10 51.7,7.3 47.7,8 L34.2,10.4 C33.8,13.4 31.6,15.8 28.5,16.4 C25.4,16.9 22.5,15.4 21.1,12.7 L7.6,15.1 C3.6,15.8 0.9,19.7 1.6,23.7 L4.4,39.4 C4.5,39.4 4.6,39.3 4.7,39.3 C7.2,38.9 9.6,40.5 10.1,43 C10.5,45.5 8.9,47.9 6.4,48.4 C6.3,48.4 6.2,48.4 6.1,48.4 L15.3,99.9 C16,103.9 19.9,106.6 23.9,105.9 L64,98.8 C68,98.1 70.7,94.2 70,90.2 L60.8,38.7 C60.6,38.8 60.4,38.8 60.2,38.9 C57.7,39.3 55.3,37.7 54.8,35.2 C54.3,32.6 56,30.2 58.5,29.7 Z" id="Path" fill="#EAEAEA"></path>
            <path d="M28.6,105 L12.6,15.3 L12.4,14.2 L7.6,15 C3.6,15.7 0.9,19.6 1.6,23.6 L4.4,39.3 C4.5,39.3 4.6,39.2 4.7,39.2 C7.2,38.8 9.6,40.4 10.1,42.9 C10.5,45.4 8.9,47.8 6.4,48.3 C6.3,48.3 6.2,48.3 6.1,48.3 L15.3,99.8 C16,103.8 19.9,106.5 23.9,105.8 L28.6,105 L28.6,105 Z" id="Path" fill="#D4D6D6"></path>
            <path d="M10.2,44 C9.7,44 9.5,42.1 10,42 L13,41.5 C13.6,41.4 14.1,41.8 14.2,42.3 C14.3,42.8 13.9,43.4 13.4,43.5 L10.4,44 C10.3,44 10.2,44 10.2,44 Z" id="Path" fill="#B0BEC5"></path>
            <path d="M18.5,42.5 C18,42.5 17.6,42.2 17.5,41.7 C17.4,41.2 17.8,40.6 18.3,40.5 L23.7,39.5 C24.2,39.4 24.8,39.8 24.9,40.3 C25,40.8 24.6,41.4 24.1,41.5 L18.7,42.5 C18.6,42.5 18.6,42.5 18.5,42.5 Z M29.3,40.6 C28.8,40.6 28.4,40.3 28.3,39.8 C28.2,39.3 28.6,38.7 29.1,38.6 L34.5,37.6 C35,37.5 35.6,37.9 35.7,38.4 C35.8,38.9 35.4,39.5 34.9,39.6 L29.5,40.6 C29.4,40.6 29.3,40.6 29.3,40.6 Z M40,38.7 C39.5,38.7 39.1,38.4 39,37.9 C38.9,37.4 39.3,36.8 39.8,36.7 L45.2,35.7 C45.7,35.6 46.3,36 46.4,36.5 C46.5,37 46.1,37.6 45.6,37.7 L40.2,38.7 C40.2,38.7 40.1,38.7 40,38.7 Z" id="Shape" fill="#B0BEC5"></path>
            <path d="M50.8,36.8 C50.3,36.8 49.9,36.5 49.8,36 C49.7,35.5 50.1,34.9 50.6,34.8 L53.6,34.3 C54.2,34.2 54.7,34.6 54.8,35.1 C54.9,35.6 54.5,36.2 54,36.3 L51,36.8 C50.9,36.8 50.9,36.8 50.8,36.8 Z" id="Path" fill="#10591C"></path>
            <rect id="Rectangle" fill="#FBD000" transform="translate(45.704560, 21.703040) rotate(-10.096268) translate(-45.704560, -21.703040) " x="42.0046149" y="18.0030949" width="7.39989026" height="7.39989026"></rect>
            <path d="M19.8,25.9 C18.8,25.9 18,25.2 17.8,24.3 C17.6,23.2 18.3,22.2 19.4,22 L34.6,19.3 C35.7,19.1 36.7,19.8 36.9,20.9 C37.1,22 36.4,23 35.3,23.2 L20.1,25.9 C20,25.9 19.9,25.9 19.8,25.9 Z" id="Path" fill="#B0BEC5"></path>
            <path d="M20.1,29.6 C19.6,29.6 19.2,29.3 19.1,28.8 C19,28.3 19.4,27.7 19.9,27.6 L30.4,25.7 C30.9,25.6 31.5,26 31.6,26.5 C31.7,27 31.3,27.6 30.8,27.7 L20.3,29.6 C20.2,29.6 20.2,29.6 20.1,29.6 Z" id="Path" fill="#B0BEC5"></path>
            <path d="M23.4,47.8 C22.9,47.8 22.5,47.5 22.4,47 C22.3,46.5 22.7,45.9 23.2,45.8 L33.7,43.9 C34.2,43.8 34.8,44.2 34.9,44.7 C35,45.2 34.6,45.8 34.1,45.9 L23.6,47.8 C23.5,47.8 23.4,47.8 23.4,47.8 Z" id="Path" fill="#B0BEC5"></path>
            <path d="M24.2,52.6 C23.7,52.6 23.3,52.3 23.2,51.8 C23.1,51.3 23.5,50.7 24,50.6 L39.7,47.8 C40.2,47.7 40.8,48.1 40.9,48.6 C41,49.1 40.6,49.7 40.1,49.8 L24.4,52.6 C24.3,52.6 24.3,52.6 24.2,52.6 Z" id="Path" fill="#B0BEC5"></path>
            <path d="M33,98.8 C32.5,98.8 32.1,98.5 32,98 L26.1,64.9 C26,64.4 26.4,63.8 26.9,63.7 C27.4,63.6 28,64 28.1,64.5 L34,97.6 C34.1,98.1 33.7,98.7 33.2,98.8 C33.1,98.8 33,98.8 33,98.8 Z" id="Path" fill="#ADADAD"></path>
            <path d="M37.5,98 C37,98 36.6,97.7 36.5,97.2 L32.4,74.4 C32.3,73.9 32.7,73.3 33.2,73.2 C33.7,73.1 34.3,73.5 34.4,74 L38.5,96.8 C38.6,97.3 38.2,97.9 37.7,98 C37.6,98 37.6,98 37.5,98 Z" id="Path" fill="#ADADAD"></path>
            <path d="M50.9,95.9 C50.4,95.9 50,95.6 49.9,95.1 L48.1,85.1 C48,84.6 48.4,84 48.9,83.9 C49.5,83.8 50,84.2 50.1,84.7 L51.9,94.7 C52,95.2 51.6,95.8 51.1,95.9 C51,95.9 51,95.9 50.9,95.9 Z" id="Path" fill="#ADADAD"></path>
            <path d="M55.2,95.2 C54.7,95.2 54.3,94.9 54.2,94.4 L51.2,77.7 C51.1,77.2 51.5,76.6 52,76.5 C52.5,76.4 53.1,76.8 53.2,77.3 L56.2,94 C56.3,94.5 55.9,95.1 55.4,95.2 C55.3,95.2 55.2,95.2 55.2,95.2 Z" id="Path" fill="#ADADAD"></path>
            <path d="M48.4,82 C47.9,82 47.5,81.7 47.4,81.2 L44.8,66 C44.7,65.5 45.1,64.9 45.6,64.8 C46.1,64.7 46.7,65.1 46.8,65.6 L49.5,80.8 C49.6,81.3 49.2,81.9 48.7,82 C48.6,82 48.5,82 48.4,82 Z" id="Path" fill="#ADADAD"></path>
            <path d="M22.8,107 C18.7,107 15.3,104.1 14.6,100.1 L5.5,48.6 C5.5,48.3 5.5,48 5.7,47.8 C5.9,47.6 6.1,47.4 6.4,47.4 C6.5,47.4 6.5,47.4 6.6,47.4 C7.6,47.2 8.4,46.7 9,45.9 C9.6,45.1 9.8,44.1 9.6,43.2 C9.3,41.3 7.4,39.9 5.4,40.3 C5.3,40.3 5.2,40.4 5.1,40.4 C4.8,40.5 4.6,40.4 4.3,40.3 C4.1,40.1 3.9,39.9 3.9,39.6 L1.1,23.9 C0.7,21.7 1.2,19.5 2.5,17.6 C3.8,15.8 5.7,14.5 7.9,14.1 L21.3,11.7 C21.7,11.6 22.2,11.8 22.4,12.2 C23.6,14.5 26.2,15.8 28.7,15.3 C31.3,14.8 33.2,12.8 33.5,10.2 C33.6,9.8 33.9,9.4 34.3,9.3 L47.7,7 C48.2,6.9 48.7,6.9 49.2,6.9 C53.3,6.9 56.7,9.8 57.4,13.8 L60.2,29.5 C60.3,29.8 60.2,30.1 60,30.3 C59.8,30.5 59.6,30.7 59.3,30.7 L59.2,30.7 C59.1,30.7 59,30.7 58.9,30.7 C56.9,31.1 55.6,32.9 56,34.9 C56.3,36.8 58.2,38.2 60.2,37.8 C60.3,37.8 60.4,37.7 60.5,37.7 L60.6,37.7 C60.9,37.6 61.2,37.6 61.4,37.8 C61.6,37.9 61.8,38.2 61.9,38.5 L71,90 C71.8,94.6 68.8,98.9 64.2,99.7 L24.4,106.8 C23.8,107 23.3,107 22.8,107 Z M7.6,49.2 L16.5,99.7 C17,102.8 19.7,105 22.8,105 C23.2,105 23.5,105 23.9,104.9 L63.7,97.8 C67.2,97.2 69.5,93.9 68.8,90.4 L60,39.9 C57.1,40.2 54.4,38.2 53.9,35.3 C53.4,32.4 55.2,29.6 58,28.9 L55.4,14.2 C54.9,11.1 52.2,8.9 49.1,8.9 C48.7,8.9 48.4,8.9 48,9 L35.3,11.3 C34.6,14.4 32.2,16.8 29,17.4 C28.5,17.5 28.1,17.5 27.6,17.5 C24.9,17.5 22.4,16.1 21,13.8 L8.3,16.1 C6.6,16.4 5.2,17.3 4.2,18.7 C3.2,20.1 2.9,21.8 3.1,23.5 L5.7,38.2 C8.5,38 11,40 11.5,42.8 C11.8,44.3 11.4,45.8 10.6,47 C9.9,48.1 8.8,48.9 7.6,49.2 Z" id="Shape" fill="#20C0FF"></path>
            <path d="M86.4,35.4 C86.6,35.4 86.8,35.5 87,35.6 L90.6,19.5 C91.5,15.4 88.9,11.3 84.8,10.4 L70.9,7.3 C69.4,10 66.3,11.5 63.1,10.8 C59.9,10.1 57.7,7.4 57.5,4.4 L43.6,1.3 C39.5,0.4 35.4,3 34.5,7.1 L30.9,23.2 C31,23.2 31.1,23.2 31.2,23.2 C33.8,23.8 35.4,26.3 34.8,28.9 C34.2,31.5 31.7,33.1 29.1,32.5 C29,32.5 28.9,32.4 28.8,32.4 L17.2,85.2 C16.3,89.3 18.9,93.4 23,94.3 L64.1,103.4 C68.2,104.3 72.3,101.7 73.2,97.6 L85,44.8 C84.8,44.8 84.6,44.8 84.4,44.7 C81.8,44.1 80.2,41.6 80.8,39 C81.3,36.4 83.9,34.8 86.4,35.4 Z" id="Path" fill="#EAEAEA"></path>
            <path d="M27.9,95.5 L48.3,3.4 L48.5,2.3 L43.6,1.2 C39.5,0.3 35.4,2.9 34.5,7 L30.9,23.1 C31,23.1 31.1,23.1 31.2,23.1 C33.8,23.7 35.4,26.2 34.8,28.8 C34.2,31.4 31.7,33 29.1,32.4 C29,32.4 28.9,32.3 28.8,32.3 L17.2,85.2 C16.3,89.3 18.9,93.4 23,94.3 L27.9,95.5 L27.9,95.5 Z" id="Path" fill="#D4D6D6"></path>
            <path d="M37.9,30.5 C37.8,30.5 37.8,30.5 37.7,30.5 L34.8,29.9 C34.3,29.8 33.9,29.2 34,28.7 C34.1,28.2 34.7,27.8 35.2,27.9 L38.1,28.5 C38.6,28.6 39,29.2 38.9,29.7 C38.7,30.2 38.3,30.5 37.9,30.5 Z" id="Path" fill="#B0BEC5"></path>
            <path d="M71.2,37.9 C71.1,37.9 71.1,37.9 71,37.9 L65.4,36.7 C64.9,36.6 64.5,36 64.6,35.5 C64.7,35 65.3,34.6 65.8,34.7 L71.4,35.9 C71.9,36 72.3,36.6 72.2,37.1 C72.1,37.6 71.7,37.9 71.2,37.9 Z M60.1,35.4 C60,35.4 60,35.4 59.9,35.4 L54.3,34.2 C53.8,34.1 53.4,33.5 53.5,33 C53.6,32.5 54.2,32.1 54.7,32.2 L60.3,33.4 C60.8,33.5 61.2,34.1 61.1,34.6 C61,35.1 60.6,35.4 60.1,35.4 Z M49,33 C48.9,33 48.9,33 48.8,33 L43.2,31.8 C42.7,31.7 42.3,31.1 42.4,30.6 C42.5,30.1 43.1,29.7 43.6,29.8 L49.2,31 C49.7,31.1 50.1,31.7 50,32.2 C49.9,32.6 49.4,33 49,33 Z" id="Shape" fill="#B0BEC5"></path>
            <path d="M79.7,39.8 C79.6,39.8 79.6,39.8 79.5,39.8 L76.6,39.2 C76.1,39.1 75.7,38.5 75.8,38 C75.9,37.5 76.5,37.1 77,37.2 L79.9,37.8 C80.4,37.9 80.8,38.5 80.7,39 C80.6,39.4 80.2,39.8 79.7,39.8 Z" id="Path" fill="#B0BEC5"></path>
            <rect id="Rectangle" fill="#FBD000" transform="translate(77.398155, 22.512475) rotate(-77.513454) translate(-77.398155, -22.512475) " x="73.5483396" y="18.6626596" width="7.69963089" height="7.69963089"></rect>
            <path d="M67.2,20 C67.1,20 66.9,20 66.8,19.9 L51.5,15.8 C50.4,15.5 49.8,14.4 50.1,13.3 C50.4,12.2 51.4,11.5 52.5,11.8 L67.8,15.9 C68.9,16.2 69.5,17.3 69.2,18.4 C69,19.4 68.2,20.1 67.2,20 Z" id="Path" fill="#B0BEC5"></path>
            <path d="M62,23 C61.9,23 61.9,23 61.8,23 L50.8,20.3 C50.3,20.2 49.9,19.6 50,18.9 C50.1,18.3 50.7,17.9 51.2,18 L62.2,20.7 C62.7,20.8 63.1,21.4 63,22.1 C62.9,22.6 62.5,23 62,23 Z" id="Path" fill="#B0BEC5"></path>
            <path d="M56.8,41.1 C56.7,41.1 56.7,41.1 56.6,41.1 L45.8,38.7 C45.3,38.6 44.9,38 45,37.5 C45.1,37 45.7,36.6 46.2,36.7 L57,39.1 C57.5,39.2 57.9,39.8 57.8,40.3 C57.7,40.8 57.3,41.1 56.8,41.1 Z" id="Path" fill="#B0BEC5"></path>
            <path d="M61,47.2 C60.9,47.2 60.9,47.2 60.8,47.2 L44.7,43.6 C44.2,43.5 43.8,42.9 43.9,42.4 C44,41.9 44.6,41.5 45.1,41.6 L61.2,45.2 C61.7,45.3 62.1,45.9 62,46.4 C61.9,46.9 61.5,47.2 61,47.2 Z" id="Path" fill="#B0BEC5"></path>
            <path d="M34.9,91.3 C34.8,91.3 34.8,91.3 34.7,91.3 C34.2,91.2 33.8,90.6 33.9,90.1 L41.4,56.1 C41.5,55.6 42.1,55.2 42.6,55.3 C43.1,55.4 43.5,56 43.4,56.5 L35.9,90.5 C35.8,91 35.4,91.3 34.9,91.3 Z" id="Path" fill="#ADADAD"></path>
            <path d="M39.6,92.3 C39.5,92.3 39.5,92.3 39.4,92.3 C38.9,92.2 38.5,91.6 38.6,91.1 L43.8,67.7 C43.9,67.2 44.5,66.8 45,66.9 C45.5,67 45.9,67.6 45.8,68.1 L40.6,91.5 C40.5,92 40.1,92.3 39.6,92.3 Z" id="Path" fill="#ADADAD"></path>
            <path d="M53.3,95.7 C53.2,95.7 53.2,95.7 53.1,95.7 C52.6,95.6 52.2,95 52.3,94.5 L54.6,84.2 C54.7,83.7 55.3,83.3 55.8,83.4 C56.3,83.5 56.7,84.1 56.6,84.6 L54.3,94.9 C54.1,95.4 53.7,95.7 53.3,95.7 Z" id="Path" fill="#ADADAD"></path>
            <path d="M57.6,96.7 C57.5,96.7 57.5,96.7 57.4,96.7 C56.9,96.6 56.5,96 56.6,95.5 L60.4,78.4 C60.5,77.9 61.1,77.5 61.6,77.6 C62.1,77.7 62.5,78.3 62.4,78.8 L58.6,95.9 C58.5,96.3 58.1,96.7 57.6,96.7 Z" id="Path" fill="#ADADAD"></path>
            <path d="M56.4,81.4 C56.3,81.4 56.3,81.4 56.2,81.4 C55.7,81.3 55.3,80.7 55.4,80.2 L58.9,64.6 C59,64.1 59.5,63.7 60.1,63.8 C60.6,63.9 61,64.5 60.9,65 L57.4,80.6 C57.3,81 56.9,81.4 56.4,81.4 Z" id="Path" fill="#ADADAD"></path>
            <path d="M65.9,105 C65.9,105 65.9,105 65.9,105 C65.3,105 64.6,104.9 64,104.8 L22.7,95.7 C20.4,95.2 18.5,93.8 17.3,91.9 C16,89.9 15.6,87.6 16.1,85.4 L27.8,32.4 C27.9,32.1 28,31.9 28.3,31.8 C28.5,31.7 28.8,31.6 29.1,31.7 C29.2,31.7 29.2,31.7 29.3,31.8 C29.6,31.9 29.9,31.9 30.2,31.9 C32,31.9 33.5,30.6 33.9,28.9 C34.1,27.9 33.9,26.9 33.4,26 C32.9,25.1 32,24.6 31,24.3 C30.9,24.3 30.8,24.3 30.7,24.3 C30.4,24.3 30.2,24.1 30,23.9 C30,23.5 30,23.2 30,23 L33.6,6.9 C34.5,3 38,0.1 42.1,0.1 C42.7,0.1 43.4,0.2 44,0.3 L57.9,3.4 C58.3,3.5 58.6,3.9 58.7,4.3 C58.9,7 60.9,9.3 63.5,9.9 C66.1,10.5 68.9,9.2 70.2,6.9 C70.4,6.5 70.9,6.3 71.3,6.4 L85.2,9.5 C89.9,10.5 92.8,15.2 91.8,19.9 L88.2,36.1 C88.1,36.4 88,36.6 87.7,36.8 C87.4,36.9 87.1,37 86.9,36.9 L86.8,36.9 C86.7,36.9 86.6,36.8 86.5,36.8 C84.5,36.3 82.4,37.7 82,39.7 C81.5,41.7 82.8,43.8 84.9,44.2 C85,44.2 85.1,44.2 85.2,44.2 L85.3,44.2 C85.6,44.2 85.9,44.4 86,44.6 C86.2,44.8 86.2,45.1 86.2,45.4 L74.5,98.5 C73.5,102.1 70,105 65.9,105 Z M29.7,33.7 L18.2,85.7 C17.8,87.4 18.1,89.2 19.1,90.7 C20.1,92.2 21.5,93.3 23.3,93.6 L64.5,102.7 C65,102.8 65.5,102.9 65.9,102.9 C69,102.9 71.8,100.7 72.4,97.7 L83.9,45.7 C81,44.8 79.2,41.9 79.9,38.9 C80.5,36 83.5,34 86.4,34.4 L89.8,19.3 C90.6,15.7 88.3,12.1 84.7,11.3 L71.5,8.4 C69.6,11.1 66.2,12.5 63,11.7 C59.7,11 57.2,8.4 56.7,5.1 L43.5,2.2 C43,2.1 42.5,2 42.1,2 C39,2 36.2,4.2 35.6,7.2 L32.2,22.4 C33.4,22.8 34.5,23.6 35.2,24.8 C36,26.1 36.3,27.7 36,29.2 C35.3,32 32.6,34 29.7,33.7 Z" id="Shape" fill="#20C0FF"></path>
        </g>
    </g>
</svg>