<svg width="822" height="310" viewBox="0 0 822 310" fill="none" xmlns="http://www.w3.org/2000/svg">
<path d="M317.541 161.896C317.541 156.557 318.696 151.809 321.006 147.651C323.316 143.442 326.524 140.182 330.631 137.872C334.789 135.511 339.486 134.33 344.722 134.33C351.139 134.33 356.631 136.024 361.2 139.412C365.769 142.8 368.823 147.42 370.363 153.272H355.887C354.809 151.013 353.269 149.294 351.267 148.113C349.316 146.932 347.083 146.342 344.568 146.342C340.513 146.342 337.227 147.754 334.712 150.577C332.197 153.4 330.939 157.173 330.939 161.896C330.939 166.619 332.197 170.392 334.712 173.215C337.227 176.038 340.513 177.45 344.568 177.45C347.083 177.45 349.316 176.86 351.267 175.679C353.269 174.498 354.809 172.779 355.887 170.52H370.363C368.823 176.372 365.769 180.992 361.2 184.38C356.631 187.717 351.139 189.385 344.722 189.385C339.486 189.385 334.789 188.23 330.631 185.92C326.524 183.559 323.316 180.299 321.006 176.141C318.696 171.983 317.541 167.235 317.541 161.896ZM375.808 167.44C375.808 163.025 376.63 159.15 378.272 155.813C379.966 152.476 382.251 149.91 385.125 148.113C388 146.316 391.208 145.418 394.75 145.418C397.779 145.418 400.423 146.034 402.681 147.266C404.991 148.498 406.762 150.115 407.994 152.117V146.034H421.161V189H407.994V182.917C406.711 184.919 404.914 186.536 402.604 187.768C400.346 189 397.702 189.616 394.673 189.616C391.183 189.616 388 188.718 385.125 186.921C382.251 185.073 379.966 182.481 378.272 179.144C376.63 175.756 375.808 171.855 375.808 167.44ZM407.994 167.517C407.994 164.232 407.07 161.639 405.222 159.74C403.426 157.841 401.218 156.891 398.6 156.891C395.982 156.891 393.749 157.841 391.901 159.74C390.105 161.588 389.206 164.155 389.206 167.44C389.206 170.725 390.105 173.343 391.901 175.294C393.749 177.193 395.982 178.143 398.6 178.143C401.218 178.143 403.426 177.193 405.222 175.294C407.07 173.395 407.994 170.802 407.994 167.517ZM452.247 156.968H445.163V189H431.996V156.968H427.222V146.034H431.996V144.802C431.996 139.515 433.51 135.511 436.539 132.79C439.568 130.018 444.008 128.632 449.86 128.632C450.835 128.632 451.554 128.658 452.016 128.709V139.874C449.501 139.72 447.73 140.079 446.703 140.952C445.676 141.825 445.163 143.39 445.163 145.649V146.034H452.247V156.968ZM498.936 166.824C498.936 168.056 498.859 169.339 498.705 170.674H468.906C469.111 173.343 469.958 175.397 471.447 176.834C472.987 178.22 474.861 178.913 477.068 178.913C480.353 178.913 482.638 177.527 483.921 174.755H497.935C497.216 177.578 495.907 180.119 494.008 182.378C492.16 184.637 489.824 186.408 487.001 187.691C484.178 188.974 481.021 189.616 477.53 189.616C473.321 189.616 469.573 188.718 466.288 186.921C463.003 185.124 460.436 182.558 458.588 179.221C456.74 175.884 455.816 171.983 455.816 167.517C455.816 163.051 456.714 159.15 458.511 155.813C460.359 152.476 462.926 149.91 466.211 148.113C469.496 146.316 473.269 145.418 477.53 145.418C481.688 145.418 485.384 146.291 488.618 148.036C491.852 149.781 494.367 152.271 496.164 155.505C498.012 158.739 498.936 162.512 498.936 166.824ZM485.461 163.359C485.461 161.1 484.691 159.304 483.151 157.969C481.611 156.634 479.686 155.967 477.376 155.967C475.169 155.967 473.295 156.609 471.755 157.892C470.266 159.175 469.342 160.998 468.983 163.359H485.461ZM525.44 189.539C521.488 189.539 517.946 188.897 514.814 187.614C511.683 186.331 509.168 184.431 507.268 181.916C505.42 179.401 504.445 176.372 504.342 172.83H518.356C518.562 174.832 519.255 176.372 520.435 177.45C521.616 178.477 523.156 178.99 525.055 178.99C527.006 178.99 528.546 178.554 529.675 177.681C530.805 176.757 531.369 175.499 531.369 173.908C531.369 172.573 530.907 171.47 529.983 170.597C529.111 169.724 528.007 169.006 526.672 168.441C525.389 167.876 523.541 167.235 521.128 166.516C517.638 165.438 514.789 164.36 512.581 163.282C510.374 162.204 508.475 160.613 506.883 158.508C505.292 156.403 504.496 153.657 504.496 150.269C504.496 145.238 506.319 141.311 509.963 138.488C513.608 135.613 518.356 134.176 524.208 134.176C530.163 134.176 534.963 135.613 538.607 138.488C542.252 141.311 544.203 145.264 544.459 150.346H530.214C530.112 148.601 529.47 147.24 528.289 146.265C527.109 145.238 525.594 144.725 523.746 144.725C522.155 144.725 520.872 145.161 519.896 146.034C518.921 146.855 518.433 148.062 518.433 149.653C518.433 151.398 519.255 152.759 520.897 153.734C522.54 154.709 525.107 155.762 528.597 156.891C532.088 158.072 534.911 159.201 537.067 160.279C539.275 161.357 541.174 162.923 542.765 164.976C544.357 167.029 545.152 169.673 545.152 172.907C545.152 175.987 544.357 178.785 542.765 181.3C541.225 183.815 538.967 185.817 535.989 187.306C533.012 188.795 529.496 189.539 525.44 189.539ZM614.932 146.034L603.305 189H588.752L581.976 161.126L574.969 189H560.493L548.789 146.034H561.956L568.039 176.757L575.277 146.034H589.214L596.529 176.603L602.535 146.034H614.932ZM617.336 167.44C617.336 163.025 618.157 159.15 619.8 155.813C621.494 152.476 623.778 149.91 626.653 148.113C629.527 146.316 632.736 145.418 636.278 145.418C639.306 145.418 641.95 146.034 644.209 147.266C646.519 148.498 648.29 150.115 649.522 152.117V146.034H662.689V189H649.522V182.917C648.238 184.919 646.442 186.536 644.132 187.768C641.873 189 639.229 189.616 636.201 189.616C632.71 189.616 629.527 188.718 626.653 186.921C623.778 185.073 621.494 182.481 619.8 179.144C618.157 175.756 617.336 171.855 617.336 167.44ZM649.522 167.517C649.522 164.232 648.598 161.639 646.75 159.74C644.953 157.841 642.746 156.891 640.128 156.891C637.51 156.891 635.277 157.841 633.429 159.74C631.632 161.588 630.734 164.155 630.734 167.44C630.734 170.725 631.632 173.343 633.429 175.294C635.277 177.193 637.51 178.143 640.128 178.143C642.746 178.143 644.953 177.193 646.75 175.294C648.598 173.395 649.522 170.802 649.522 167.517ZM685.381 152.117C686.665 150.115 688.436 148.498 690.694 147.266C692.953 146.034 695.597 145.418 698.625 145.418C702.167 145.418 705.376 146.316 708.25 148.113C711.125 149.91 713.384 152.476 715.026 155.813C716.72 159.15 717.567 163.025 717.567 167.44C717.567 171.855 716.72 175.756 715.026 179.144C713.384 182.481 711.125 185.073 708.25 186.921C705.376 188.718 702.167 189.616 698.625 189.616C695.648 189.616 693.004 189 690.694 187.768C688.436 186.536 686.665 184.945 685.381 182.994V209.482H672.214V146.034H685.381V152.117ZM704.169 167.44C704.169 164.155 703.245 161.588 701.397 159.74C699.601 157.841 697.368 156.891 694.698 156.891C692.08 156.891 689.847 157.841 687.999 159.74C686.203 161.639 685.304 164.232 685.304 167.517C685.304 170.802 686.203 173.395 687.999 175.294C689.847 177.193 692.08 178.143 694.698 178.143C697.316 178.143 699.549 177.193 701.397 175.294C703.245 173.343 704.169 170.725 704.169 167.44Z" fill="#A21B33"/>
<path d="M123.528 153.525C119.406 151.339 115.631 148.558 112.327 145.272C107.219 140.349 103.582 134.115 101.82 127.261C99.3615 117.149 102.54 106.502 110.15 99.3645C114.656 94.4757 121.267 92.0657 127.882 92.9003C136.117 93.9986 143.248 100.086 148.233 105.86L138.925 119.29C136.53 115.533 133.317 112.358 129.523 110.002C127.598 108.928 125.306 108.714 123.213 109.414C121.121 110.113 119.424 111.661 118.543 113.673C113.431 123.276 120.72 133.191 128.797 138.4L123.528 153.525Z" fill="#C03A2B"/>
<path d="M247.369 165.198C239.796 170.941 228.942 174.392 215.091 173.671C205.026 173.137 199.252 170.878 195.939 167.458C186.852 158.138 196.255 140.44 186.6 127.574C179.111 118.103 167.301 113.057 155.237 114.176C152.492 107.492 151.861 102.189 153.755 99.0821C153.755 99.0507 153.755 99.0507 153.786 99.0193V98.9879C154.024 98.6263 154.299 98.2898 154.606 97.9838C162.621 90.0134 193.068 107.398 222.664 136.8C231.607 145.632 239.866 155.126 247.369 165.198V165.198Z" fill="#BDC3C7"/>
<g filter="url(#filter0_d)">
<path d="M260.589 205.332C248.126 216.001 186.063 264.608 140.093 218.888C119.426 198.366 117.943 174.581 123.528 153.525C124.904 148.36 126.665 143.305 128.797 138.4C131.691 131.789 135.076 125.401 138.925 119.29C142.207 114.019 145.488 109.437 148.233 105.86C150.505 102.91 152.398 100.62 153.754 99.0821C151.861 102.189 152.492 107.492 155.237 114.176C160.727 127.637 174.705 146.81 193.636 165.638C194.33 166.328 195.024 166.987 195.718 167.677C223.421 194.663 251.407 210.855 260.589 205.332Z" fill="#F3F2F2"/>
</g>
<path d="M247.369 165.198C239.866 155.126 231.607 145.632 222.664 136.8C193.068 107.398 162.621 90.0134 154.606 97.9838C154.299 98.2898 154.024 98.6263 153.786 98.9879V99.0193C153.755 99.0507 153.755 99.0507 153.755 99.0821C151.861 102.189 152.492 107.492 155.237 114.176C160.727 127.637 174.705 146.81 193.636 165.638C194.33 166.328 195.024 166.987 195.718 167.677C223.421 194.663 251.407 210.855 260.589 205.332L247.369 165.198Z" fill="#BDC3C7"/>
<path d="M244.942 96.8771C248.638 93.2014 246.641 85.2553 240.481 79.129C234.321 73.0027 226.331 71.0162 222.635 74.692C218.939 78.3677 220.937 86.3138 227.097 92.4401C233.256 98.5664 241.246 100.553 244.942 96.8771Z" fill="#4A2B17"/>
<path d="M180.226 205.646C171.423 214.432 159.308 216.911 151.546 212.048C157.099 206.242 152.871 201.849 158.708 196.075C164.64 190.145 169.089 194.569 175.052 188.67C180.857 182.865 176.629 178.503 182.214 172.698C183.103 173.267 183.928 173.93 184.675 174.675C192.027 182.018 190.07 195.887 180.226 205.646Z" fill="#640808"/>
<path d="M182.214 172.698C176.63 178.503 180.857 182.865 175.052 188.67C169.089 194.569 164.64 190.145 158.708 196.076C152.871 201.849 157.099 206.242 151.546 212.048C150.657 211.478 149.832 210.815 149.085 210.071C141.702 202.728 143.69 188.858 153.534 179.099C162.337 170.313 174.452 167.834 182.214 172.698V172.698Z" fill="#9C2222"/>
<path d="M195.939 167.458L195.718 167.677C195.024 166.987 194.33 166.328 193.636 165.638C174.705 146.81 160.727 127.637 155.237 114.176C167.301 113.057 179.111 118.103 186.6 127.574C196.255 140.44 186.852 158.138 195.939 167.458V167.458Z" fill="#4A2B17"/>
<path d="M247.369 165.198C239.866 155.126 231.607 145.632 222.664 136.8C193.068 107.398 162.621 90.0134 154.606 97.9838C154.299 98.2898 154.024 98.6263 153.786 98.9879V99.0193C153.755 99.0507 153.755 99.0507 153.755 99.0821C151.861 102.189 152.492 107.492 155.237 114.176C160.727 127.637 174.705 146.81 193.636 165.638C194.33 166.328 195.024 166.987 195.718 167.677C223.421 194.663 251.407 210.855 260.589 205.332C263.835 202.995 259.106 195.009 259.106 195.009L247.369 165.198ZM200.136 163.19L198.085 161.213C195.845 158.985 193.699 156.757 191.554 154.498C178.144 140.158 167.353 125.441 162.147 114.301C161.769 113.454 161.39 112.638 161.075 111.822C159.659 109.01 158.955 105.897 159.024 102.753L159.465 102.377C159.737 102.334 160.011 102.313 160.286 102.314C169.373 102.314 192.752 115.964 218.215 141.256C226.682 149.633 234.528 158.61 241.689 168.117L241.879 168.65L252.038 199.496C243.33 197.142 228.28 188.199 211.21 173.357C207.582 170.25 203.89 166.83 200.136 163.19V163.19Z" fill="#ECF0F1"/>
<path d="M283.905 153.368C283.468 166.51 279.818 179.348 273.272 190.772C269.971 196.257 264.117 199.722 257.695 199.995H257.585C255.535 200.114 253.479 199.892 251.502 199.339C247.661 198.103 243.96 196.473 240.459 194.475C238.155 193.189 235.694 191.714 233.076 190.019C225.401 184.985 218.095 179.417 211.21 173.357C212.441 173.482 213.734 173.608 215.091 173.671C228.942 174.392 239.796 170.941 247.368 165.198C260.261 155.937 263.736 138.327 255.32 124.907C242.162 102.973 286.493 102.659 283.905 153.368V153.368Z" fill="#4A2B17"/>
<path d="M261.188 180.543C255.745 187.046 248.556 191.878 240.459 194.475C238.155 193.189 235.694 191.714 233.076 190.019C242.146 188.288 250.35 183.527 256.329 176.526C257.444 175.192 259.436 175.009 260.778 176.118C262.12 177.227 262.303 179.208 261.188 180.543V180.543Z" fill="#805333"/>
<defs>
<filter id="filter0_d" x="116.733" y="99.0821" width="147.856" height="147.072" filterUnits="userSpaceOnUse" color-interpolation-filters="sRGB">
<feFlood flood-opacity="0" result="BackgroundImageFix"/>
<feColorMatrix in="SourceAlpha" type="matrix" values="0 0 0 0 0 0 0 0 0 0 0 0 0 0 0 0 0 0 127 0"/>
<feOffset dy="4"/>
<feGaussianBlur stdDeviation="2"/>
<feColorMatrix type="matrix" values="0 0 0 0 0 0 0 0 0 0 0 0 0 0 0 0 0 0 0.25 0"/>
<feBlend mode="normal" in2="BackgroundImageFix" result="effect1_dropShadow"/>
<feBlend mode="normal" in="SourceGraphic" in2="effect1_dropShadow" result="shape"/>
</filter>
</defs>
</svg>
