<svg width="199" height="199" viewBox="0 0 199 199" fill="none" xmlns="http://www.w3.org/2000/svg">
<path d="M42.9129 99.5325C39.551 97.6824 36.4728 95.3289 33.7783 92.5496C29.6123 88.3838 26.6464 83.1083 25.2098 77.3088C23.2046 68.7531 25.7971 59.7444 32.0028 53.7046C35.6774 49.5681 41.0689 47.5289 46.4638 48.2351C53.1796 49.1644 58.9948 54.3153 63.0603 59.2008L55.4697 70.5647C53.5167 67.3854 50.8962 64.6993 47.8018 62.7055C46.2319 61.7967 44.3625 61.6159 42.6563 62.2078C40.9501 62.7998 39.5663 64.1092 38.8473 65.8121C34.6789 73.9371 40.6228 82.3269 47.21 86.7348L42.9129 99.5325Z" fill="#C03A2B"/>
<path d="M143.908 109.41C137.732 114.269 128.88 117.189 117.584 116.578C109.376 116.127 104.667 114.215 101.966 111.321C94.5555 103.436 102.223 88.4602 94.3492 77.5743C88.2419 69.5599 78.6103 65.2908 68.7724 66.237C66.5343 60.5815 66.0194 56.0944 67.5631 53.4658C67.5631 53.4392 67.5631 53.4392 67.589 53.4127V53.3861C67.7834 53.0801 68.0076 52.7954 68.2583 52.5365C74.7935 45.7924 99.624 60.5019 123.76 85.3804C131.054 92.8541 137.789 100.886 143.908 109.41Z" fill="#BDC3C7"/>
<g filter="url(#filter0_d)">
<path d="M154.689 143.369C144.525 152.396 93.9121 193.524 56.4217 154.839C39.5679 137.475 38.3585 117.348 42.9128 99.5326C44.0348 95.1619 45.4712 90.884 47.21 86.7349C49.5697 81.1403 52.3306 75.7355 55.4697 70.5648C58.1457 66.1042 60.8217 62.2277 63.0603 59.2009C64.913 56.7051 66.4567 54.7668 67.5632 53.4658C66.0194 56.0943 66.5343 60.5815 68.7724 66.237C73.2499 77.6273 84.6487 93.8505 100.088 109.781C100.654 110.365 101.219 110.923 101.786 111.507C124.378 134.341 147.201 148.041 154.689 143.369Z" fill="#F3F2F2"/>
</g>
<path d="M143.908 109.41C137.789 100.886 131.054 92.8541 123.76 85.3804C99.624 60.5019 74.7935 45.7924 68.2583 52.5365C68.0076 52.7954 67.7834 53.0801 67.589 53.3861V53.4127C67.5631 53.4392 67.5631 53.4392 67.5631 53.4658C66.0194 56.0944 66.5343 60.5815 68.7724 66.237C73.2499 77.6273 84.6486 93.8505 100.088 109.781C100.654 110.365 101.219 110.923 101.786 111.507C124.378 134.341 147.201 148.041 154.689 143.369L143.908 109.41Z" fill="#BDC3C7"/>
<path d="M141.929 51.6C144.943 48.4898 143.314 41.7663 138.29 36.5826C133.267 31.3989 126.751 29.718 123.737 32.8282C120.723 35.9384 122.352 42.662 127.375 47.8456C132.399 53.0293 138.915 54.7102 141.929 51.6Z" fill="#4A2B17"/>
<path d="M89.152 143.634C81.9728 151.068 72.0917 153.166 65.7621 149.05C70.2908 144.138 66.8428 140.422 71.6029 135.536C76.4406 130.517 80.0683 134.261 84.9319 129.27C89.6661 124.358 86.2181 120.667 90.7725 115.755C91.4976 116.237 92.1708 116.798 92.7798 117.428C98.775 123.641 97.1797 135.376 89.152 143.634Z" fill="#640808"/>
<path d="M90.7726 115.755C86.2181 120.667 89.6661 124.358 84.9319 129.27C80.0683 134.261 76.4406 130.517 71.6029 135.536C66.8428 140.422 70.2908 144.138 65.7622 149.05C65.0371 148.569 64.3642 148.008 63.7551 147.378C57.734 141.165 59.3551 129.429 67.3834 121.172C74.562 113.737 84.443 111.64 90.7726 115.755Z" fill="#9C2222"/>
<path d="M101.966 111.321L101.786 111.507C101.219 110.923 100.654 110.365 100.088 109.781C84.6486 93.8504 73.2499 77.6273 68.7724 66.2369C78.6103 65.2908 88.2419 69.5598 94.3492 77.5742C102.223 88.4602 94.5555 103.436 101.966 111.321Z" fill="#4A2B17"/>
<path d="M143.907 109.41C137.789 100.886 131.054 92.8541 123.76 85.3804C99.624 60.5019 74.7935 45.7924 68.2583 52.5365C68.0076 52.7954 67.7834 53.0801 67.589 53.3861V53.4127C67.5631 53.4392 67.5631 53.4392 67.5631 53.4658C66.0194 56.0944 66.5343 60.5815 68.7724 66.237C73.2499 77.6273 84.6486 93.8505 100.088 109.781C100.654 110.365 101.219 110.923 101.786 111.507C124.378 134.341 147.201 148.041 154.689 143.369C157.337 141.391 153.479 134.634 153.479 134.634L143.907 109.41ZM105.388 107.71L103.715 106.037C101.889 104.152 100.139 102.267 98.3889 100.356C87.4532 88.2214 78.6534 75.7687 74.4081 66.3434C74.099 65.6263 73.7905 64.936 73.5331 64.2456C72.3789 61.8663 71.8045 59.2324 71.8602 56.5723L72.2204 56.2537C72.442 56.2174 72.6655 56.1996 72.8897 56.2006C80.3005 56.2006 99.3666 67.7503 120.132 89.1507C127.038 96.2391 133.435 103.835 139.276 111.879L139.43 112.33L147.716 138.43C140.614 136.438 128.34 128.872 114.42 116.313C111.461 113.684 108.45 110.79 105.388 107.71Z" fill="#ECF0F1"/>
<path d="M173.704 99.3998C173.348 110.519 170.371 121.382 165.033 131.049C162.34 135.689 157.566 138.622 152.329 138.852H152.239C150.567 138.953 148.89 138.765 147.279 138.297C144.146 137.252 141.128 135.873 138.272 134.182C136.394 133.093 134.387 131.845 132.251 130.411C125.993 126.151 120.034 121.44 114.42 116.313C115.423 116.419 116.478 116.525 117.584 116.578C128.88 117.189 137.732 114.268 143.907 109.41C154.421 101.574 157.255 86.6725 150.392 75.3175C139.662 56.7581 175.814 56.4926 173.704 99.3998Z" fill="#4A2B17"/>
<path d="M155.177 122.393C150.739 127.896 144.876 131.984 138.272 134.182C136.394 133.093 134.387 131.846 132.251 130.411C139.648 128.947 146.339 124.918 151.215 118.995C152.125 117.865 153.749 117.711 154.843 118.649C155.938 119.588 156.087 121.264 155.177 122.393Z" fill="#805333"/>
<defs>
<filter id="filter0_d" x="36.6332" y="53.4658" width="122.055" height="125.674" filterUnits="userSpaceOnUse" color-interpolation-filters="sRGB">
<feFlood flood-opacity="0" result="BackgroundImageFix"/>
<feColorMatrix in="SourceAlpha" type="matrix" values="0 0 0 0 0 0 0 0 0 0 0 0 0 0 0 0 0 0 127 0"/>
<feOffset dy="4"/>
<feGaussianBlur stdDeviation="2"/>
<feColorMatrix type="matrix" values="0 0 0 0 0 0 0 0 0 0 0 0 0 0 0 0 0 0 0.25 0"/>
<feBlend mode="normal" in2="BackgroundImageFix" result="effect1_dropShadow"/>
<feBlend mode="normal" in="SourceGraphic" in2="effect1_dropShadow" result="shape"/>
</filter>
</defs>
</svg>
