<?xml version="1.0" standalone="no"?>
<!DOCTYPE svg PUBLIC "-//W3C//DTD SVG 20010904//EN"
 "http://www.w3.org/TR/2001/REC-SVG-20010904/DTD/svg10.dtd">
<svg version="1.0" xmlns="http://www.w3.org/2000/svg"
 width="512.000000pt" height="512.000000pt" viewBox="0 0 512.000000 512.000000"
 preserveAspectRatio="xMidYMid meet">
<metadata>
Created by potrace 1.16, written by Peter Selinger 2001-2019
</metadata>
<g transform="translate(0.000000,512.000000) scale(0.100000,-0.100000)"
fill="#000000" stroke="none">
<path d="M2270 4755 c-733 -106 -1346 -544 -1668 -1191 -170 -341 -242 -673
-229 -1059 13 -380 112 -719 305 -1043 345 -579 937 -964 1617 -1053 133 -17
419 -15 556 5 746 106 1371 565 1690 1241 213 451 263 986 139 1470 -158 613
-568 1125 -1130 1409 -202 103 -379 162 -615 207 -143 27 -520 35 -665 14z
m1412 -717 c50 -15 122 -78 151 -132 30 -57 30 -165 0 -222 -45 -84 -119 -134
-211 -142 -85 -7 -139 13 -205 80 l-59 58 -473 0 c-282 0 -505 -4 -551 -11
-615 -85 -1057 -655 -973 -1255 73 -523 491 -920 1028 -974 57 -5 301 -10 542
-10 l439 0 10 25 c17 44 88 112 142 135 137 59 301 -21 344 -166 29 -99 1
-190 -80 -261 -52 -46 -101 -63 -178 -63 -64 0 -144 35 -182 81 l-24 29 -564
3 -563 3 -101 26 c-260 69 -468 184 -645 358 -390 384 -511 950 -310 1456 140
351 447 643 814 773 204 72 225 74 806 78 l525 4 40 46 c71 81 176 112 278 81z
m-1116 -595 c33 -11 66 -33 101 -70 l52 -53 205 0 c232 0 328 -10 430 -47 191
-68 370 -240 444 -428 59 -150 68 -364 22 -510 -66 -210 -207 -373 -405 -466
-125 -58 -197 -69 -472 -69 l-238 0 -39 -41 c-52 -56 -106 -79 -187 -79 -110
0 -191 50 -235 145 -43 92 -28 195 39 271 57 65 107 88 192 88 60 1 78 -3 125
-30 37 -20 65 -46 85 -77 l30 -46 236 0 c252 -1 291 5 390 54 88 45 181 140
230 237 47 92 64 256 39 363 -47 193 -218 359 -409 395 -29 5 -150 10 -267 10
l-212 0 -59 -58 c-64 -64 -107 -82 -195 -82 -201 0 -318 234 -202 402 63 91
188 129 300 91z m-537 -659 c29 -15 62 -39 73 -55 l22 -29 488 0 489 0 24 -25
c23 -22 25 -32 25 -113 0 -75 -3 -93 -21 -116 l-20 -26 -488 0 -487 0 -47 -45
c-47 -44 -119 -75 -177 -75 -52 0 -131 31 -171 67 -178 161 -69 443 171 443
51 0 78 -6 119 -26z"/>
</g>
</svg>
