<?xml version="1.0" encoding="utf-8"?>

<!DOCTYPE svg PUBLIC "-//W3C//DTD SVG 1.1//EN" "http://www.w3.org/Graphics/SVG/1.1/DTD/svg11.dtd">
<svg version="1.1" id="Layer_1" xmlns="http://www.w3.org/2000/svg" xmlns:xlink="http://www.w3.org/1999/xlink" x="0px" y="0px"
	 viewBox="0 0 1276.6526 1677.307" enable-background="new 0 0 1276.6526 1677.307" xml:space="preserve">
<g>
	
		<radialGradient id="SVGID_1_" cx="636.3965" cy="840.0656" r="716.6335" gradientTransform="matrix(0.9758 0 0 1 17.3306 0)" gradientUnits="userSpaceOnUse">
		<stop  offset="0" style="stop-color:#FFFFFF"/>
		<stop  offset="0.1403" style="stop-color:#FDF4CC"/>
		<stop  offset="0.286" style="stop-color:#FCEA9F"/>
		<stop  offset="0.4327" style="stop-color:#FAE279"/>
		<stop  offset="0.5781" style="stop-color:#F9DC5C"/>
		<stop  offset="0.722" style="stop-color:#F9D848"/>
		<stop  offset="0.8635" style="stop-color:#F8D53B"/>
		<stop  offset="1" style="stop-color:#F8D437"/>
	</radialGradient>
	<path fill="url(#SVGID_1_)" d="M638.3279,41.4776c-293.1773,0-620.2347,425.4311-608.6061,872.1713
		c11.2001,430.3124,282.8846,725.0048,608.6061,725.0048c325.7179,0,597.3976-294.6924,608.6024-725.0048
		C1258.5682,466.9086,931.5145,41.4776,638.3279,41.4776z"/>
	
		<radialGradient id="SVGID_2_" cx="636.3965" cy="649.3899" r="779.0441" gradientTransform="matrix(4.381009e-011 -1 0.8134 3.742355e-011 110.1268 1285.7864)" gradientUnits="userSpaceOnUse">
		<stop  offset="0" style="stop-color:#FFFFFF;stop-opacity:0.7"/>
		<stop  offset="1" style="stop-color:#FFFFFF;stop-opacity:0"/>
	</radialGradient>
	<path fill="url(#SVGID_2_)" d="M638.3279,41.4776c-293.1773,0-620.2347,425.4311-608.6061,872.1713
		c11.2001,430.3124,282.8846,725.0048,608.6061,725.0048c325.7179,0,597.3976-294.6924,608.6024-725.0048
		C1258.5682,466.9086,931.5145,41.4776,638.3279,41.4776z"/>
	<path display="none" fill="#BB805E" d="M1246.9303,913.6488c0,0-0.0186-9.0485-0.0453-26.0269
		c0.0629-8.4804,0-18.9626-0.7843-31.2408c-0.6318-12.292-1.0106-26.4288-2.7612-42.1748
		c-2.2734-31.602-8.11-69.6954-16.7076-112.9077c-8.7954-43.2169-22.2921-91.2115-40.6774-142.2455
		c-18.5664-50.9259-42.4454-104.8688-73.4432-158.7361c-31.0062-53.7896-67.9496-108.3377-113.2181-158.7764
		c-22.292-25.4991-46.8935-49.6944-73.2271-72.469c-26.2255-22.9144-54.6608-43.9568-85.1172-62.1755
		c-60.4612-36.4559-130.4135-62.7165-202.6208-62.5946c-72.2202-0.0998-142.1411,26.1387-202.6023,62.6081
		c-30.4611,18.2142-58.9102,39.2566-85.1302,62.171c-26.329,22.7655-50.9351,46.9699-73.2225,72.4689
		c-45.2741,50.4298-82.2165,104.9954-113.2273,158.7675c-30.9978,53.8765-54.8686,107.8102-73.4433,158.7499
		c-18.3815,51.0201-31.8685,99.0277-40.6734,142.2316c-8.6019,43.2122-14.4388,81.3057-16.7212,112.9077
		c-1.7501,15.746-2.1155,29.8828-2.756,42.1748c-0.7714,12.2874-0.8525,22.7604-0.7758,31.2408
		c-0.0361,16.9784-0.0541,26.0269-0.0541,26.0269s-0.0722-9.0485-0.194-26.0269c-0.1488-8.4804-0.1804-18.9626,0.4782-31.2593
		c0.5232-12.291,0.7578-26.4592,2.3591-42.2468c1.9802-31.6519,7.4562-69.835,15.6566-113.2236
		c8.3809-43.384,21.4349-91.6752,39.8252-142.8672c18.4527-51.1512,42.2247-105.3335,73.1495-159.4982
		c30.948-54.0695,67.846-108.9603,113.183-159.8099c22.3142-25.693,46.9748-50.1184,73.3934-73.1274
		c26.3198-23.1444,54.9093-44.4485,85.5773-62.9198c60.876-36.9739,131.5997-63.908,205.1779-64.0161
		c73.5883,0.1358,144.2797,27.0422,205.1741,64.0251c30.6727,18.4758,59.2529,39.7753,85.5588,62.9197
		c26.4417,23.0091,51.0884,47.4255,73.4165,73.1185c45.3323,50.8496,82.2386,105.7403,113.182,159.8099
		c30.9258,54.1647,54.6885,108.3469,73.1552,159.4982c18.376,51.192,31.4302,99.4832,39.8108,142.8672
		c8.219,43.3887,13.6859,81.5718,15.662,113.2236c1.5963,15.7876,1.8309,29.9558,2.363,42.2468
		c0.6494,12.3058,0.6318,22.7789,0.4785,31.2593C1247.0023,904.6003,1246.9303,913.6488,1246.9303,913.6488z"/>
</g>
</svg>
