<svg width="38" height="38" viewBox="0 0 38 38" fill="none" xmlns="http://www.w3.org/2000/svg">
	<path d="M19 38C29.4934 38 38 29.4934 38 19C38 8.50659 29.4934 0 19 0C8.50659 0 0 8.50659 0 19C0 29.4934 8.50659 38 19 38Z" fill="url(#paint0_linear)"/>
	<path d="M19.4362 21.1425C20.154 20.5089 24.9375 17.8682 24.9375 11.6035V9.77068C24.9375 8.68011 24.0497 7.79297 22.9583 7.79297C21.8669 7.79297 20.9791 8.68011 20.9791 9.77068V10.4299H17.0208V9.77068C17.0208 8.68011 16.133 7.79297 15.0416 7.79297C13.9502 7.79297 13.0625 8.68011 13.0625 9.77068V11.6035C13.0625 13.909 13.8108 16.1489 15.1454 17.9906C15.2793 17.8517 15.4045 17.7054 15.5455 17.5728C16.0235 17.1105 16.5737 16.6663 17.1671 16.2665C17.4959 16.0408 17.6549 15.9214 18.1512 15.3786C17.9448 15.0637 17.772 14.7292 17.6194 14.3854H20.3883C19.8237 15.6645 18.8718 16.6992 17.9054 17.359C17.3739 17.7176 16.8823 18.1149 16.4501 18.5326C14.2976 20.5579 13.0625 23.4241 13.0625 26.3965V28.2293C13.0625 29.3199 13.9503 30.207 15.0417 30.207C16.1331 30.207 17.0209 29.3199 17.0209 28.2293V27.5701H20.9792V28.2293C20.9792 29.3199 21.867 30.207 22.9584 30.207C24.0498 30.207 24.9375 29.3199 24.9375 28.2293V26.3965C24.9375 24.0887 24.1903 21.8524 22.8577 20.0184C21.3372 21.5973 20.8921 21.484 19.8507 22.6216C20.0563 22.937 20.2284 23.2712 20.3805 23.6147H17.6121C18.0243 22.6792 18.6395 21.8314 19.4362 21.1425ZM17.1972 13.0669C17.1028 12.6366 17.0411 12.1978 17.0316 11.7484H20.9714C20.9619 12.1947 20.9146 12.6363 20.8207 13.0669H17.1972ZM20.8024 24.9331C20.897 25.3638 20.9589 25.8027 20.9685 26.2516H17.0288C17.0382 25.805 17.0855 25.3634 17.179 24.9331H20.8024Z" fill="white"/>
	<defs>
		<linearGradient id="paint0_linear" x1="19" y1="38" x2="19" y2="0" gradientUnits="userSpaceOnUse">
			<stop stop-color="#00F07D"/>
			<stop offset="1" stop-color="#0074FD"/>
		</linearGradient>
	</defs>
</svg>