<?xml version="1.0" standalone="no"?>
<!DOCTYPE svg PUBLIC "-//W3C//DTD SVG 20010904//EN"
 "http://www.w3.org/TR/2001/REC-SVG-20010904/DTD/svg10.dtd">
<svg version="1.0" xmlns="http://www.w3.org/2000/svg"
 width="300.000000pt" height="300.000000pt" viewBox="0 0 300.000000 300.000000"
 preserveAspectRatio="xMidYMid meet">
<metadata>
Created by potrace 1.10, written by Peter Selinger 2001-2011
</metadata>
<g transform="translate(0.000000,300.000000) scale(0.100000,-0.100000)"
fill="#000000" stroke="none">
<path d="M1335 2844 c-67 -10 -165 -37 -165 -45 0 -6 7 -6 18 -1 61 33 307 44
461 22 160 -22 420 -128 421 -170 0 -11 2 -12 8 -2 9 13 58 -17 114 -70 14
-12 39 -35 56 -50 17 -14 28 -28 25 -31 -2 -3 5 -8 17 -12 13 -4 19 -12 16
-20 -3 -8 0 -12 7 -10 7 2 30 -18 51 -45 22 -28 43 -50 48 -50 18 0 -38 67
-137 165 -111 109 -204 171 -351 234 -147 63 -237 82 -409 86 -82 2 -163 1
-180 -1z"/>
<path d="M1105 2785 c-22 -11 -24 -13 -6 -9 13 3 30 7 37 8 7 1 17 5 20 9 12
12 -20 7 -51 -8z"/>
<path d="M2771 2776 c-16 -19 -81 -35 -188 -46 -135 -13 -177 -43 -159 -114 6
-23 106 -97 131 -96 5 1 -6 9 -25 20 -19 10 -51 35 -70 55 -33 34 -34 37 -19
63 21 38 50 49 162 61 54 6 113 17 130 25 38 17 76 45 61 46 -6 0 -17 -6 -23
-14z"/>
<path d="M1015 2750 c-3 -6 1 -7 9 -4 18 7 21 14 7 14 -6 0 -13 -4 -16 -10z"/>
<path d="M949 2713 c-13 -17 -13 -17 6 -3 11 8 22 16 24 17 2 2 0 3 -6 3 -6 0
-17 -8 -24 -17z"/>
<path d="M1661 2586 c-26 -14 -50 -51 -51 -77 0 -9 9 -28 20 -42 l20 -26 -62
-33 c-34 -18 -68 -32 -76 -30 -7 2 -4 -6 8 -18 12 -12 19 -28 16 -36 -3 -8 0
-14 6 -14 6 0 8 11 4 31 -5 25 -3 30 11 27 25 -5 54 -51 60 -96 5 -34 1 -48
-20 -75 -26 -34 -79 -57 -133 -57 -25 0 -20 -4 29 -27 l58 -26 30 36 c31 38
59 48 59 23 0 -8 -5 -18 -10 -21 -6 -4 10 -31 36 -63 56 -69 76 -112 78 -172
2 -63 -20 -107 -63 -129 -117 -60 -298 -101 -442 -101 -111 0 -136 7 -148 41
-5 16 -15 29 -20 29 -32 0 10 186 65 291 22 41 57 87 85 113 l49 44 -33 -2
c-26 -1 -33 3 -35 22 -3 19 1 22 30 23 31 0 31 1 10 10 -13 5 -27 7 -30 5 -4
-2 -7 9 -7 25 0 33 2 33 49 14 20 -8 48 -15 63 -14 27 1 27 1 -4 9 -18 4 -44
15 -57 24 -14 9 -32 16 -40 16 -7 0 -16 6 -19 13 -3 9 -16 12 -37 9 -18 -2
-49 1 -70 8 -32 11 -42 10 -74 -5 -46 -22 -78 -81 -74 -133 3 -37 3 -37 -47
-50 -82 -21 -151 -58 -206 -109 -109 -101 -155 -272 -113 -413 11 -38 13 -55
5 -58 -29 -10 13 -92 82 -160 l44 -43 -28 -57 c-16 -31 -34 -81 -40 -111 -16
-75 -7 -195 19 -261 29 -74 103 -164 182 -222 94 -69 113 -89 230 -233 58 -71
122 -149 144 -172 34 -38 36 -43 17 -43 -32 0 -101 -31 -111 -50 -19 -36 45
-76 106 -64 18 3 51 22 73 41 31 26 41 30 41 18 0 -25 32 -14 47 15 l13 25 0
-28 c0 -33 28 -48 42 -23 9 16 12 16 37 -7 38 -36 65 -47 110 -47 43 0 86 30
78 53 -6 19 -68 57 -91 57 -14 0 -7 -7 22 -20 73 -33 66 -70 -13 -70 -46 0
-96 27 -121 64 -19 30 -34 25 -34 -10 0 -14 -4 -22 -10 -19 -5 3 -10 19 -10
36 0 39 -26 38 -33 -1 -8 -36 -27 -40 -27 -5 0 14 -3 25 -7 25 -4 0 -27 -19
-51 -42 -39 -39 -48 -43 -92 -43 -95 0 -93 50 3 75 32 8 57 17 57 21 0 5 -65
86 -144 181 -79 95 -143 174 -142 176 2 1 28 -9 60 -24 78 -36 224 -64 331
-64 123 0 263 30 321 69 25 16 60 33 77 37 34 7 57 21 57 35 0 5 -21 -1 -47
-15 -74 -36 -191 -74 -274 -87 -90 -14 -261 -6 -344 15 -219 58 -392 181 -466
332 -33 66 -34 73 -33 179 1 124 15 174 82 283 38 64 141 187 149 179 2 -3
-12 -37 -32 -76 -24 -48 -46 -78 -68 -91 -39 -24 -39 -24 59 -4 152 31 215 88
184 168 -14 37 3 30 32 -14 30 -45 99 -91 174 -116 46 -15 86 -19 184 -18 114
0 134 3 225 33 55 19 127 47 160 63 71 36 185 115 185 129 0 5 4 9 9 9 6 0 6
-12 0 -32 -12 -43 -12 -174 1 -218 l9 -35 -18 23 c-36 42 -30 22 9 -34 22 -31
49 -82 61 -113 26 -70 37 -212 19 -265 -13 -41 -11 -49 10 -36 21 13 26 171 7
240 -8 30 -18 62 -21 71 -5 12 6 19 56 33 178 49 330 219 360 402 8 45 8 79 1
110 -9 39 -8 44 8 44 48 0 66 30 29 50 -17 9 -18 14 -9 31 6 11 8 27 5 35 -4
9 2 14 17 14 44 0 198 43 220 61 20 17 21 20 6 32 -10 7 -24 31 -33 52 -10 22
-29 53 -44 68 -30 32 -112 77 -157 87 -19 3 -31 13 -33 25 -14 75 -112 72
-112 -3 0 -14 -9 -21 -32 -26 -83 -17 -169 -102 -184 -183 -3 -18 -15 -38 -25
-44 -11 -5 -19 -14 -19 -18 0 -15 74 -39 138 -47 57 -6 61 -8 51 -26 -6 -11
-8 -35 -5 -53 6 -29 2 -35 -31 -61 -21 -16 -51 -43 -68 -60 -24 -25 -40 -33
-80 -37 -27 -2 -58 -8 -69 -12 -16 -7 -17 -6 -7 13 6 11 11 43 11 70 l0 49
-45 -44 c-51 -48 -79 -54 -118 -23 -14 11 -34 20 -45 20 -21 0 -59 36 -49 47
4 3 18 -4 32 -17 14 -13 25 -18 25 -12 0 17 -64 62 -88 62 -18 0 -22 6 -22 30
0 41 -33 103 -80 150 -52 52 -46 73 33 111 33 16 61 28 62 26 1 -1 12 -19 24
-40 29 -48 73 -71 136 -71 61 0 124 31 157 76 18 26 23 46 23 95 0 53 -4 66
-30 100 -17 21 -49 46 -70 57 -38 17 -40 21 -41 64 -1 38 -6 50 -32 73 -40 36
-94 47 -136 26 -27 -13 -35 -13 -51 -1 -24 17 -63 17 -94 0z m124 -15 c11 0
41 1 67 2 40 2 52 -3 75 -25 29 -29 36 -78 19 -128 -7 -22 -7 -23 5 -8 12 15
18 15 45 3 78 -33 118 -153 75 -222 -43 -68 -168 -97 -225 -52 -51 40 -71 106
-41 139 14 15 12 17 -27 16 -37 -1 -44 3 -65 33 -27 39 -29 68 -8 91 13 15 11
17 -19 28 -54 20 -66 70 -27 115 12 15 25 17 61 13 25 -3 54 -6 65 -5z m-105
-150 c-20 -39 -12 -81 24 -117 19 -19 43 -34 55 -34 15 0 21 -6 21 -21 0 -15
-14 -26 -55 -45 -31 -13 -60 -24 -64 -24 -5 0 -12 23 -16 52 -9 60 -28 109
-49 128 -24 19 -20 26 27 53 54 32 71 34 57 8z m784 -97 c20 -19 20 -38 1 -54
-21 -17 -55 -3 -55 24 0 21 17 46 31 46 4 0 15 -7 23 -16z m-1354 -14 c21 -11
46 -17 54 -14 11 4 16 0 16 -14 0 -12 -9 -23 -22 -28 -16 -5 -26 0 -41 20 -14
19 -27 26 -50 25 -31 -2 -31 -2 -4 -6 30 -5 50 -33 41 -57 -8 -22 -21 -20 -29
3 -7 23 -35 35 -49 21 -7 -7 -3 -10 11 -10 23 0 36 -22 27 -45 -4 -8 -13 -15
-21 -15 -9 0 -13 6 -9 15 3 8 2 15 -2 15 -11 0 -32 -22 -32 -34 0 -5 3 -6 6
-3 4 3 15 2 24 -3 13 -7 24 -3 44 15 15 14 35 25 45 25 10 0 24 7 31 15 7 8
19 15 26 15 21 0 17 -28 -5 -35 -11 -3 -31 -21 -46 -40 -19 -25 -34 -35 -54
-35 -27 0 -28 -2 -34 -62 -8 -86 -32 -172 -65 -240 -16 -32 -24 -58 -18 -58
28 -1 -32 -30 -62 -30 -28 0 -45 -11 -100 -64 -45 -43 -85 -72 -121 -86 -62
-24 -64 -23 -81 53 -46 215 98 435 318 487 l52 12 0 55 c0 49 4 59 34 89 39
39 61 42 116 14z m77 4 c-3 -3 -12 -4 -19 -1 -8 3 -5 6 6 6 11 1 17 -2 13 -5z
m1242 -63 c8 -5 26 -5 42 1 57 20 187 -46 229 -115 28 -46 25 -56 -22 -77 -68
-29 -187 -44 -306 -37 -162 10 -182 15 -182 45 0 62 79 146 167 178 45 16 54
16 72 5z m-1294 -11 c3 -5 1 -10 -4 -10 -6 0 -11 5 -11 10 0 6 2 10 4 10 3 0
8 -4 11 -10z m505 -51 c0 -10 -6 -19 -14 -19 -8 0 -30 -15 -49 -32 -27 -27
-38 -31 -54 -24 -19 9 -16 12 28 32 29 14 54 33 60 48 13 28 29 25 29 -5z
m-460 2 c0 -5 7 -17 16 -26 15 -15 14 -19 -14 -48 -39 -41 -88 -120 -103 -166
-7 -20 -25 -51 -41 -70 -16 -18 -37 -49 -46 -67 -8 -19 -20 -34 -25 -34 -10 0
-10 -1 25 65 31 60 54 139 63 217 6 51 9 57 35 66 15 6 38 24 51 41 22 31 39
40 39 22z m1578 -139 c9 -28 -191 -72 -326 -72 -95 0 -217 15 -261 32 -44 16
-4 26 54 13 147 -35 346 -26 455 20 59 24 72 25 78 7z m-335 -139 c-4 -11 -53
-20 -53 -10 0 2 7 19 16 37 l17 33 12 -24 c7 -12 11 -29 8 -36z m-43 40 c0 -3
-7 -15 -16 -25 -14 -14 -14 -20 -4 -33 7 -8 21 -15 32 -15 18 0 19 -2 7 -17
-12 -14 -12 -16 1 -11 8 2 15 12 15 21 0 9 6 22 13 29 9 9 12 8 12 -6 0 -10 7
-17 18 -15 35 3 72 -1 72 -9 0 -4 -17 -14 -37 -22 -21 -7 -32 -15 -25 -17 20
-7 15 -131 -8 -198 -37 -108 -117 -214 -206 -275 l-42 -30 -18 73 c-23 98 -30
227 -14 281 12 43 57 97 133 158 26 21 27 26 17 49 -15 33 1 69 30 69 11 0 20
-3 20 -7z m77 -12 c-3 -13 1 -21 14 -24 20 -5 27 9 7 15 -15 5 -1 28 18 28 18
0 18 -29 -1 -54 -11 -14 -15 -16 -15 -5 0 12 -2 12 -10 -1 -5 -8 -10 -12 -12
-10 -2 3 -11 20 -21 38 -18 32 -18 32 4 32 16 0 20 -5 16 -19z m-655 -97 c10
-16 21 -36 24 -45 4 -10 13 -15 24 -12 11 3 32 -4 49 -16 46 -33 91 -25 134
23 l18 21 -6 -30 c-3 -16 -6 -36 -7 -42 -1 -7 -4 -13 -8 -13 -3 0 -13 -15 -22
-33 -19 -40 -117 -116 -208 -162 -86 -43 -264 -98 -300 -93 -17 3 -26 0 -23
-5 8 -14 -182 -2 -227 14 -19 7 -53 24 -75 38 -22 14 -42 26 -45 26 -16 1 -31
19 -26 31 3 9 0 11 -12 7 -9 -3 -14 -2 -10 2 5 5 -1 14 -11 22 -19 13 -18 14
11 43 l30 31 92 -7 c143 -9 316 25 456 89 63 30 99 58 98 78 -4 74 12 86 44
33z m-766 -44 c-8 -37 -18 -56 -29 -58 -10 -2 -17 3 -17 13 0 24 47 111 56
103 1 -2 -3 -28 -10 -58z m-64 -60 c4 -26 2 -28 -11 -18 -9 7 -18 14 -20 15
-4 2 19 33 24 33 2 0 5 -13 7 -30z m-30 -23 c19 -15 27 -89 12 -109 -17 -21
-24 -48 -13 -48 5 0 15 14 20 30 6 17 18 30 27 30 15 1 15 2 0 14 -38 28 -9
96 39 96 16 0 27 -7 30 -20 3 -11 10 -20 15 -20 5 0 6 -4 3 -10 -3 -5 -1 -10
4 -10 18 0 13 -25 -8 -44 -11 -10 -29 -16 -42 -14 -17 2 -23 -2 -24 -22 -1
-14 1 -35 6 -46 14 -38 -21 -78 -88 -102 -33 -12 -65 -22 -70 -22 -10 0 19 70
40 98 6 7 10 27 11 45 1 32 0 33 -24 20 -31 -16 -54 -17 -44 -1 4 7 3 8 -4 4
-6 -3 -31 -1 -56 5 l-46 11 64 64 c54 54 70 64 98 64 18 0 40 -6 50 -13z
m1238 11 c0 -2 -7 -21 -15 -43 -27 -76 -16 -201 30 -341 8 -25 -25 -43 -95
-51 -44 -5 -46 -5 -64 33 -21 43 -34 226 -22 307 10 62 25 76 92 86 33 5 62 9
67 10 4 0 7 0 7 -1z m-1441 -153 c16 -8 47 -17 69 -21 l40 -6 -39 -39 c-21
-21 -50 -57 -65 -79 l-27 -41 -40 38 c-22 21 -52 58 -68 83 l-29 44 52 17 c68
22 73 22 107 4z"/>
<path d="M1725 2481 c-3 -5 -1 -12 5 -16 5 -3 10 1 10 9 0 18 -6 21 -15 7z"/>
<path d="M1805 2330 c-3 -5 -1 -10 4 -10 6 0 11 5 11 10 0 6 -2 10 -4 10 -3 0
-8 -4 -11 -10z"/>
<path d="M1960 2240 c-9 -6 -10 -10 -3 -10 6 0 15 5 18 10 8 12 4 12 -15 0z"/>
<path d="M700 1935 c0 -5 5 -17 10 -25 5 -8 10 -10 10 -5 0 6 -5 17 -10 25 -5
8 -10 11 -10 5z"/>
<path d="M668 1904 c12 -8 23 -27 23 -42 2 -23 2 -24 6 -5 6 29 -13 63 -35 63
-13 0 -12 -3 6 -16z"/>
<path d="M634 1875 c-4 -9 -4 -19 0 -22 3 -4 6 2 6 12 0 15 3 16 12 7 14 -14
3 -27 -27 -35 -12 -3 -8 -5 10 -4 25 2 30 6 30 26 0 28 -22 40 -31 16z"/>
<path d="M721 1874 c0 -11 3 -14 6 -6 3 7 2 16 -1 19 -3 4 -6 -2 -5 -13z"/>
<path d="M666 1815 c-11 -8 -15 -15 -9 -15 6 0 16 7 23 15 16 19 11 19 -14 0z"/>
<path d="M2550 2183 c25 -28 47 -49 48 -48 7 6 -42 66 -67 82 -18 11 -11 0 19
-34z"/>
<path d="M2356 2157 c-30 -40 -35 -64 -5 -27 24 31 41 60 35 60 -3 0 -16 -15
-30 -33z"/>
<path d="M2612 2098 c7 -15 15 -23 17 -17 2 6 -4 18 -13 27 -15 15 -15 15 -4
-10z"/>
<path d="M2317 2093 c-18 -17 -5 -33 26 -32 31 2 31 2 4 6 -20 3 -27 9 -23 19
6 15 3 18 -7 7z"/>
<path d="M2435 2070 c3 -6 20 -10 37 -10 38 0 34 5 -10 13 -21 4 -31 3 -27 -3z"/>
<path d="M2406 1804 c-3 -9 -2 -22 4 -29 5 -6 6 -16 2 -20 -4 -5 -1 -5 6 0 10
5 11 10 3 18 -18 18 -12 31 7 16 16 -13 16 -13 2 6 -8 11 -15 21 -16 23 -1 2
-4 -5 -8 -14z"/>
<path d="M1775 1709 c-11 -16 -1 -19 13 -3 7 8 8 14 3 14 -5 0 -13 -5 -16 -11z"/>
<path d="M1745 1679 c-9 -14 -2 -20 14 -10 8 6 9 11 3 15 -6 3 -14 1 -17 -5z"/>
<path d="M1608 1593 c7 -3 16 -2 19 1 4 3 -2 6 -13 5 -11 0 -14 -3 -6 -6z"/>
<path d="M1550 1580 c-13 -8 -13 -10 2 -10 9 0 20 5 23 10 8 13 -5 13 -25 0z"/>
<path d="M1460 1560 l-25 -8 28 -1 c15 -1 27 4 27 9 0 6 -1 10 -2 9 -2 -1 -14
-5 -28 -9z"/>
<path d="M1508 1563 c7 -3 16 -2 19 1 4 3 -2 6 -13 5 -11 0 -14 -3 -6 -6z"/>
<path d="M1251 1536 c-9 -11 -6 -12 14 -8 14 2 22 8 19 13 -8 13 -20 11 -33
-5z"/>
<path d="M1300 1546 c0 -2 8 -10 18 -17 15 -13 16 -12 3 4 -13 16 -21 21 -21
13z"/>
<path d="M1163 1534 c10 -11 57 -13 57 -3 0 5 -14 9 -32 9 -17 0 -28 -3 -25
-6z"/>
<path d="M1317 1486 c-3 -6 6 -17 19 -23 29 -13 31 -4 5 19 -14 12 -21 13 -24
4z"/>
<path d="M1504 1478 l-19 -23 23 19 c21 18 27 26 19 26 -2 0 -12 -10 -23 -22z"/>
<path d="M1370 1476 c0 -2 8 -10 18 -17 15 -13 16 -12 3 4 -13 16 -21 21 -21
13z"/>
<path d="M886 1683 c-23 -6 -62 -41 -54 -49 3 -3 15 4 25 15 10 11 37 25 59
30 25 6 30 9 14 9 -14 0 -34 -3 -44 -5z"/>
<path d="M913 1642 c-13 -2 -23 -8 -23 -13 0 -9 47 -5 57 5 8 7 -11 12 -34 8z"/>
<path d="M1310 2561 c0 -5 5 -13 10 -16 6 -3 10 -2 10 4 0 5 -4 13 -10 16 -5
3 -10 2 -10 -4z"/>
<path d="M1232 2534 c-12 -8 -22 -20 -22 -26 0 -6 8 -4 18 5 31 28 69 26 82
-5 6 -17 9 -18 9 -6 1 17 -34 48 -54 48 -6 0 -21 -7 -33 -16z"/>
<path d="M649 2493 c-34 -42 -40 -55 -10 -24 17 18 30 35 28 37 -2 2 -10 -4
-18 -13z"/>
<path d="M1251 2488 c1 -19 2 -19 6 -5 3 11 11 16 19 13 9 -3 12 -1 9 4 -12
19 -35 10 -34 -12z"/>
<path d="M1210 2481 c0 -6 5 -13 10 -16 6 -3 10 1 10 9 0 9 -4 16 -10 16 -5 0
-10 -4 -10 -9z"/>
<path d="M1280 2472 c0 -7 -10 -13 -22 -13 -19 -1 -20 -2 -4 -6 20 -5 44 12
33 24 -4 3 -7 1 -7 -5z"/>
<path d="M559 2382 c-34 -45 -102 -159 -127 -212 -114 -243 -128 -572 -37
-841 43 -124 140 -295 216 -377 40 -44 48 -36 9 9 -16 19 -29 39 -30 45 0 6
-9 19 -21 30 -23 21 -54 74 -42 74 4 0 2 5 -5 12 -7 7 -12 20 -12 30 0 10 -5
17 -11 15 -14 -3 -53 71 -75 143 -10 30 -20 60 -24 65 -4 6 -15 46 -25 90 -17
76 -26 346 -14 415 24 132 61 242 117 350 24 47 62 109 84 138 22 30 38 55 36
57 -2 3 -20 -17 -39 -43z"/>
<path d="M1358 2369 c-19 -11 -25 -64 -9 -73 5 -4 7 -21 5 -39 -3 -26 -2 -28
5 -11 5 12 20 29 33 39 l23 16 -25 -3 c-20 -2 -26 2 -28 21 -7 45 32 53 76 16
32 -27 57 -32 68 -14 4 7 0 9 -14 5 -26 -9 -38 10 -15 24 16 10 15 10 -4 5
-14 -4 -32 0 -45 9 -26 18 -46 20 -70 5z"/>
<path d="M1386 2237 c3 -10 9 -15 12 -12 3 3 0 11 -7 18 -10 9 -11 8 -5 -6z"/>
<path d="M1176 2035 c-3 -8 -1 -15 3 -15 5 0 11 7 15 15 3 8 1 15 -3 15 -5 0
-11 -7 -15 -15z"/>
<path d="M1350 2005 c0 -8 2 -15 4 -15 2 0 6 7 10 15 3 8 1 15 -4 15 -6 0 -10
-7 -10 -15z"/>
<path d="M1920 1944 c14 -10 31 -24 38 -32 6 -9 12 -11 12 -5 0 13 -48 53 -64
53 -6 0 1 -7 14 -16z"/>
<path d="M2591 1952 c-1 -7 -5 -10 -11 -7 -10 6 -3 -20 10 -40 22 -33 20 -360
-3 -425 -8 -24 -28 -103 -31 -125 -2 -16 -12 -21 -44 -23 -53 -4 -93 -42 -91
-86 l2 -31 4 30 c7 43 40 75 79 75 18 0 36 -4 39 -10 4 -6 -6 -10 -22 -10 -16
0 -37 -6 -47 -13 -24 -17 -18 -65 11 -84 21 -14 23 -13 38 24 33 74 64 173 81
255 19 90 25 287 11 374 -9 58 -25 116 -26 96z m-57 -683 c-3 -5 -11 -9 -19
-9 -21 0 -28 -19 -13 -37 11 -14 11 -16 -1 -12 -8 3 -19 13 -25 23 -9 14 -6
21 12 36 22 18 58 17 46 -1z"/>
<path d="M1816 1923 c-6 -14 -5 -15 5 -6 7 7 10 15 7 18 -3 3 -9 -2 -12 -12z"/>
<path d="M1870 1917 c-13 -7 -26 -19 -28 -27 -4 -12 -1 -11 15 3 47 41 100 -2
74 -60 -10 -26 -10 -27 4 -9 40 52 -9 121 -65 93z"/>
<path d="M1874 1876 c1 -9 6 -19 11 -23 4 -4 5 -2 1 5 -4 7 -1 12 8 12 19 0
20 -11 4 -29 -11 -11 -10 -13 2 -9 24 7 19 52 -7 56 -15 2 -21 -2 -19 -12z"/>
<path d="M1971 1864 c0 -11 3 -14 6 -6 3 7 2 16 -1 19 -3 4 -6 -2 -5 -13z"/>
<path d="M1589 1394 c28 -36 28 -74 1 -67 -14 4 -20 14 -20 32 0 14 -5 33 -11
41 -8 12 -9 10 -5 -10 3 -14 6 -35 6 -47 0 -16 6 -23 19 -23 11 0 22 -4 25 -9
3 -5 -3 -61 -14 -124 -11 -64 -24 -158 -30 -209 -6 -51 -20 -117 -31 -146 -10
-29 -19 -71 -19 -93 0 -33 5 -43 28 -56 16 -9 34 -30 40 -47 7 -16 14 -27 17
-24 3 3 1 18 -5 33 -9 24 -8 30 10 42 12 8 19 21 17 27 -3 7 3 23 14 37 18 24
18 24 12 2 -3 -13 -9 -23 -13 -23 -15 0 3 -41 23 -51 23 -13 69 3 66 23 -1 7
7 33 19 58 21 45 21 45 16 10 -3 -19 -7 -45 -10 -57 -2 -12 0 -24 6 -28 14 -9
64 20 94 55 14 18 26 26 26 19 0 -25 18 6 41 71 12 36 26 70 31 76 5 7 2 17
-8 25 -12 9 -17 10 -23 1 -5 -9 -14 -9 -37 0 -46 17 -80 -11 -121 -101 -40
-87 -69 -131 -87 -131 -18 0 -11 37 26 138 24 64 28 86 19 95 -9 9 -14 9 -20
-2 -7 -10 -13 -11 -31 -1 -29 15 -70 5 -70 -18 0 -10 -7 -27 -16 -38 -15 -18
-15 -17 -10 15 58 337 68 469 40 509 -8 12 -20 22 -25 22 -6 0 -1 -12 10 -26z
m71 -517 c0 -12 -16 -53 -34 -92 -20 -39 -30 -72 -25 -76 5 -3 -1 -10 -14 -16
-28 -13 -47 -1 -47 30 0 10 -4 15 -10 12 -13 -8 -13 2 1 64 14 66 27 74 22 13
-3 -26 0 -63 5 -82 9 -32 10 -28 11 38 1 78 18 118 55 132 27 10 36 4 36 -23z
m217 21 c13 -17 10 -31 -20 -99 -22 -51 -60 -99 -78 -99 -36 0 5 142 56 194
20 19 29 20 42 4z m36 -8 c-3 -12 -8 -19 -11 -16 -5 6 5 36 12 36 2 0 2 -9 -1
-20z m-30 -90 c-3 -12 -8 -19 -11 -16 -5 6 5 36 12 36 2 0 2 -9 -1 -20z"/>
<path d="M830 1350 c-13 -8 -12 -10 3 -10 9 0 17 5 17 10 0 12 -1 12 -20 0z"/>
<path d="M1050 1316 c0 -24 26 -38 40 -22 6 9 9 20 5 26 -9 15 -45 12 -45 -4z"/>
<path d="M1460 1316 c0 -24 26 -38 40 -22 6 9 9 20 5 26 -9 15 -45 12 -45 -4z"/>
<path d="M580 1225 c-7 -9 -11 -17 -9 -20 3 -2 10 5 17 15 14 24 10 26 -8 5z"/>
<path d="M2450 1187 c20 -24 22 -31 12 -47 -7 -11 -12 -27 -12 -36 0 -9 -9
-23 -20 -32 -11 -10 -33 -48 -50 -87 -27 -66 -31 -70 -58 -67 -19 2 -32 -2
-35 -13 -9 -22 -26 -18 -20 5 3 11 1 20 -4 20 -9 0 -73 -176 -73 -203 0 -9 -8
-17 -17 -17 -13 0 -8 -7 14 -21 25 -16 36 -18 50 -10 10 6 15 11 11 11 -4 0 4
16 17 36 14 20 25 43 25 50 0 7 5 16 10 19 6 4 1 -17 -10 -45 -11 -28 -20 -58
-19 -68 1 -26 46 73 70 156 21 68 24 72 50 72 33 0 39 16 9 25 -25 8 -21 27
17 93 23 41 27 43 59 37 40 -7 45 6 10 25 l-25 13 20 38 c18 36 18 39 2 39 -9
0 -26 8 -37 17 -15 13 -14 9 4 -10z m-151 -353 c-34 -88 -63 -134 -86 -134
-11 0 -14 6 -8 23 4 12 12 41 19 65 12 42 71 120 93 121 7 1 0 -28 -18 -75z"/>
<path d="M557 1159 c7 -7 15 -10 18 -7 3 3 -2 9 -12 12 -14 6 -15 5 -6 -5z"/>
<path d="M1127 1063 c-40 -26 -85 -47 -108 -50 -37 -5 -40 -4 -54 31 -15 36
-45 50 -45 20 0 -42 53 -84 105 -84 39 0 113 39 136 71 11 16 25 27 30 23 5
-3 7 -10 4 -15 -4 -5 -2 -9 2 -9 5 0 14 9 20 20 11 16 10 21 -5 28 -13 7 -34
-2 -85 -35z"/>
<path d="M1241 1064 c-30 -25 -44 -53 -18 -38 12 8 -5 -17 -31 -44 -10 -11
-13 -11 -18 2 -3 9 -4 23 0 31 3 8 1 15 -4 15 -10 0 -30 -62 -22 -70 3 -3 7 1
9 8 3 6 8 10 13 7 5 -3 -2 -24 -15 -48 -12 -23 -29 -65 -36 -94 -7 -29 -16
-50 -20 -47 -5 3 -16 -12 -26 -33 -9 -21 -19 -42 -22 -48 -2 -5 4 -3 15 5 15
11 16 11 7 0 -19 -21 -41 -20 -46 1 -3 10 -1 17 4 13 9 -5 10 -4 14 34 1 13 8
29 15 35 10 10 10 7 1 -13 -11 -23 -11 -24 3 -6 9 10 13 23 10 28 -4 5 3 19
14 31 24 26 55 87 49 94 -9 8 -126 -168 -133 -200 -5 -23 -2 -34 12 -44 24
-17 53 -17 60 2 4 8 10 12 15 9 5 -3 6 1 3 9 -3 8 -1 18 5 22 6 3 11 15 11 26
0 10 5 19 11 19 5 0 8 4 5 9 -9 14 35 133 65 177 37 54 97 106 117 102 32 -6
25 -68 -26 -221 -45 -137 -47 -149 -31 -158 22 -11 32 -12 25 -1 -3 5 17 76
45 158 58 174 88 217 149 212 l35 -3 0 -65 c1 -84 -4 -110 -19 -104 -8 3 -21
-18 -36 -58 -56 -154 -67 -228 -35 -228 8 0 22 -3 32 -6 17 -6 17 -6 -1 8 -26
20 -20 52 39 217 26 72 45 138 41 146 -3 9 -2 13 4 10 6 -4 10 12 10 39 0 54
-24 76 -82 76 -28 0 -46 -8 -70 -31 -23 -21 -27 -29 -14 -24 19 6 19 5 1 -15
-10 -11 -19 -20 -21 -20 -1 0 -1 15 2 34 3 28 -1 38 -18 50 -32 23 -62 20 -97
-10z m-144 -306 c-3 -8 -6 -5 -6 6 -1 11 2 17 5 13 3 -3 4 -12 1 -19z"/>
<path d="M2455 990 c-7 -11 42 -37 51 -27 9 9 -15 37 -32 37 -7 0 -16 -4 -19
-10z"/>
<path d="M2276 975 c-3 -9 0 -15 9 -15 8 0 15 7 15 15 0 8 -4 15 -9 15 -5 0
-11 -7 -15 -15z"/>
<path d="M1090 970 c-18 -11 -4 -42 17 -38 10 2 19 10 21 19 4 19 -19 31 -38
19z"/>
<path d="M1444 926 c-7 -19 3 -36 22 -36 10 0 14 8 12 22 -4 26 -26 36 -34 14z"/>
<path d="M1992 871 c-23 -69 -27 -74 -134 -166 -31 -26 -19 -35 17 -14 47 28
91 86 119 156 15 35 33 63 47 70 13 7 19 13 12 13 -6 0 -18 2 -25 5 -10 4 -20
-14 -36 -64z"/>
<path d="M2437 913 c-7 -15 -24 -57 -37 -93 -19 -51 -37 -78 -87 -127 -34 -35
-68 -63 -75 -63 -9 0 -9 -3 2 -11 13 -9 13 -10 0 -6 -9 2 -22 -8 -32 -24 -24
-39 -52 -53 -68 -34 -16 20 10 51 50 60 28 6 83 55 62 55 -7 0 -12 -4 -12 -9
0 -4 -19 -11 -42 -14 -50 -7 -92 -36 -96 -66 -5 -33 25 -61 64 -61 28 0 39 7
64 42 16 22 30 47 30 54 0 7 10 16 23 19 12 4 38 20 58 36 33 25 39 26 55 14
38 -29 83 -7 89 43 5 40 33 94 45 87 5 -3 17 11 26 31 29 61 96 87 74 28 -13
-32 -13 -31 7 -38 37 -15 47 63 11 88 -12 9 -31 16 -42 16 -21 0 -96 -73 -96
-93 0 -7 -13 -39 -29 -73 -26 -55 -55 -84 -69 -69 -6 6 10 61 43 152 19 51 21
64 10 73 -11 9 -17 5 -28 -17z m-32 -147 c-8 -24 -12 -46 -9 -48 2 -3 -3 -5
-11 -5 -18 0 -19 -4 5 51 26 58 32 59 15 2z"/>
<path d="M2755 928 c-29 -17 -41 -34 -80 -115 -36 -73 -76 -113 -113 -113 -31
0 -46 25 -34 58 5 16 6 35 2 43 -10 15 -26 -34 -21 -65 2 -12 -1 -16 -9 -11
-9 6 -9 2 0 -14 22 -42 110 -52 140 -16 11 13 16 12 37 -5 14 -11 33 -20 42
-20 25 0 62 30 59 47 -2 9 4 18 12 20 12 4 12 3 2 -5 -11 -7 -8 -11 10 -15 49
-14 67 -8 93 30 29 44 30 49 10 57 -10 3 -20 -5 -30 -24 -16 -31 -49 -55 -64
-46 -5 3 2 27 15 53 32 63 31 106 -2 132 -30 24 -41 25 -69 9z m56 -35 c4 -53
-9 -93 -26 -87 -11 5 -15 -2 -15 -27 0 -50 -59 -103 -73 -66 -7 17 19 114 37
142 35 53 75 73 77 38z m-127 -134 c-4 -25 -11 -35 -25 -35 -16 0 -16 3 -5 16
8 8 17 25 21 38 10 34 15 22 9 -19z m123 16 c-11 -23 -27 -34 -27 -18 0 6 30
43 36 43 1 0 -3 -11 -9 -25z"/>
<path d="M2127 902 c8 -43 -35 -185 -53 -178 -7 3 -33 -6 -58 -19 -26 -14 -46
-23 -46 -21 0 1 9 28 19 58 22 64 88 165 105 160 7 -2 7 1 -1 9 -16 16 -45 -9
-79 -67 -24 -40 -65 -148 -67 -171 0 -7 -7 -13 -15 -13 -8 0 -12 6 -9 14 3 8
-16 2 -48 -16 -35 -19 -57 -38 -65 -58 -7 -17 -17 -33 -22 -36 -6 -4 -5 4 2
16 6 12 9 24 6 28 -3 3 -6 0 -6 -7 0 -6 -12 -24 -26 -38 -20 -20 -22 -24 -7
-19 16 5 16 5 2 -6 -24 -20 -230 -278 -221 -278 5 0 18 12 31 26 77 89 231
274 260 312 18 24 36 40 40 35 3 -6 14 -7 26 -2 20 8 20 8 0 9 -19 1 -19 1 -1
11 13 8 20 8 25 1 6 -10 111 36 135 58 4 5 18 -3 30 -17 18 -21 28 -25 50 -19
18 4 26 12 23 20 -3 8 0 22 7 32 28 42 25 58 -4 24 -16 -19 -30 -38 -30 -42 0
-5 -7 -8 -15 -8 -27 0 -15 35 20 59 20 13 33 26 30 29 -2 3 -11 -1 -19 -7 -22
-19 -28 3 -11 43 19 45 19 67 0 92 -14 18 -14 17 -8 -14z"/>
<path d="M1184 665 c-7 -18 3 -35 21 -35 18 0 26 25 12 39 -15 15 -27 14 -33
-4z"/>
<path d="M1464 665 c-7 -18 3 -35 21 -35 18 0 26 25 12 39 -15 15 -27 14 -33
-4z"/>
<path d="M1744 620 c-12 -4 -33 -20 -48 -33 l-27 -26 21 -21 c23 -23 49 -18
30 5 -19 22 -2 51 38 68 20 8 30 15 22 15 -8 1 -24 -3 -36 -8z"/>
<path d="M1324 487 c3 -10 6 -25 6 -33 0 -8 5 -14 11 -14 12 0 2 40 -14 55 -7
7 -8 4 -3 -8z"/>
<path d="M1346 412 c-2 -4 -1 -14 4 -22 7 -11 9 -9 7 8 -1 24 -3 26 -11 14z"/>
</g>
</svg>
