<svg id="svg" version="1.1" xmlns="http://www.w3.org/2000/svg" xmlns:xlink="http://www.w3.org/1999/xlink" width="400" height="400" viewBox="0, 0, 400,400"><g id="svgg"><path id="path0" d="M247.000 62.817 C 240.862 63.264,235.305 64.194,230.800 65.529 C 226.898 66.685,221.659 68.786,219.491 70.064 C 218.431 70.689,217.421 71.200,217.244 71.200 C 217.068 71.200,216.598 71.560,216.200 72.000 C 215.802 72.440,215.326 72.800,215.143 72.800 C 214.362 72.800,209.940 76.885,208.004 79.395 C 206.132 81.821,206.174 82.257,208.314 82.624 C 217.781 84.247,227.947 90.679,234.055 98.910 C 236.297 101.931,240.000 108.932,240.000 110.150 C 240.000 110.481,240.159 110.851,240.354 110.971 C 240.549 111.092,240.825 111.777,240.969 112.495 C 241.113 113.213,241.425 114.700,241.663 115.800 C 241.901 116.900,242.174 120.054,242.269 122.809 L 242.442 127.818 244.121 128.323 C 246.894 129.157,252.033 131.895,254.800 134.011 C 258.976 137.205,263.202 139.869,267.097 141.764 C 267.590 142.004,267.995 142.335,267.997 142.500 C 267.999 142.665,268.190 142.800,268.422 142.800 C 268.654 142.800,269.904 143.520,271.200 144.400 C 272.496 145.280,273.660 146.000,273.788 146.000 C 274.118 146.000,285.263 153.507,288.600 155.978 C 293.084 159.297,293.675 159.745,294.966 160.800 C 295.639 161.350,296.462 162.016,296.795 162.279 C 303.662 167.713,317.222 180.565,321.100 185.317 C 322.035 186.463,323.270 187.940,323.845 188.600 C 324.419 189.260,325.364 190.430,325.945 191.200 C 326.525 191.970,327.405 193.048,327.900 193.596 C 328.395 194.144,328.800 194.716,328.800 194.867 C 328.800 195.019,329.031 195.381,329.313 195.671 C 330.913 197.318,337.426 207.493,339.574 211.700 C 340.222 212.969,341.200 213.164,341.200 212.024 C 341.200 211.597,341.344 211.158,341.521 211.049 C 341.697 210.940,342.093 209.928,342.400 208.800 C 342.707 207.672,343.103 206.660,343.279 206.551 C 343.456 206.442,343.600 205.924,343.600 205.400 C 343.600 204.876,343.780 204.336,344.000 204.200 C 344.220 204.064,344.400 203.524,344.400 203.000 C 344.400 202.476,344.580 201.936,344.800 201.800 C 345.020 201.664,345.200 201.124,345.200 200.600 C 345.200 200.076,345.380 199.536,345.600 199.400 C 345.820 199.264,346.000 198.771,346.000 198.305 C 346.000 197.506,346.520 195.595,347.225 193.800 C 347.398 193.360,347.651 192.460,347.787 191.800 C 347.923 191.140,348.224 189.790,348.456 188.800 C 349.403 184.767,349.643 183.560,350.592 178.071 C 353.468 161.445,353.033 145.945,349.230 129.600 C 348.886 128.123,347.006 122.359,346.424 121.000 C 346.236 120.560,345.774 119.480,345.398 118.600 C 338.894 103.381,322.749 84.744,310.909 78.787 C 310.299 78.480,309.302 77.893,308.694 77.483 C 308.086 77.073,306.286 76.064,304.694 75.242 C 303.102 74.419,301.440 73.548,301.000 73.305 C 299.783 72.634,295.178 70.591,293.600 70.023 C 292.830 69.746,291.840 69.365,291.400 69.175 C 289.592 68.398,284.035 66.765,279.467 65.667 C 274.851 64.558,272.700 64.164,266.200 63.238 C 262.173 62.664,252.127 62.444,247.000 62.817 M135.935 62.999 C 135.825 63.108,134.220 63.376,132.368 63.595 C 124.749 64.494,119.572 65.697,110.633 68.649 C 104.236 70.761,102.929 70.697,100.532 68.156 C 98.965 66.494,98.829 66.494,95.600 68.142 C 88.273 71.882,87.948 72.108,88.755 72.915 C 90.500 74.660,88.723 78.993,85.254 81.455 C 78.468 86.271,71.645 92.642,66.732 98.749 C 64.031 102.107,59.600 108.569,59.600 109.151 C 59.600 109.361,59.459 109.593,59.287 109.667 C 58.899 109.832,54.751 118.217,53.582 121.200 C 45.400 142.079,45.409 167.811,53.607 196.400 C 54.080 198.050,54.563 199.897,54.680 200.505 C 54.797 201.113,55.051 201.708,55.246 201.829 C 55.441 201.949,55.600 202.476,55.600 203.000 C 55.600 203.524,55.780 204.064,56.000 204.200 C 56.220 204.336,56.400 204.876,56.400 205.400 C 56.400 205.924,56.544 206.442,56.721 206.551 C 56.897 206.660,57.293 207.672,57.600 208.800 C 57.907 209.928,58.303 210.940,58.479 211.049 C 58.656 211.158,58.800 211.577,58.800 211.981 C 58.800 213.267,59.811 213.188,60.388 211.857 C 61.723 208.783,70.433 195.312,72.492 193.136 C 72.772 192.841,73.475 191.970,74.055 191.200 C 74.636 190.430,75.581 189.260,76.155 188.600 C 76.730 187.940,77.965 186.466,78.900 185.326 C 82.821 180.541,95.265 168.693,102.138 163.200 C 102.551 162.870,103.094 162.410,103.345 162.177 C 105.673 160.012,125.455 146.000,126.182 146.000 C 126.326 146.000,127.504 145.280,128.800 144.400 C 130.096 143.520,131.273 142.800,131.416 142.800 C 131.559 142.800,132.154 142.461,132.738 142.047 C 133.831 141.272,135.379 140.369,139.200 138.279 C 140.410 137.617,142.047 136.499,142.838 135.794 C 145.021 133.851,148.683 131.493,151.800 130.026 C 153.340 129.301,154.913 128.548,155.295 128.354 C 155.677 128.159,156.337 128.000,156.763 128.000 C 157.476 128.000,157.552 127.604,157.742 122.900 C 157.974 117.169,158.311 114.381,158.841 113.820 C 159.038 113.611,159.200 112.947,159.200 112.344 C 159.200 111.741,159.380 111.136,159.600 111.000 C 159.820 110.864,160.000 110.481,160.000 110.150 C 160.000 109.060,163.584 102.102,165.472 99.525 C 171.630 91.120,182.151 84.260,191.155 82.779 C 192.340 82.584,193.405 82.328,193.522 82.211 C 194.549 81.184,187.259 73.793,182.700 71.240 C 181.875 70.778,180.594 70.056,179.853 69.637 C 175.543 67.194,167.020 64.743,157.554 63.225 C 154.947 62.806,136.322 62.612,135.935 62.999 " stroke="none" fill="#7cb373" fill-rule="evenodd"></path><path id="path1" d="M197.644 193.235 C 192.857 198.516,186.127 202.468,178.600 204.419 C 174.841 205.394,173.130 205.600,168.800 205.600 C 163.075 205.600,159.691 204.945,153.930 202.720 C 149.704 201.088,145.121 198.174,141.854 195.042 C 139.138 192.439,138.400 192.132,138.400 193.605 C 138.400 194.021,138.230 194.776,138.022 195.281 C 137.643 196.205,136.945 198.573,134.981 205.600 C 133.972 209.211,131.539 219.168,130.827 222.600 C 129.353 229.700,128.648 233.277,128.621 233.793 C 128.609 234.009,129.230 234.308,130.000 234.456 C 134.952 235.409,148.420 237.606,151.600 237.980 C 160.868 239.067,162.866 239.277,167.200 239.616 C 191.345 241.505,208.748 241.298,232.400 238.840 C 234.490 238.623,238.090 238.250,240.400 238.012 C 246.667 237.364,263.847 235.264,266.646 234.803 C 267.991 234.581,269.556 234.400,270.123 234.400 C 270.689 234.400,271.236 234.265,271.338 234.100 C 271.695 233.522,267.384 213.627,265.596 207.600 C 265.172 206.170,264.534 203.920,264.178 202.600 C 263.822 201.280,263.351 199.570,263.132 198.800 C 262.913 198.030,262.638 196.903,262.521 196.295 C 262.404 195.687,262.149 195.092,261.954 194.971 C 261.759 194.851,261.600 194.223,261.600 193.576 C 261.600 191.948,261.330 192.057,258.386 194.877 C 256.964 196.239,254.455 198.216,252.811 199.270 C 250.249 200.912,248.526 201.742,243.800 203.610 C 243.001 203.926,241.342 204.325,237.200 205.199 C 231.569 206.388,222.100 205.198,215.687 202.495 C 211.102 200.562,206.880 197.713,203.271 194.117 C 201.441 192.293,199.911 190.813,199.871 190.829 C 199.832 190.844,198.830 191.927,197.644 193.235 M126.552 246.865 C 126.365 247.159,126.077 248.570,125.911 250.000 C 125.745 251.430,125.423 254.130,125.195 256.000 C 123.718 268.098,123.334 272.779,122.847 284.600 C 122.629 289.880,122.337 295.607,122.196 297.326 C 121.970 300.091,122.682 318.768,123.028 319.148 C 123.303 319.450,127.938 320.449,134.400 321.599 C 135.390 321.776,137.280 322.131,138.600 322.389 C 143.460 323.339,154.657 324.816,163.200 325.635 C 173.156 326.589,179.307 326.838,197.798 327.038 C 210.849 327.178,218.489 327.104,220.669 326.813 C 228.239 325.806,233.139 331.205,229.309 336.335 C 227.336 338.977,226.737 339.067,209.055 339.361 C 184.369 339.772,164.831 338.742,146.000 336.037 C 139.107 335.047,137.205 334.728,129.400 333.247 C 122.657 331.968,123.268 331.270,124.364 339.000 C 126.394 353.322,136.264 365.075,150.000 369.531 C 155.037 371.165,164.853 372.304,185.000 373.592 C 205.040 374.873,240.329 372.668,250.000 369.531 C 252.474 368.728,258.776 365.789,259.200 365.240 C 259.310 365.098,259.907 364.659,260.527 364.264 C 262.519 362.995,267.248 358.273,269.003 355.800 C 273.327 349.706,275.218 344.148,276.242 334.523 L 276.506 332.046 274.110 332.605 C 272.792 332.913,270.653 333.342,269.357 333.559 C 268.060 333.776,265.470 334.216,263.600 334.537 C 261.730 334.858,258.670 335.329,256.800 335.583 C 254.930 335.837,252.531 336.214,251.469 336.422 C 242.936 338.092,237.944 331.466,243.636 326.026 C 244.822 324.893,245.365 324.742,251.000 323.985 C 252.540 323.778,254.430 323.513,255.200 323.397 C 255.970 323.280,257.860 322.994,259.400 322.762 C 260.940 322.529,262.920 322.187,263.800 322.002 C 264.680 321.817,266.390 321.476,267.600 321.244 C 271.172 320.562,274.102 319.949,275.644 319.562 L 277.088 319.199 277.608 311.032 C 277.940 305.805,278.021 300.659,277.833 296.733 C 277.671 293.360,277.373 287.090,277.170 282.800 C 276.685 272.563,276.222 267.299,274.794 255.800 C 274.575 254.040,274.259 251.430,274.091 250.000 C 273.769 247.247,273.379 246.242,272.778 246.614 C 272.380 246.859,269.315 247.428,265.200 248.019 C 263.770 248.225,261.520 248.561,260.200 248.768 C 250.487 250.286,240.145 251.469,232.000 251.993 C 228.370 252.227,223.060 252.595,220.200 252.810 C 213.405 253.321,185.713 253.325,178.800 252.815 C 161.124 251.513,156.265 251.077,149.600 250.200 C 145.530 249.665,140.040 248.843,137.400 248.374 C 134.760 247.905,131.700 247.368,130.600 247.180 C 129.500 246.992,128.215 246.724,127.745 246.584 C 127.224 246.429,126.758 246.539,126.552 246.865 M153.199 273.000 C 156.061 274.479,156.400 275.544,156.400 283.047 L 156.400 289.818 155.179 291.299 C 152.483 294.570,147.367 294.182,145.220 290.544 C 144.224 288.856,143.976 277.529,144.900 275.917 C 146.748 272.692,150.234 271.466,153.199 273.000 M252.320 272.968 C 253.460 273.569,254.454 274.606,255.169 275.942 C 255.885 277.280,255.730 288.817,254.976 290.329 C 253.148 293.992,248.204 294.604,245.145 291.545 L 243.600 290.000 243.600 283.162 C 243.600 276.817,243.662 276.237,244.455 275.122 C 246.250 272.602,249.785 271.634,252.320 272.968 M190.279 281.241 C 190.763 281.419,191.843 282.178,192.679 282.928 C 197.176 286.958,202.811 286.906,207.501 282.790 C 212.604 278.312,219.427 281.801,218.214 288.268 C 217.828 290.323,213.819 294.222,210.400 295.866 C 205.778 298.088,205.278 298.200,200.000 298.200 C 196.748 298.200,194.511 298.010,193.600 297.658 C 183.320 293.677,178.881 287.146,183.389 282.637 C 185.396 280.631,187.476 280.209,190.279 281.241 " stroke="none" fill="#f6cc41" fill-rule="evenodd"></path><path id="path2" d="M91.000 26.763 C 85.886 27.538,79.606 29.080,76.000 30.445 C 74.790 30.903,73.440 31.415,73.000 31.581 C 51.622 39.690,31.049 61.748,19.257 89.205 C 15.900 97.023,12.352 106.723,12.758 106.974 C 12.907 107.066,14.733 106.473,16.815 105.656 C 20.419 104.242,27.395 101.961,30.400 101.214 C 31.170 101.023,32.520 100.679,33.400 100.450 C 34.280 100.221,35.990 99.828,37.200 99.578 C 38.410 99.327,40.120 98.971,41.000 98.787 C 42.536 98.465,46.451 97.888,50.529 97.382 C 51.600 97.249,52.703 96.844,53.009 96.471 C 53.313 96.102,55.044 93.910,56.856 91.600 C 64.790 81.488,78.939 69.600,83.039 69.600 C 88.917 69.600,90.869 76.876,85.931 80.378 C 82.349 82.918,77.218 87.013,77.209 87.339 C 77.204 87.525,77.875 87.113,78.700 86.424 C 79.525 85.734,81.550 84.188,83.200 82.988 C 87.187 80.088,87.291 79.997,88.315 78.538 C 89.287 77.153,89.556 73.716,88.755 72.915 C 87.948 72.108,88.273 71.882,95.600 68.142 C 98.790 66.514,99.225 66.497,100.307 67.960 C 101.801 69.980,104.383 70.679,107.127 69.805 C 108.377 69.407,109.185 69.006,108.922 68.915 C 108.659 68.823,108.086 68.940,107.648 69.174 C 101.585 72.419,95.921 62.839,101.751 59.199 C 103.212 58.286,113.544 54.874,117.600 53.965 C 118.590 53.743,120.120 53.391,121.000 53.183 C 122.534 52.821,125.700 52.263,132.600 51.139 C 134.620 50.810,139.488 50.617,145.800 50.616 C 155.666 50.614,158.438 50.850,165.600 52.301 C 171.869 53.571,171.957 53.517,168.500 50.538 C 147.120 32.112,116.887 22.837,91.000 26.763 M288.200 26.246 C 278.113 27.695,273.522 28.706,266.600 31.003 C 260.882 32.901,258.921 33.695,252.200 36.834 C 245.336 40.039,235.688 46.504,230.749 51.208 L 228.600 53.254 230.200 53.036 C 231.080 52.915,232.610 52.639,233.600 52.422 C 241.908 50.601,259.824 49.918,267.400 51.134 C 269.160 51.416,271.770 51.826,273.200 52.045 C 292.311 54.964,319.221 67.164,329.730 77.673 C 330.035 77.978,331.414 79.211,332.795 80.414 C 335.889 83.109,341.766 89.586,344.759 93.600 C 347.441 97.197,347.343 97.120,349.600 97.399 C 353.570 97.889,357.484 98.470,359.000 98.793 C 359.880 98.981,361.680 99.356,363.000 99.627 C 365.389 100.117,367.520 100.642,371.900 101.818 C 374.346 102.474,381.797 104.962,383.800 105.791 C 386.725 107.001,387.131 107.136,387.314 106.952 C 387.582 106.685,385.188 99.778,383.554 96.104 C 383.139 95.172,382.800 94.173,382.800 93.884 C 382.800 93.596,382.656 93.189,382.480 92.980 C 382.304 92.771,381.552 91.160,380.808 89.400 C 369.318 62.221,348.257 39.590,327.000 31.579 C 326.560 31.414,325.210 30.903,324.000 30.445 C 315.291 27.148,296.922 24.993,288.200 26.246 M138.200 62.434 C 131.373 62.905,122.169 64.490,117.600 65.981 C 117.050 66.160,115.790 66.531,114.800 66.805 C 112.055 67.565,109.562 68.495,109.755 68.688 C 109.850 68.783,111.609 68.323,113.664 67.665 C 135.509 60.672,158.034 61.004,177.800 68.610 C 178.331 68.814,178.465 68.784,178.200 68.520 C 177.648 67.972,171.914 65.757,169.000 64.967 C 159.781 62.466,149.714 61.639,138.200 62.434 M246.800 62.236 C 239.433 62.633,229.410 64.953,223.261 67.683 C 220.287 69.004,221.675 68.851,225.225 67.467 C 230.224 65.518,234.666 64.404,242.400 63.161 C 246.264 62.540,262.076 62.541,266.000 63.162 C 267.650 63.423,270.260 63.831,271.800 64.067 C 275.504 64.637,283.568 66.586,287.410 67.841 C 290.651 68.900,292.038 68.951,289.109 67.905 C 283.734 65.984,276.030 64.169,267.600 62.839 C 264.824 62.400,251.119 62.004,246.800 62.236 M178.800 68.971 C 178.800 69.065,179.295 69.399,179.900 69.713 C 183.422 71.545,184.772 72.421,187.148 74.414 C 191.726 78.254,194.465 82.115,192.900 82.524 C 192.244 82.696,192.245 82.710,192.913 82.754 C 195.551 82.925,192.479 78.024,187.475 74.077 C 184.082 71.401,178.800 68.292,178.800 68.971 M216.782 71.149 C 211.562 74.428,205.538 80.620,206.113 82.117 C 206.226 82.412,207.372 82.881,208.660 83.158 C 220.007 85.600,230.765 93.269,236.101 102.718 C 236.759 103.883,237.374 104.759,237.468 104.665 C 237.735 104.398,236.109 101.665,233.924 98.708 C 228.056 90.764,217.643 84.224,208.314 82.624 C 206.174 82.257,206.132 81.821,208.004 79.395 C 209.958 76.862,214.363 72.800,215.156 72.800 C 215.346 72.800,215.715 72.543,215.976 72.229 C 216.237 71.915,217.384 71.176,218.525 70.587 C 220.776 69.425,221.621 68.800,220.940 68.800 C 220.709 68.800,218.838 69.857,216.782 71.149 M291.420 69.118 C 291.629 69.293,292.520 69.676,293.400 69.968 C 294.280 70.260,296.133 71.039,297.517 71.700 C 298.901 72.360,300.141 72.792,300.272 72.661 C 300.404 72.530,300.081 72.254,299.555 72.049 C 299.030 71.844,297.099 71.029,295.265 70.238 C 292.059 68.856,290.599 68.431,291.420 69.118 M300.957 73.130 C 301.069 73.312,302.385 74.069,303.881 74.813 C 305.376 75.556,307.320 76.628,308.200 77.195 C 309.080 77.761,310.299 78.476,310.909 78.785 C 322.503 84.641,340.236 105.008,345.187 118.155 C 345.427 118.791,345.732 119.202,345.866 119.068 C 346.296 118.637,341.596 109.567,338.688 105.219 C 330.842 93.486,319.867 83.254,307.719 76.344 C 302.687 73.481,300.545 72.464,300.957 73.130 M187.126 83.774 C 175.664 87.746,166.812 95.447,161.811 105.798 C 160.815 107.860,160.000 109.818,160.000 110.150 C 160.000 110.481,159.820 110.864,159.600 111.000 C 159.380 111.136,159.200 111.741,159.200 112.344 C 159.200 112.947,159.038 113.611,158.841 113.820 C 158.311 114.381,157.974 117.169,157.742 122.900 C 157.552 127.604,157.476 128.000,156.763 128.000 C 156.337 128.000,155.677 128.159,155.295 128.354 C 154.913 128.548,153.340 129.301,151.800 130.026 C 148.683 131.493,145.021 133.851,142.838 135.794 C 142.047 136.499,140.410 137.617,139.200 138.279 C 135.379 140.369,133.831 141.272,132.738 142.047 C 132.154 142.461,131.559 142.800,131.416 142.800 C 131.273 142.800,130.096 143.520,128.800 144.400 C 127.504 145.280,126.326 146.000,126.182 146.000 C 125.298 146.000,105.642 160.061,101.855 163.402 C 101.605 163.623,100.410 164.612,99.200 165.599 C 94.345 169.562,81.937 181.620,78.900 185.326 C 77.965 186.466,76.730 187.940,76.155 188.600 C 75.581 189.260,74.636 190.430,74.055 191.200 C 73.475 191.970,72.772 192.841,72.492 193.136 C 70.433 195.312,61.723 208.783,60.388 211.857 C 59.811 213.188,58.800 213.267,58.800 211.981 C 58.800 211.577,58.656 211.158,58.479 211.049 C 58.303 210.940,57.907 209.928,57.600 208.800 C 57.293 207.672,56.897 206.660,56.721 206.551 C 56.241 206.255,56.295 206.468,57.638 210.179 C 59.083 214.174,59.588 214.387,61.001 211.599 C 73.526 186.880,105.531 156.906,137.881 139.595 C 139.245 138.865,141.225 137.583,142.281 136.746 C 147.318 132.754,151.625 130.224,155.800 128.806 L 157.800 128.126 158.057 123.163 C 159.076 103.439,171.421 88.166,190.200 83.396 C 191.778 82.996,191.947 82.884,191.000 82.868 C 190.340 82.856,188.597 83.264,187.126 83.774 M71.962 92.298 C 60.805 103.812,52.487 118.809,49.609 132.600 C 49.333 133.920,48.962 135.540,48.784 136.200 C 48.462 137.393,47.988 140.892,47.208 147.827 C 46.689 152.438,46.686 159.757,47.200 164.732 C 48.280 175.198,48.419 176.205,49.601 182.200 C 50.744 187.994,53.541 198.592,53.847 198.287 C 53.942 198.192,53.734 197.053,53.384 195.757 C 44.430 162.526,45.464 137.238,56.709 114.400 C 57.955 111.870,59.115 109.740,59.287 109.667 C 59.459 109.593,59.600 109.361,59.600 109.151 C 59.600 107.654,67.661 97.240,73.028 91.802 C 75.134 89.669,76.782 87.849,76.690 87.757 C 76.599 87.665,74.471 89.709,71.962 92.298 M237.735 105.700 C 239.144 108.901,240.175 111.731,240.800 114.114 C 241.279 115.942,241.564 116.571,241.578 115.828 C 241.600 114.662,241.020 112.429,240.351 111.105 C 240.158 110.723,240.000 110.234,240.000 110.017 C 240.000 109.439,238.016 105.200,237.745 105.200 C 237.618 105.200,237.613 105.425,237.735 105.700 M241.889 122.274 C 242.096 128.557,241.956 128.141,244.058 128.770 C 247.777 129.883,252.596 132.691,258.034 136.913 C 259.263 137.867,261.163 139.115,262.257 139.687 C 270.886 144.199,285.869 154.136,295.177 161.520 C 306.218 170.279,317.362 181.212,325.428 191.200 C 330.383 197.336,335.558 205.077,339.010 211.515 C 340.824 214.900,340.788 214.947,344.422 204.437 C 346.098 199.592,346.234 199.008,345.600 199.400 C 345.380 199.536,345.200 200.076,345.200 200.600 C 345.200 201.124,345.020 201.664,344.800 201.800 C 344.580 201.936,344.400 202.476,344.400 203.000 C 344.400 203.524,344.220 204.064,344.000 204.200 C 343.780 204.336,343.600 204.876,343.600 205.400 C 343.600 205.924,343.456 206.442,343.279 206.551 C 343.103 206.660,342.707 207.672,342.400 208.800 C 342.093 209.928,341.697 210.940,341.521 211.049 C 341.344 211.158,341.200 211.597,341.200 212.024 C 341.200 213.164,340.222 212.969,339.574 211.700 C 337.426 207.493,330.913 197.318,329.313 195.671 C 329.031 195.381,328.800 195.019,328.800 194.867 C 328.800 194.716,328.395 194.144,327.900 193.596 C 327.405 193.048,326.525 191.970,325.945 191.200 C 325.364 190.430,324.419 189.260,323.845 188.600 C 323.270 187.940,322.035 186.463,321.100 185.317 C 317.222 180.565,303.662 167.713,296.795 162.279 C 296.462 162.016,295.639 161.350,294.966 160.800 C 293.675 159.745,293.084 159.297,288.600 155.978 C 285.263 153.507,274.118 146.000,273.788 146.000 C 273.660 146.000,272.496 145.280,271.200 144.400 C 269.904 143.520,268.654 142.800,268.422 142.800 C 268.190 142.800,267.999 142.665,267.997 142.500 C 267.995 142.335,267.590 142.004,267.097 141.764 C 263.202 139.869,258.976 137.205,254.800 134.011 C 252.025 131.889,246.893 129.157,244.100 128.317 L 242.400 127.805 242.394 123.003 C 242.391 120.361,242.238 117.963,242.054 117.674 C 241.871 117.385,241.797 119.455,241.889 122.274 M346.800 121.825 C 346.800 122.433,348.127 126.006,348.292 125.841 C 348.499 125.634,347.240 121.600,346.968 121.600 C 346.876 121.600,346.800 121.701,346.800 121.825 M348.412 126.800 C 348.412 127.130,348.587 127.670,348.800 128.000 C 349.145 128.533,349.188 128.533,349.188 128.000 C 349.188 127.670,349.013 127.130,348.800 126.800 C 348.455 126.267,348.412 126.267,348.412 126.800 M349.234 129.600 C 349.222 130.150,349.387 130.870,349.600 131.200 C 350.109 131.987,350.109 130.584,349.600 129.400 C 349.285 128.667,349.254 128.684,349.234 129.600 M350.004 132.433 C 350.006 132.745,350.357 134.727,350.783 136.837 C 352.705 146.342,352.891 163.451,351.191 174.400 C 350.110 181.363,349.869 183.477,350.348 181.800 C 351.526 177.680,353.203 162.880,353.195 156.686 C 353.189 152.743,352.293 142.425,351.642 138.800 C 350.587 132.934,349.992 130.620,350.004 132.433 M349.378 184.578 C 349.227 185.381,349.204 186.137,349.326 186.260 C 349.448 186.382,349.672 185.825,349.822 185.022 C 349.973 184.219,349.996 183.463,349.874 183.340 C 349.752 183.218,349.528 183.775,349.378 184.578 M348.578 188.178 C 348.427 188.981,348.404 189.737,348.526 189.860 C 348.648 189.982,348.872 189.425,349.022 188.622 C 349.173 187.819,349.196 187.063,349.074 186.940 C 348.952 186.818,348.728 187.375,348.578 188.178 M347.888 190.933 C 347.730 191.336,347.611 192.056,347.625 192.533 C 347.649 193.356,347.671 193.350,348.040 192.425 C 348.254 191.889,348.373 191.169,348.303 190.825 C 348.199 190.311,348.125 190.330,347.888 190.933 M347.103 194.000 C 346.999 194.330,346.708 195.243,346.456 196.028 C 346.205 196.814,346.016 197.804,346.036 198.228 C 346.057 198.653,346.414 197.920,346.831 196.600 C 347.248 195.280,347.522 194.020,347.441 193.800 C 347.360 193.580,347.208 193.670,347.103 194.000 M54.012 199.400 C 54.012 199.840,54.187 200.470,54.400 200.800 C 54.721 201.297,54.788 201.262,54.788 200.600 C 54.788 200.160,54.613 199.530,54.400 199.200 C 54.079 198.703,54.012 198.738,54.012 199.400 M54.806 202.076 C 54.818 203.081,55.587 203.908,55.594 202.924 C 55.597 202.442,55.420 201.936,55.200 201.800 C 54.980 201.664,54.803 201.788,54.806 202.076 M55.606 204.476 C 55.618 205.481,56.387 206.308,56.394 205.324 C 56.397 204.842,56.220 204.336,56.000 204.200 C 55.780 204.064,55.603 204.188,55.606 204.476 M188.500 241.476 C 188.885 241.576,189.515 241.576,189.900 241.476 C 190.285 241.375,189.970 241.293,189.200 241.293 C 188.430 241.293,188.115 241.375,188.500 241.476 M186.307 339.090 C 187.026 339.179,188.106 339.177,188.707 339.086 C 189.308 338.995,188.720 338.922,187.400 338.924 C 186.080 338.926,185.588 339.001,186.307 339.090 M207.712 339.095 C 208.764 339.177,210.384 339.176,211.312 339.092 C 212.240 339.008,211.380 338.941,209.400 338.942 C 207.420 338.943,206.660 339.012,207.712 339.095 " stroke="none" fill="#34925a" fill-rule="evenodd"></path><path id="path3" d="M195.200 94.140 C 167.404 99.500,160.217 136.746,184.355 150.338 C 184.880 150.633,185.873 151.192,186.562 151.579 C 191.626 154.423,199.867 155.554,206.000 154.245 C 223.707 150.468,234.747 131.414,228.915 114.696 C 224.061 100.781,208.850 91.507,195.200 94.140 M158.200 140.286 C 139.786 147.713,135.393 172.754,150.137 186.255 C 165.916 200.704,192.300 192.128,196.234 171.272 C 197.029 167.054,196.836 166.706,193.328 166.040 C 178.935 163.309,166.468 153.813,161.639 141.900 C 160.620 139.385,160.534 139.345,158.200 140.286 M237.715 143.116 C 232.998 152.866,223.118 161.430,213.200 164.364 C 208.441 165.772,208.636 165.602,208.272 168.651 C 208.092 170.163,207.582 172.991,207.139 174.935 L 206.333 178.469 207.832 180.735 C 219.268 198.016,244.793 197.553,255.163 179.876 C 263.346 165.928,256.614 146.137,241.692 140.271 C 239.383 139.364,239.607 139.204,237.715 143.116 M196.480 193.557 C 192.360 197.852,186.989 201.275,181.616 203.033 C 180.490 203.401,179.665 203.798,179.782 203.916 C 181.157 205.290,193.111 198.161,197.719 193.218 L 199.959 190.816 203.279 194.125 C 206.880 197.714,211.104 200.563,215.687 202.495 C 218.554 203.703,219.628 204.044,223.200 204.883 C 225.973 205.534,234.683 205.731,237.200 205.199 C 241.342 204.325,243.001 203.926,243.800 203.610 C 248.526 201.742,250.249 200.912,252.811 199.270 C 254.455 198.216,256.964 196.239,258.386 194.877 C 261.330 192.057,261.600 191.948,261.600 193.576 C 261.600 194.223,261.759 194.851,261.954 194.971 C 262.149 195.092,262.404 195.687,262.521 196.295 C 262.638 196.903,262.913 198.030,263.132 198.800 C 263.351 199.570,263.825 201.280,264.185 202.600 C 265.525 207.517,266.079 209.255,266.251 209.082 C 266.543 208.791,261.943 192.210,261.429 191.695 C 261.342 191.609,259.976 192.726,258.393 194.179 C 242.187 209.051,218.796 208.780,203.432 193.542 C 199.647 189.789,200.098 189.788,196.480 193.557 M137.292 195.700 C 136.599 197.955,135.755 200.835,135.416 202.100 C 135.077 203.365,134.530 205.399,134.200 206.620 C 133.870 207.840,133.611 209.055,133.625 209.320 C 133.669 210.139,134.431 207.960,135.417 204.200 C 135.936 202.220,136.749 199.340,137.224 197.800 C 137.698 196.260,138.178 194.503,138.289 193.895 C 138.611 192.145,138.942 192.251,141.854 195.042 C 145.121 198.174,149.704 201.088,153.930 202.720 C 156.925 203.876,158.198 204.256,162.106 205.159 C 164.472 205.706,172.996 205.737,175.294 205.206 C 176.232 204.990,177.516 204.711,178.147 204.587 C 178.778 204.463,179.197 204.264,179.079 204.146 C 178.960 204.027,177.814 204.166,176.532 204.455 C 164.948 207.063,151.276 203.052,141.657 194.225 C 140.084 192.781,138.741 191.600,138.674 191.600 C 138.606 191.600,137.984 193.445,137.292 195.700 M266.468 210.400 C 266.462 210.950,266.611 211.760,266.800 212.200 L 267.144 213.000 267.132 212.200 C 267.126 211.760,266.976 210.950,266.800 210.400 L 266.480 209.400 266.468 210.400 M132.978 211.378 C 132.827 212.181,132.794 212.927,132.904 213.037 C 133.014 213.147,133.227 212.581,133.378 211.778 C 133.528 210.975,133.562 210.228,133.452 210.118 C 133.342 210.008,133.128 210.575,132.978 211.378 M267.256 213.800 C 267.256 214.240,267.411 214.960,267.600 215.400 L 267.944 216.200 267.944 215.400 C 267.944 214.960,267.789 214.240,267.600 213.800 L 267.256 213.000 267.256 213.800 M132.200 214.653 C 132.068 215.284,131.801 216.430,131.605 217.200 C 131.410 217.970,131.049 219.500,130.802 220.600 C 130.555 221.700,130.201 223.230,130.016 224.000 C 129.830 224.770,129.460 226.660,129.193 228.200 C 128.926 229.740,128.548 231.522,128.354 232.160 C 127.885 233.696,127.907 234.400,128.424 234.400 C 128.657 234.400,128.749 234.241,128.628 234.046 C 128.508 233.851,128.567 233.176,128.758 232.546 C 128.950 231.916,129.326 230.140,129.593 228.600 C 129.860 227.060,130.235 225.170,130.426 224.400 C 131.724 219.166,132.821 213.888,132.646 213.713 C 132.532 213.599,132.331 214.022,132.200 214.653 M268.056 217.000 C 268.056 217.440,268.211 218.160,268.400 218.600 L 268.744 219.400 268.744 218.600 C 268.744 218.160,268.589 217.440,268.400 217.000 L 268.056 216.200 268.056 217.000 M268.868 220.600 C 268.874 221.040,269.024 221.850,269.200 222.400 L 269.520 223.400 269.532 222.400 C 269.538 221.850,269.389 221.040,269.200 220.600 L 268.856 219.800 268.868 220.600 M269.618 224.033 C 269.629 224.345,270.057 226.670,270.571 229.200 C 271.085 231.730,271.426 233.935,271.329 234.100 C 271.232 234.265,271.343 234.400,271.576 234.400 C 272.100 234.400,272.108 233.903,271.618 232.046 C 271.408 231.251,270.951 229.078,270.603 227.219 C 270.020 224.104,269.574 222.659,269.618 224.033 M129.800 234.800 C 130.240 234.989,131.050 235.144,131.600 235.144 C 132.512 235.144,132.529 235.113,131.800 234.800 C 131.360 234.611,130.550 234.456,130.000 234.456 C 129.088 234.456,129.071 234.487,129.800 234.800 M267.000 234.800 C 265.858 235.090,265.878 235.106,267.400 235.113 C 268.280 235.117,269.450 234.976,270.000 234.800 C 271.382 234.357,268.740 234.357,267.000 234.800 M133.600 235.600 C 134.150 235.776,135.230 235.917,136.000 235.913 L 137.400 235.905 136.200 235.600 C 134.439 235.152,132.201 235.152,133.600 235.600 M260.400 235.600 L 258.600 235.880 260.400 235.917 C 261.390 235.937,262.920 235.805,263.800 235.623 L 265.400 235.292 263.800 235.306 C 262.920 235.314,261.390 235.446,260.400 235.600 M137.701 236.235 C 137.958 236.491,142.222 237.143,145.400 237.411 C 146.500 237.504,145.510 237.234,143.200 236.812 C 138.766 236.001,137.316 235.849,137.701 236.235 M250.800 236.808 C 247.961 237.207,246.532 237.530,247.493 237.556 C 249.055 237.597,252.350 237.191,256.800 236.410 C 260.375 235.783,256.041 236.070,250.800 236.808 M149.200 238.015 C 151.960 238.507,156.938 239.123,161.800 239.574 C 190.162 242.205,203.967 242.136,233.000 239.219 C 235.200 238.998,238.870 238.639,241.155 238.421 C 243.440 238.203,245.420 237.907,245.555 237.763 C 245.815 237.487,241.381 237.796,236.400 238.401 C 229.958 239.185,218.371 240.143,207.025 240.832 C 195.041 241.560,171.091 240.369,153.280 238.161 C 148.465 237.564,146.216 237.484,149.200 238.015 M125.818 247.451 C 125.688 248.303,125.403 250.170,125.183 251.600 C 123.932 259.766,122.390 277.277,122.970 276.742 C 123.124 276.599,123.425 274.169,123.639 271.342 C 124.034 266.125,124.437 262.138,125.192 256.000 C 125.422 254.130,125.745 251.430,125.911 250.000 C 126.276 246.858,126.605 246.246,127.745 246.584 C 128.215 246.724,129.500 246.992,130.600 247.180 C 131.700 247.368,134.760 247.905,137.400 248.374 C 148.653 250.372,168.975 252.553,174.200 252.323 C 176.338 252.229,175.298 252.075,169.800 251.672 C 155.231 250.605,145.704 249.387,131.400 246.765 C 130.300 246.563,128.647 246.287,127.727 246.150 L 126.055 245.902 125.818 247.451 M271.000 246.408 C 269.767 246.742,266.866 247.237,261.600 248.009 C 259.950 248.251,257.610 248.611,256.400 248.809 C 250.524 249.770,237.967 251.109,226.800 251.967 C 222.690 252.282,222.664 252.290,225.600 252.340 C 231.195 252.436,247.493 250.753,260.200 248.768 C 261.520 248.561,263.770 248.225,265.200 248.019 C 269.315 247.428,272.380 246.859,272.778 246.614 C 273.379 246.242,273.769 247.247,274.091 250.000 C 274.259 251.430,274.575 254.040,274.794 255.800 C 276.222 267.299,276.685 272.563,277.170 282.800 C 277.373 287.090,277.671 293.360,277.833 296.733 C 278.021 300.659,277.940 305.805,277.608 311.032 L 277.088 319.199 275.644 319.562 C 274.102 319.949,271.172 320.562,267.600 321.244 C 266.390 321.476,264.680 321.817,263.800 322.002 C 262.920 322.187,260.940 322.529,259.400 322.762 C 257.860 322.994,255.970 323.280,255.200 323.397 C 254.430 323.513,252.540 323.778,251.000 323.985 C 244.318 324.883,243.704 325.167,242.045 328.120 C 240.614 330.668,242.294 336.000,244.528 336.000 C 244.742 336.000,244.439 335.557,243.854 335.015 C 239.568 331.043,242.141 325.850,248.883 324.865 C 260.254 323.205,266.402 322.199,268.800 321.606 C 270.003 321.308,272.980 320.703,275.800 320.182 C 277.981 319.780,277.972 319.821,278.252 308.200 C 278.618 292.963,277.490 271.502,275.592 257.600 C 275.397 256.170,275.035 253.380,274.787 251.400 C 274.035 245.385,274.160 245.549,271.000 246.408 M179.800 252.857 C 182.900 253.188,215.792 253.185,219.200 252.853 C 220.630 252.714,211.810 252.600,199.600 252.600 C 187.390 252.600,178.480 252.715,179.800 252.857 M147.814 272.880 C 146.824 273.454,145.550 274.782,144.900 275.917 C 143.976 277.529,144.224 288.856,145.220 290.544 C 147.991 295.241,156.533 293.757,156.359 288.609 L 156.318 287.400 156.003 288.732 C 154.799 293.821,147.393 294.509,145.391 289.718 C 144.486 287.550,144.563 277.875,145.501 276.008 C 147.907 271.218,154.751 272.123,156.028 277.400 L 156.318 278.600 156.359 277.438 C 156.478 274.061,150.904 271.088,147.814 272.880 M246.555 273.162 C 243.819 274.831,243.600 275.570,243.600 283.162 L 243.600 290.000 245.145 291.545 C 248.204 294.604,253.148 293.992,254.976 290.329 C 255.730 288.817,255.885 277.280,255.169 275.942 C 253.391 272.620,249.503 271.365,246.555 273.162 M252.441 273.708 C 256.203 276.222,256.568 289.348,252.945 291.882 C 250.308 293.727,247.229 293.335,245.221 290.899 L 244.000 289.418 244.000 283.071 C 244.000 277.228,244.068 276.628,244.855 275.522 C 246.787 272.810,249.960 272.051,252.441 273.708 M122.298 283.600 C 121.927 291.205,121.767 302.652,121.900 312.090 L 122.000 319.179 123.100 319.735 C 123.705 320.040,124.920 320.404,125.800 320.543 C 126.680 320.683,128.210 320.961,129.200 321.161 C 140.454 323.442,148.448 324.642,161.600 326.025 C 175.040 327.439,195.147 328.041,212.561 327.551 C 226.701 327.154,227.133 327.211,228.974 329.729 C 230.186 331.386,230.110 334.559,228.816 336.400 C 228.172 337.316,228.077 337.603,228.542 337.229 C 234.036 332.817,228.726 325.741,220.720 326.807 C 216.798 327.329,181.270 327.051,172.800 326.432 C 164.022 325.790,156.241 324.993,149.200 324.012 C 142.232 323.041,140.881 322.835,138.600 322.389 C 137.280 322.131,135.390 321.776,134.400 321.599 C 127.934 320.448,123.300 319.449,123.030 319.148 C 122.455 318.508,122.030 300.331,122.417 292.965 C 122.659 288.364,122.799 282.980,122.728 281.000 C 122.612 277.743,122.571 277.991,122.298 283.600 M186.038 280.927 C 178.962 283.133,181.006 291.694,189.603 295.858 C 194.199 298.084,194.715 298.200,200.000 298.200 C 205.278 298.200,205.778 298.088,210.400 295.866 C 213.819 294.222,217.828 290.323,218.214 288.268 C 219.427 281.801,212.604 278.312,207.501 282.790 C 202.811 286.906,197.176 286.958,192.679 282.928 C 190.410 280.894,188.240 280.240,186.038 280.927 M190.707 282.100 C 191.380 282.595,192.695 283.586,193.627 284.301 C 197.652 287.389,204.294 286.961,207.600 283.401 C 210.650 280.116,215.414 280.615,217.281 284.414 C 220.996 291.977,204.655 300.761,193.800 297.037 C 187.991 295.044,182.753 290.888,182.177 287.816 C 181.314 283.218,187.023 279.393,190.707 282.100 M274.600 332.066 C 273.720 332.245,271.925 332.584,270.610 332.819 C 269.296 333.054,268.141 333.326,268.043 333.423 C 267.654 333.813,269.980 333.539,273.152 332.821 L 276.504 332.063 276.241 334.532 C 274.755 348.485,270.690 356.174,260.386 364.523 C 259.624 365.141,259.270 365.516,259.600 365.356 C 264.381 363.045,270.926 354.901,274.033 347.400 C 275.705 343.362,277.452 332.382,276.500 331.893 C 276.335 331.809,275.480 331.886,274.600 332.066 M123.267 333.700 L 123.334 335.400 123.491 333.900 C 123.675 332.149,123.636 332.156,128.286 333.027 C 130.128 333.373,131.852 333.576,132.118 333.480 C 132.383 333.384,131.700 333.178,130.600 333.023 C 129.500 332.868,128.078 332.574,127.440 332.370 C 126.802 332.167,125.587 332.000,124.740 332.000 L 123.200 332.000 123.267 333.700 M133.400 334.000 C 133.840 334.189,134.740 334.338,135.400 334.332 C 136.570 334.321,136.575 334.312,135.600 334.000 C 134.133 333.530,132.306 333.530,133.400 334.000 M264.400 334.000 C 263.428 334.311,263.433 334.320,264.600 334.320 C 265.260 334.320,266.250 334.176,266.800 334.000 C 267.772 333.689,267.767 333.680,266.600 333.680 C 265.940 333.680,264.950 333.824,264.400 334.000 M138.000 334.800 C 138.550 334.976,139.540 335.120,140.200 335.120 C 141.367 335.120,141.372 335.111,140.400 334.800 C 139.850 334.624,138.860 334.480,138.200 334.480 C 137.033 334.480,137.028 334.489,138.000 334.800 M259.600 334.800 C 258.628 335.111,258.633 335.120,259.800 335.120 C 260.460 335.120,261.450 334.976,262.000 334.800 C 262.972 334.489,262.967 334.480,261.800 334.480 C 261.140 334.480,260.150 334.624,259.600 334.800 M143.000 335.600 C 143.660 335.768,144.830 335.905,145.600 335.905 L 147.000 335.905 145.800 335.600 C 145.140 335.432,143.970 335.295,143.200 335.295 L 141.800 335.295 143.000 335.600 M254.000 335.600 L 252.600 335.895 254.200 335.900 C 255.080 335.903,256.340 335.768,257.000 335.600 L 258.200 335.295 256.800 335.300 C 256.030 335.303,254.770 335.438,254.000 335.600 M123.847 338.000 C 124.502 346.336,128.652 354.744,135.361 361.323 C 137.502 363.422,140.800 365.837,140.800 365.305 C 140.800 365.122,140.248 364.646,139.573 364.248 C 137.764 363.179,133.737 359.317,131.807 356.800 C 127.708 351.454,125.550 346.125,124.034 337.600 L 123.642 335.400 123.847 338.000 M148.600 336.400 C 149.260 336.568,150.610 336.706,151.600 336.707 L 153.400 336.708 151.800 336.377 C 150.920 336.195,149.570 336.057,148.800 336.070 L 147.400 336.095 148.600 336.400 M245.465 336.500 C 245.698 336.884,249.886 336.818,251.200 336.409 C 251.825 336.215,250.904 336.118,248.741 336.149 C 246.839 336.177,245.364 336.335,245.465 336.500 M155.400 337.200 C 156.060 337.368,157.410 337.504,158.400 337.503 L 160.200 337.500 158.400 337.180 C 157.410 337.003,156.060 336.867,155.400 336.877 L 154.200 336.895 155.400 337.200 M163.400 338.023 C 164.280 338.205,166.170 338.338,167.600 338.318 L 170.200 338.282 167.800 337.985 C 166.480 337.821,164.590 337.688,163.600 337.689 L 161.800 337.692 163.400 338.023 M173.200 338.798 C 175.397 339.120,185.482 339.333,185.167 339.051 C 185.075 338.969,181.850 338.806,178.000 338.689 C 173.791 338.561,171.877 338.605,173.200 338.798 M218.200 338.800 L 212.600 339.035 218.800 339.111 C 222.268 339.154,225.264 339.017,225.600 338.800 C 226.052 338.508,225.905 338.431,225.000 338.489 C 224.340 338.531,221.280 338.671,218.200 338.800 M193.323 339.499 C 196.141 339.568,200.641 339.568,203.323 339.499 C 206.005 339.430,203.700 339.373,198.200 339.373 C 192.700 339.374,190.505 339.430,193.323 339.499 M141.800 366.226 C 142.826 367.056,146.773 368.961,146.999 368.734 C 147.094 368.639,145.783 367.890,144.086 367.070 C 142.389 366.249,141.360 365.869,141.800 366.226 M256.501 366.801 C 249.798 370.556,241.453 371.935,215.400 373.594 C 211.880 373.818,205.040 374.001,200.200 374.001 C 185.697 374.001,164.454 372.422,153.600 370.537 C 152.830 370.403,152.310 370.413,152.445 370.559 C 152.731 370.868,156.055 371.467,160.600 372.028 C 186.370 375.212,221.487 374.887,245.000 371.247 C 249.152 370.605,255.843 368.069,258.200 366.245 C 259.413 365.306,258.828 365.497,256.501 366.801 M147.707 369.024 C 148.116 369.454,150.842 370.394,151.600 370.366 C 151.930 370.354,151.570 370.112,150.800 369.829 C 148.430 368.958,147.386 368.686,147.707 369.024 " stroke="none" fill="#ad5f48" fill-rule="evenodd"></path><path id="path4" d="M91.200 14.000 C 91.200 14.229,90.000 14.400,88.400 14.400 C 86.800 14.400,85.600 14.571,85.600 14.800 C 85.600 15.020,84.801 15.200,83.824 15.200 C 82.847 15.200,81.936 15.380,81.800 15.600 C 81.664 15.820,80.944 16.000,80.200 16.000 C 79.456 16.000,78.736 16.180,78.600 16.400 C 78.464 16.620,77.834 16.800,77.200 16.800 C 76.566 16.800,75.936 16.980,75.800 17.200 C 75.664 17.420,75.023 17.600,74.376 17.600 C 73.729 17.600,73.200 17.780,73.200 18.000 C 73.200 18.220,72.660 18.400,72.000 18.400 C 71.340 18.400,70.800 18.580,70.800 18.800 C 70.800 19.020,70.440 19.200,70.000 19.200 C 69.560 19.200,69.200 19.380,69.200 19.600 C 69.200 19.820,68.660 20.000,68.000 20.000 C 67.340 20.000,66.800 20.180,66.800 20.400 C 66.800 20.620,66.440 20.800,66.000 20.800 C 65.560 20.800,65.200 20.980,65.200 21.200 C 65.200 21.420,64.840 21.600,64.400 21.600 C 63.960 21.600,63.600 21.780,63.600 22.000 C 63.600 22.220,63.347 22.400,63.038 22.400 C 62.521 22.400,59.262 23.938,58.800 24.400 C 58.690 24.510,57.475 25.128,56.100 25.774 C 54.725 26.419,53.600 27.094,53.600 27.274 C 53.600 27.453,53.364 27.600,53.075 27.600 C 52.787 27.600,52.164 27.960,51.692 28.400 C 51.220 28.840,50.691 29.200,50.517 29.201 C 50.343 29.201,49.570 29.741,48.800 30.400 C 48.030 31.059,47.247 31.599,47.060 31.599 C 46.874 31.600,46.217 32.140,45.600 32.800 C 44.983 33.460,44.326 34.001,44.140 34.002 C 43.953 34.003,42.762 35.083,41.493 36.402 C 40.223 37.721,38.963 38.810,38.693 38.822 C 38.422 38.834,36.988 40.139,35.506 41.722 C 34.024 43.305,31.639 45.836,30.206 47.346 C 28.773 48.857,27.600 50.260,27.600 50.465 C 27.600 50.669,27.195 51.270,26.700 51.799 C 25.143 53.464,24.800 53.951,24.800 54.495 C 24.800 54.786,24.440 55.283,24.000 55.600 C 23.560 55.917,23.200 56.362,23.200 56.588 C 23.199 56.815,22.794 57.480,22.300 58.066 C 20.535 60.159,20.193 60.625,19.632 61.706 C 19.320 62.308,18.915 62.800,18.732 62.800 C 18.550 62.800,18.400 63.120,18.400 63.512 C 18.400 63.903,18.040 64.483,17.600 64.800 C 17.160 65.117,16.800 65.697,16.800 66.088 C 16.800 66.480,16.620 66.800,16.400 66.800 C 16.180 66.800,16.000 67.160,16.000 67.600 C 16.000 68.040,15.842 68.400,15.649 68.400 C 15.455 68.400,15.073 68.940,14.800 69.600 C 14.527 70.260,14.145 70.800,13.951 70.800 C 13.758 70.800,13.600 71.160,13.600 71.600 C 13.600 72.040,13.420 72.400,13.200 72.400 C 12.980 72.400,12.800 72.760,12.800 73.200 C 12.800 73.640,12.620 74.000,12.400 74.000 C 12.180 74.000,12.000 74.345,12.000 74.767 C 12.000 75.188,11.856 75.593,11.679 75.667 C 11.246 75.847,8.400 81.840,8.400 82.572 C 8.400 82.891,8.220 83.264,8.000 83.400 C 7.780 83.536,7.600 84.087,7.600 84.624 C 7.600 85.161,7.420 85.600,7.200 85.600 C 6.980 85.600,6.800 85.960,6.800 86.400 C 6.800 86.840,6.620 87.200,6.400 87.200 C 6.180 87.200,6.000 87.639,6.000 88.176 C 6.000 88.713,5.820 89.264,5.600 89.400 C 5.380 89.536,5.200 89.997,5.200 90.424 C 5.200 90.851,5.020 91.200,4.800 91.200 C 4.580 91.200,4.400 91.650,4.400 92.200 C 4.400 92.750,4.220 93.200,4.000 93.200 C 3.780 93.200,3.600 93.650,3.600 94.200 C 3.600 94.750,3.420 95.200,3.200 95.200 C 2.980 95.200,2.800 95.650,2.800 96.200 C 2.800 96.750,2.620 97.200,2.400 97.200 C 2.180 97.200,2.000 97.740,2.000 98.400 C 2.000 99.060,1.820 99.600,1.600 99.600 C 1.380 99.600,1.200 100.125,1.200 100.767 C 1.200 101.408,0.975 102.008,0.700 102.100 C 0.069 102.310,-0.023 114.669,0.602 115.114 C 0.824 115.271,1.508 116.075,2.123 116.900 C 2.738 117.725,3.502 118.400,3.820 118.400 C 4.139 118.400,4.401 118.535,4.403 118.700 C 4.408 119.147,6.426 120.000,7.480 120.000 C 7.986 120.000,8.400 120.180,8.400 120.400 C 8.400 120.626,9.533 120.800,11.000 120.800 C 12.467 120.800,13.600 120.626,13.600 120.400 C 13.600 120.180,14.140 120.000,14.800 120.000 C 15.460 120.000,16.000 119.820,16.000 119.600 C 16.000 119.380,16.439 119.200,16.976 119.200 C 17.513 119.200,18.064 119.020,18.200 118.800 C 18.336 118.580,18.797 118.400,19.224 118.400 C 19.651 118.400,20.000 118.220,20.000 118.000 C 20.000 117.780,20.272 117.600,20.605 117.600 C 20.938 117.600,21.568 117.420,22.005 117.200 C 22.442 116.980,23.158 116.620,23.595 116.400 C 24.032 116.180,24.752 116.000,25.195 116.000 C 25.638 116.000,26.000 115.820,26.000 115.600 C 26.000 115.380,26.540 115.200,27.200 115.200 C 27.860 115.200,28.400 115.020,28.400 114.800 C 28.400 114.580,29.019 114.400,29.776 114.400 C 30.533 114.400,31.264 114.220,31.400 114.000 C 31.536 113.780,32.177 113.600,32.824 113.600 C 33.471 113.600,34.000 113.420,34.000 113.200 C 34.000 112.980,34.720 112.800,35.600 112.800 C 36.480 112.800,37.200 112.620,37.200 112.400 C 37.200 112.180,37.995 112.000,38.967 112.000 C 39.938 112.000,40.798 111.806,40.877 111.568 C 40.957 111.330,41.601 111.195,42.308 111.268 C 43.577 111.398,43.587 111.416,43.022 112.500 C 42.706 113.104,42.127 114.679,41.735 116.000 C 41.343 117.320,40.883 118.400,40.711 118.400 C 40.540 118.400,40.400 118.940,40.400 119.600 C 40.400 120.260,40.220 120.800,40.000 120.800 C 39.780 120.800,39.600 121.329,39.600 121.976 C 39.600 122.623,39.420 123.264,39.200 123.400 C 38.980 123.536,38.800 124.166,38.800 124.800 C 38.800 125.434,38.620 126.064,38.400 126.200 C 38.180 126.336,38.000 127.067,38.000 127.824 C 38.000 128.581,37.820 129.200,37.600 129.200 C 37.380 129.200,37.200 129.999,37.200 130.976 C 37.200 131.953,37.020 132.864,36.800 133.000 C 36.580 133.136,36.400 134.137,36.400 135.224 C 36.400 136.311,36.220 137.200,36.000 137.200 C 35.769 137.200,35.600 138.459,35.600 140.176 C 35.600 141.813,35.420 143.264,35.200 143.400 C 34.654 143.737,34.654 169.463,35.200 169.800 C 35.420 169.936,35.600 171.387,35.600 173.024 C 35.600 174.741,35.769 176.000,36.000 176.000 C 36.222 176.000,36.400 177.059,36.400 178.376 C 36.400 179.683,36.580 180.864,36.800 181.000 C 37.020 181.136,37.200 182.126,37.200 183.200 C 37.200 184.274,37.380 185.264,37.600 185.400 C 37.820 185.536,38.000 186.447,38.000 187.424 C 38.000 188.401,38.180 189.200,38.400 189.200 C 38.620 189.200,38.800 189.920,38.800 190.800 C 38.800 191.680,38.980 192.400,39.200 192.400 C 39.420 192.400,39.600 193.120,39.600 194.000 C 39.600 194.880,39.780 195.600,40.000 195.600 C 40.220 195.600,40.400 196.129,40.400 196.776 C 40.400 197.423,40.561 198.052,40.758 198.174 C 40.955 198.295,41.205 199.071,41.315 199.897 C 41.539 201.578,42.295 204.582,42.801 205.800 C 42.983 206.240,43.367 207.455,43.654 208.500 C 43.940 209.545,44.315 210.400,44.487 210.400 C 44.659 210.400,44.800 210.940,44.800 211.600 C 44.800 212.260,44.980 212.800,45.200 212.800 C 45.420 212.800,45.600 213.340,45.600 214.000 C 45.600 214.660,45.747 215.200,45.928 215.200 C 46.108 215.200,46.500 216.100,46.800 217.200 C 47.100 218.300,47.492 219.200,47.672 219.200 C 47.853 219.200,48.000 219.650,48.000 220.200 C 48.000 220.750,48.180 221.200,48.400 221.200 C 48.620 221.200,48.800 221.470,48.800 221.800 C 48.800 222.130,48.980 222.400,49.200 222.400 C 49.420 222.400,49.600 222.657,49.600 222.971 C 49.600 223.629,52.332 226.000,53.091 226.000 C 53.371 226.000,53.600 226.180,53.600 226.400 C 53.600 226.620,54.140 226.800,54.800 226.800 C 55.460 226.800,56.000 226.980,56.000 227.200 C 56.000 227.435,57.400 227.600,59.400 227.600 C 61.400 227.600,62.800 227.435,62.800 227.200 C 62.800 226.980,63.072 226.800,63.405 226.800 C 63.961 226.800,65.524 226.077,66.000 225.599 C 66.110 225.489,66.695 225.144,67.300 224.832 C 67.905 224.520,68.400 224.108,68.400 223.916 C 68.400 223.724,68.760 223.180,69.200 222.708 C 69.640 222.236,70.000 221.613,70.000 221.325 C 70.000 221.036,70.180 220.800,70.400 220.800 C 70.620 220.800,70.800 220.440,70.800 220.000 C 70.800 219.560,70.980 219.200,71.200 219.200 C 71.420 219.200,71.600 218.840,71.600 218.400 C 71.600 217.960,71.735 217.599,71.900 217.597 C 72.065 217.595,72.393 217.190,72.629 216.697 C 73.847 214.153,75.404 211.385,75.684 211.267 C 75.858 211.193,76.000 210.828,76.000 210.455 C 76.000 210.082,76.360 209.517,76.800 209.200 C 77.240 208.883,77.600 208.393,77.600 208.112 C 77.600 207.830,77.750 207.600,77.932 207.600 C 78.115 207.600,78.520 207.108,78.832 206.507 C 79.145 205.906,79.895 204.889,80.500 204.248 C 81.105 203.606,81.600 202.910,81.600 202.701 C 81.600 202.492,82.140 201.817,82.800 201.200 C 83.460 200.583,84.000 199.867,84.000 199.608 C 84.000 199.349,84.681 198.476,85.513 197.669 C 86.345 196.861,87.462 195.580,87.995 194.823 C 88.968 193.441,104.607 177.600,104.998 177.600 C 105.198 177.600,107.036 176.073,108.376 174.795 C 108.725 174.462,109.638 173.746,110.405 173.203 C 111.172 172.661,112.213 171.808,112.718 171.309 C 113.223 170.809,113.786 170.400,113.968 170.400 C 114.150 170.400,114.987 169.770,115.828 169.000 C 116.669 168.230,117.551 167.600,117.790 167.600 C 118.028 167.600,118.483 167.240,118.800 166.800 C 119.117 166.360,119.607 166.000,119.888 166.000 C 120.170 166.000,120.400 165.820,120.400 165.600 C 120.400 165.380,120.630 165.200,120.912 165.200 C 121.193 165.200,121.683 164.840,122.000 164.400 C 122.317 163.960,122.807 163.600,123.088 163.600 C 123.370 163.600,123.600 163.420,123.600 163.200 C 123.600 162.980,123.870 162.800,124.200 162.800 C 124.530 162.800,124.800 162.620,124.800 162.400 C 124.800 162.180,125.030 162.000,125.312 162.000 C 125.593 162.000,126.083 161.640,126.400 161.200 C 126.717 160.760,127.297 160.400,127.688 160.400 C 128.080 160.400,128.400 160.220,128.400 160.000 C 128.400 159.780,128.616 159.600,128.880 159.600 C 129.253 159.600,129.253 159.707,128.880 160.080 C 128.276 160.684,128.203 171.431,128.800 171.800 C 129.020 171.936,129.200 172.937,129.200 174.024 C 129.200 175.111,129.380 176.000,129.600 176.000 C 130.121 176.000,130.121 178.278,129.600 178.600 C 129.380 178.736,129.200 179.276,129.200 179.800 C 129.200 180.324,129.020 180.864,128.800 181.000 C 128.580 181.136,128.400 181.687,128.400 182.224 C 128.400 182.761,128.220 183.200,128.000 183.200 C 127.780 183.200,127.600 183.740,127.600 184.400 C 127.600 185.060,127.420 185.600,127.200 185.600 C 126.980 185.600,126.800 186.052,126.800 186.605 C 126.800 187.158,126.642 187.923,126.449 188.305 C 125.843 189.504,125.217 191.766,124.949 193.719 C 124.807 194.753,124.536 195.600,124.346 195.600 C 124.156 195.600,124.000 196.230,124.000 197.000 C 124.000 197.770,123.820 198.400,123.600 198.400 C 123.380 198.400,123.200 199.030,123.200 199.800 C 123.200 200.570,123.020 201.200,122.800 201.200 C 122.580 201.200,122.400 201.920,122.400 202.800 C 122.400 203.680,122.220 204.400,122.000 204.400 C 121.780 204.400,121.600 205.120,121.600 206.000 C 121.600 206.880,121.420 207.600,121.200 207.600 C 120.980 207.600,120.800 208.219,120.800 208.976 C 120.800 209.733,120.620 210.464,120.400 210.600 C 120.180 210.736,120.000 211.467,120.000 212.224 C 120.000 212.981,119.820 213.600,119.600 213.600 C 119.380 213.600,119.200 214.399,119.200 215.376 C 119.200 216.353,119.020 217.264,118.800 217.400 C 118.580 217.536,118.400 218.357,118.400 219.224 C 118.400 220.091,118.220 220.800,118.000 220.800 C 117.780 220.800,117.600 221.700,117.600 222.800 C 117.600 223.900,117.420 224.800,117.200 224.800 C 116.980 224.800,116.800 225.599,116.800 226.576 C 116.800 227.553,116.620 228.464,116.400 228.600 C 116.180 228.736,116.000 229.827,116.000 231.024 C 116.000 232.221,115.820 233.200,115.600 233.200 C 115.380 233.200,115.200 234.100,115.200 235.200 C 115.200 236.300,115.020 237.200,114.800 237.200 C 114.575 237.200,114.400 238.325,114.400 239.776 C 114.400 241.193,114.220 242.464,114.000 242.600 C 113.780 242.736,113.600 243.816,113.600 245.000 C 113.600 246.184,113.420 247.264,113.200 247.400 C 112.980 247.536,112.800 248.886,112.800 250.400 C 112.800 251.914,112.620 253.264,112.400 253.400 C 112.180 253.536,112.000 254.976,112.000 256.600 C 112.000 258.224,111.820 259.664,111.600 259.800 C 111.380 259.936,111.200 261.711,111.200 263.744 C 111.200 265.777,111.030 267.611,110.823 267.820 C 109.562 269.091,109.569 333.283,110.831 334.580 C 111.034 334.789,111.200 336.353,111.200 338.056 C 111.200 339.759,111.380 341.264,111.600 341.400 C 111.820 341.536,112.000 342.537,112.000 343.624 C 112.000 344.711,112.180 345.600,112.400 345.600 C 112.620 345.600,112.800 346.320,112.800 347.200 C 112.800 348.080,112.980 348.800,113.200 348.800 C 113.420 348.800,113.600 349.340,113.600 350.000 C 113.600 350.660,113.780 351.200,114.000 351.200 C 114.220 351.200,114.400 351.472,114.400 351.805 C 114.400 352.138,114.561 352.723,114.758 353.105 C 114.955 353.487,115.716 355.060,116.449 356.600 C 117.182 358.140,118.101 359.691,118.491 360.047 C 118.881 360.403,119.200 360.948,119.200 361.259 C 119.200 361.569,119.560 362.083,120.000 362.400 C 120.440 362.717,120.800 363.225,120.800 363.528 C 120.800 363.831,121.302 364.556,121.915 365.140 C 122.529 365.723,123.467 366.830,124.000 367.600 C 125.547 369.834,129.811 373.669,131.900 374.704 C 132.615 375.058,133.200 375.495,133.200 375.674 C 133.200 375.853,133.436 376.000,133.725 376.000 C 134.013 376.000,134.636 376.360,135.108 376.800 C 135.580 377.240,136.244 377.600,136.583 377.600 C 136.922 377.600,137.200 377.780,137.200 378.000 C 137.200 378.220,137.560 378.400,138.000 378.400 C 138.440 378.400,138.800 378.580,138.800 378.800 C 138.800 379.020,139.160 379.200,139.600 379.200 C 140.040 379.200,140.400 379.380,140.400 379.600 C 140.400 379.820,140.760 380.000,141.200 380.000 C 141.640 380.000,142.000 380.180,142.000 380.400 C 142.000 380.620,142.439 380.800,142.976 380.800 C 143.513 380.800,144.064 380.980,144.200 381.200 C 144.336 381.420,144.876 381.600,145.400 381.600 C 145.924 381.600,146.464 381.780,146.600 382.000 C 146.736 382.220,147.467 382.400,148.224 382.400 C 148.981 382.400,149.600 382.580,149.600 382.800 C 149.600 383.020,150.500 383.200,151.600 383.200 C 152.700 383.200,153.600 383.380,153.600 383.600 C 153.600 383.833,154.933 384.000,156.800 384.000 C 158.667 384.000,160.000 384.167,160.000 384.400 C 160.000 384.639,161.533 384.800,163.800 384.800 C 166.067 384.800,167.600 384.961,167.600 385.200 C 167.600 385.442,169.325 385.600,171.976 385.600 C 174.463 385.600,176.460 385.773,176.600 386.000 C 176.940 386.550,223.060 386.550,223.400 386.000 C 223.541 385.771,225.596 385.600,228.200 385.600 C 230.804 385.600,232.859 385.429,233.000 385.200 C 233.136 384.980,234.767 384.800,236.624 384.800 C 238.608 384.800,240.000 384.635,240.000 384.400 C 240.000 384.167,241.333 384.000,243.200 384.000 C 245.067 384.000,246.400 383.833,246.400 383.600 C 246.400 383.380,247.300 383.200,248.400 383.200 C 249.500 383.200,250.400 383.020,250.400 382.800 C 250.400 382.580,251.120 382.400,252.000 382.400 C 252.880 382.400,253.600 382.220,253.600 382.000 C 253.600 381.780,254.039 381.600,254.576 381.600 C 255.113 381.600,255.664 381.420,255.800 381.200 C 255.936 380.980,256.487 380.800,257.024 380.800 C 257.561 380.800,258.000 380.620,258.000 380.400 C 258.000 380.180,258.360 380.000,258.800 380.000 C 259.240 380.000,259.600 379.820,259.600 379.600 C 259.600 379.380,259.960 379.200,260.400 379.200 C 260.840 379.200,261.200 379.020,261.200 378.800 C 261.200 378.580,261.560 378.400,262.000 378.400 C 262.440 378.400,262.800 378.220,262.800 378.000 C 262.800 377.780,263.120 377.600,263.512 377.600 C 263.903 377.600,264.483 377.240,264.800 376.800 C 265.117 376.360,265.697 376.000,266.088 376.000 C 266.480 376.000,266.800 375.853,266.800 375.674 C 266.800 375.495,267.385 375.058,268.100 374.704 C 270.203 373.662,276.000 368.391,276.000 367.520 C 276.000 367.310,276.720 366.446,277.600 365.600 C 278.480 364.754,279.200 363.818,279.200 363.520 C 279.200 363.221,279.560 362.717,280.000 362.400 C 280.440 362.083,280.800 361.569,280.800 361.259 C 280.800 360.948,281.119 360.403,281.509 360.047 C 281.899 359.691,282.818 358.140,283.551 356.600 C 284.284 355.060,285.045 353.487,285.242 353.105 C 285.439 352.723,285.600 352.138,285.600 351.805 C 285.600 351.472,285.780 351.200,286.000 351.200 C 286.220 351.200,286.400 350.660,286.400 350.000 C 286.400 349.340,286.580 348.800,286.800 348.800 C 287.020 348.800,287.200 348.080,287.200 347.200 C 287.200 346.320,287.380 345.600,287.600 345.600 C 287.820 345.600,288.000 344.711,288.000 343.624 C 288.000 342.537,288.180 341.536,288.400 341.400 C 288.620 341.264,288.800 339.759,288.800 338.056 C 288.800 336.353,288.966 334.789,289.169 334.580 C 290.431 333.283,290.438 269.091,289.177 267.820 C 288.970 267.611,288.800 265.766,288.800 263.720 C 288.800 261.507,288.638 260.000,288.400 260.000 C 288.167 260.000,288.000 258.667,288.000 256.800 C 288.000 254.933,287.833 253.600,287.600 253.600 C 287.369 253.600,287.200 252.341,287.200 250.624 C 287.200 248.987,287.020 247.536,286.800 247.400 C 286.580 247.264,286.400 246.184,286.400 245.000 C 286.400 243.816,286.220 242.736,286.000 242.600 C 285.780 242.464,285.600 241.193,285.600 239.776 C 285.600 238.325,285.425 237.200,285.200 237.200 C 284.980 237.200,284.800 236.311,284.800 235.224 C 284.800 234.137,284.620 233.136,284.400 233.000 C 284.180 232.864,284.000 231.874,284.000 230.800 C 284.000 229.726,283.820 228.736,283.600 228.600 C 283.380 228.464,283.200 227.553,283.200 226.576 C 283.200 225.599,283.020 224.800,282.800 224.800 C 282.580 224.800,282.400 223.900,282.400 222.800 C 282.400 221.700,282.220 220.800,282.000 220.800 C 281.780 220.800,281.600 220.080,281.600 219.200 C 281.600 218.320,281.420 217.600,281.200 217.600 C 280.980 217.600,280.800 216.801,280.800 215.824 C 280.800 214.847,280.620 213.936,280.400 213.800 C 280.180 213.664,280.000 212.944,280.000 212.200 C 280.000 211.456,279.820 210.736,279.600 210.600 C 279.380 210.464,279.200 209.733,279.200 208.976 C 279.200 208.219,279.020 207.600,278.800 207.600 C 278.580 207.600,278.400 206.880,278.400 206.000 C 278.400 205.120,278.220 204.400,278.000 204.400 C 277.780 204.400,277.600 203.680,277.600 202.800 C 277.600 201.920,277.420 201.200,277.200 201.200 C 276.980 201.200,276.800 200.660,276.800 200.000 C 276.800 199.340,276.620 198.800,276.400 198.800 C 276.180 198.800,276.000 198.080,276.000 197.200 C 276.000 196.320,275.844 195.600,275.654 195.600 C 275.464 195.600,275.195 194.771,275.056 193.758 C 274.805 191.925,273.428 187.229,272.754 185.905 C 272.559 185.523,272.400 184.758,272.400 184.205 C 272.400 183.652,272.220 183.200,272.000 183.200 C 271.780 183.200,271.600 182.761,271.600 182.224 C 271.600 181.687,271.420 181.136,271.200 181.000 C 270.980 180.864,270.800 180.324,270.800 179.800 C 270.800 179.276,270.620 178.736,270.400 178.600 C 270.180 178.464,270.000 177.823,270.000 177.176 C 270.000 176.529,270.180 176.000,270.400 176.000 C 270.620 176.000,270.800 175.111,270.800 174.024 C 270.800 172.937,270.980 171.936,271.200 171.800 C 271.797 171.431,271.724 160.684,271.120 160.080 C 270.747 159.707,270.747 159.600,271.120 159.600 C 271.384 159.600,271.600 159.780,271.600 160.000 C 271.600 160.220,271.894 160.400,272.253 160.400 C 272.612 160.400,273.197 160.716,273.553 161.103 C 273.909 161.489,274.695 162.060,275.300 162.370 C 275.905 162.681,276.400 163.085,276.400 163.268 C 276.400 163.450,276.630 163.600,276.912 163.600 C 277.193 163.600,277.683 163.960,278.000 164.400 C 278.317 164.840,278.807 165.200,279.088 165.200 C 279.370 165.200,279.600 165.380,279.600 165.600 C 279.600 165.820,279.830 166.000,280.112 166.000 C 280.393 166.000,280.883 166.360,281.200 166.800 C 281.517 167.240,281.980 167.600,282.229 167.600 C 282.478 167.600,283.246 168.140,283.937 168.800 C 284.628 169.460,285.348 170.000,285.537 170.000 C 285.726 170.000,286.403 170.497,287.041 171.104 C 287.678 171.712,288.830 172.653,289.600 173.195 C 290.861 174.083,292.839 175.753,294.228 177.100 C 294.511 177.375,294.848 177.600,294.976 177.600 C 295.379 177.600,310.984 193.373,312.016 194.823 C 312.555 195.580,313.672 196.897,314.498 197.748 C 315.324 198.600,316.000 199.473,316.000 199.688 C 316.000 199.903,316.540 200.583,317.200 201.200 C 317.860 201.817,318.400 202.492,318.400 202.701 C 318.400 202.910,318.895 203.606,319.500 204.248 C 320.105 204.889,320.855 205.906,321.168 206.507 C 321.480 207.108,321.885 207.600,322.068 207.600 C 322.250 207.600,322.400 207.830,322.400 208.112 C 322.400 208.393,322.760 208.883,323.200 209.200 C 323.640 209.517,324.000 210.082,324.000 210.455 C 324.000 210.828,324.150 211.193,324.334 211.267 C 324.518 211.340,325.369 212.750,326.225 214.400 C 327.081 216.050,327.920 217.460,328.091 217.533 C 328.261 217.607,328.400 218.012,328.400 218.433 C 328.400 218.855,328.580 219.200,328.800 219.200 C 329.020 219.200,329.200 219.560,329.200 220.000 C 329.200 220.440,329.380 220.800,329.600 220.800 C 329.820 220.800,330.001 221.025,330.001 221.300 C 330.003 222.031,332.805 225.200,333.450 225.200 C 333.752 225.200,334.000 225.336,334.000 225.502 C 334.000 225.669,334.585 226.040,335.300 226.329 C 336.015 226.617,336.913 227.021,337.295 227.226 C 338.235 227.732,344.000 227.710,344.000 227.200 C 344.000 226.980,344.540 226.800,345.200 226.800 C 345.860 226.800,346.400 226.620,346.400 226.400 C 346.400 226.180,346.629 226.000,346.909 226.000 C 347.668 226.000,350.400 223.629,350.400 222.971 C 350.400 222.657,350.580 222.400,350.800 222.400 C 351.020 222.400,351.200 222.130,351.200 221.800 C 351.200 221.470,351.380 221.200,351.600 221.200 C 351.820 221.200,352.000 220.750,352.000 220.200 C 352.000 219.650,352.147 219.200,352.328 219.200 C 352.508 219.200,352.900 218.300,353.200 217.200 C 353.500 216.100,353.892 215.200,354.072 215.200 C 354.253 215.200,354.400 214.660,354.400 214.000 C 354.400 213.340,354.580 212.800,354.800 212.800 C 355.020 212.800,355.200 212.260,355.200 211.600 C 355.200 210.940,355.380 210.400,355.600 210.400 C 355.820 210.400,356.000 209.961,356.000 209.424 C 356.000 208.887,356.180 208.336,356.400 208.200 C 356.620 208.064,356.800 207.524,356.800 207.000 C 356.800 206.476,356.980 205.936,357.200 205.800 C 357.420 205.664,357.600 205.149,357.600 204.656 C 357.600 204.163,357.779 203.581,357.998 203.362 C 358.216 203.144,358.512 201.848,358.654 200.482 C 358.797 199.117,359.068 198.000,359.257 198.000 C 359.446 198.000,359.600 197.460,359.600 196.800 C 359.600 196.140,359.780 195.600,360.000 195.600 C 360.220 195.600,360.400 194.801,360.400 193.824 C 360.400 192.847,360.580 191.936,360.800 191.800 C 361.020 191.664,361.200 190.933,361.200 190.176 C 361.200 189.419,361.380 188.800,361.600 188.800 C 361.820 188.800,362.000 187.900,362.000 186.800 C 362.000 185.700,362.180 184.800,362.400 184.800 C 362.620 184.800,362.800 183.900,362.800 182.800 C 362.800 181.700,362.980 180.800,363.200 180.800 C 363.422 180.800,363.600 179.741,363.600 178.424 C 363.600 177.117,363.780 175.936,364.000 175.800 C 364.220 175.664,364.400 174.134,364.400 172.400 C 364.400 170.666,364.580 169.136,364.800 169.000 C 365.053 168.844,365.200 164.129,365.200 156.176 C 365.200 148.059,365.058 143.600,364.800 143.600 C 364.567 143.600,364.400 142.267,364.400 140.400 C 364.400 138.533,364.233 137.200,364.000 137.200 C 363.780 137.200,363.600 136.210,363.600 135.000 C 363.600 133.790,363.420 132.800,363.200 132.800 C 362.980 132.800,362.800 131.990,362.800 131.000 C 362.800 130.010,362.620 129.200,362.400 129.200 C 362.180 129.200,362.000 128.581,362.000 127.824 C 362.000 127.067,361.820 126.336,361.600 126.200 C 361.380 126.064,361.200 125.333,361.200 124.576 C 361.200 123.819,361.020 123.200,360.800 123.200 C 360.580 123.200,360.400 122.660,360.400 122.000 C 360.400 121.340,360.220 120.800,360.000 120.800 C 359.780 120.800,359.600 120.260,359.600 119.600 C 359.600 118.940,359.440 118.400,359.245 118.400 C 359.049 118.400,358.763 117.728,358.609 116.907 C 358.455 116.086,357.985 114.702,357.564 113.832 C 356.510 111.649,356.584 111.200,358.000 111.200 C 358.660 111.200,359.200 111.380,359.200 111.600 C 359.200 111.820,360.010 112.000,361.000 112.000 C 361.990 112.000,362.800 112.180,362.800 112.400 C 362.800 112.620,363.520 112.800,364.400 112.800 C 365.280 112.800,366.000 112.980,366.000 113.200 C 366.000 113.420,366.529 113.600,367.176 113.600 C 367.823 113.600,368.464 113.780,368.600 114.000 C 368.736 114.220,369.467 114.400,370.224 114.400 C 370.981 114.400,371.600 114.580,371.600 114.800 C 371.600 115.020,372.140 115.200,372.800 115.200 C 373.460 115.200,374.000 115.380,374.000 115.600 C 374.000 115.820,374.362 116.000,374.805 116.000 C 375.248 116.000,375.968 116.180,376.405 116.400 C 376.842 116.620,377.558 116.980,377.995 117.200 C 378.432 117.420,379.062 117.600,379.395 117.600 C 379.728 117.600,380.000 117.780,380.000 118.000 C 380.000 118.220,380.349 118.400,380.776 118.400 C 381.203 118.400,381.664 118.580,381.800 118.800 C 381.936 119.020,382.487 119.200,383.024 119.200 C 383.561 119.200,384.000 119.380,384.000 119.600 C 384.000 119.820,384.540 120.000,385.200 120.000 C 385.860 120.000,386.400 120.180,386.400 120.400 C 386.400 120.626,387.533 120.800,389.000 120.800 C 390.467 120.800,391.600 120.626,391.600 120.400 C 391.600 120.180,392.140 120.000,392.800 120.000 C 393.460 120.000,394.000 119.820,394.000 119.600 C 394.000 119.380,394.360 119.200,394.800 119.200 C 395.240 119.200,395.600 119.059,395.600 118.886 C 395.600 118.714,396.140 118.254,396.800 117.864 C 397.460 117.474,398.000 116.961,398.000 116.724 C 398.000 116.488,398.405 115.942,398.900 115.512 C 399.973 114.580,400.335 102.445,399.300 102.100 C 399.025 102.008,398.800 101.408,398.800 100.767 C 398.800 100.125,398.620 99.600,398.400 99.600 C 398.180 99.600,398.000 99.060,398.000 98.400 C 398.000 97.740,397.820 97.200,397.600 97.200 C 397.380 97.200,397.200 96.750,397.200 96.200 C 397.200 95.650,397.020 95.200,396.800 95.200 C 396.580 95.200,396.400 94.750,396.400 94.200 C 396.400 93.650,396.220 93.200,396.000 93.200 C 395.780 93.200,395.600 92.750,395.600 92.200 C 395.600 91.650,395.420 91.200,395.200 91.200 C 394.980 91.200,394.800 90.840,394.800 90.400 C 394.800 89.960,394.620 89.600,394.400 89.600 C 394.180 89.600,394.000 89.060,394.000 88.400 C 394.000 87.740,393.820 87.200,393.600 87.200 C 393.380 87.200,393.200 86.840,393.200 86.400 C 393.200 85.960,393.020 85.600,392.800 85.600 C 392.580 85.600,392.400 85.251,392.400 84.824 C 392.400 84.397,392.220 83.936,392.000 83.800 C 391.780 83.664,391.600 83.201,391.600 82.772 C 391.600 81.897,388.820 75.874,388.321 75.667 C 388.144 75.593,388.000 75.188,388.000 74.767 C 388.000 74.345,387.820 74.000,387.600 74.000 C 387.380 74.000,387.200 73.655,387.200 73.233 C 387.200 72.812,387.065 72.407,386.900 72.333 C 386.524 72.166,385.225 70.036,384.929 69.100 C 384.807 68.715,384.548 68.400,384.353 68.400 C 384.159 68.400,384.000 68.040,384.000 67.600 C 384.000 67.160,383.820 66.800,383.600 66.800 C 383.380 66.800,383.200 66.564,383.200 66.275 C 383.200 65.987,382.840 65.364,382.400 64.892 C 381.960 64.420,381.600 63.838,381.600 63.600 C 381.600 63.362,381.240 62.780,380.800 62.308 C 380.360 61.836,380.000 61.213,380.000 60.925 C 380.000 60.636,379.820 60.400,379.600 60.400 C 379.380 60.400,379.200 60.202,379.200 59.960 C 379.200 59.719,378.660 59.017,378.000 58.400 C 377.340 57.783,376.800 57.057,376.800 56.786 C 376.800 56.516,376.466 56.003,376.057 55.647 C 375.649 55.291,375.193 54.616,375.045 54.147 C 374.897 53.677,374.258 52.751,373.624 52.088 C 372.991 51.426,372.265 50.496,372.012 50.023 C 371.584 49.223,370.715 48.265,364.800 42.081 C 363.590 40.816,361.979 39.342,361.220 38.806 C 360.462 38.271,359.010 36.970,357.994 35.916 C 356.978 34.862,356.006 34.000,355.834 34.000 C 355.662 34.000,355.017 33.460,354.400 32.800 C 353.783 32.140,353.126 31.600,352.940 31.599 C 352.753 31.599,351.970 31.059,351.200 30.400 C 350.430 29.741,349.657 29.201,349.483 29.201 C 349.309 29.200,348.780 28.840,348.308 28.400 C 347.836 27.960,347.213 27.600,346.925 27.600 C 346.636 27.600,346.400 27.420,346.400 27.200 C 346.400 26.980,346.040 26.800,345.600 26.800 C 345.160 26.800,344.800 26.638,344.800 26.440 C 344.800 26.241,343.991 25.746,343.001 25.340 C 342.012 24.933,341.202 24.465,341.201 24.300 C 341.201 24.135,340.840 24.000,340.400 24.000 C 339.960 24.000,339.600 23.820,339.600 23.600 C 339.600 23.380,339.240 23.200,338.800 23.200 C 338.360 23.200,338.000 23.020,338.000 22.800 C 338.000 22.580,337.640 22.400,337.200 22.400 C 336.760 22.400,336.400 22.220,336.400 22.000 C 336.400 21.780,336.040 21.600,335.600 21.600 C 335.160 21.600,334.800 21.420,334.800 21.200 C 334.800 20.980,334.451 20.800,334.024 20.800 C 333.597 20.800,333.136 20.620,333.000 20.400 C 332.864 20.180,332.313 20.000,331.776 20.000 C 331.239 20.000,330.800 19.820,330.800 19.600 C 330.800 19.380,330.260 19.200,329.600 19.200 C 328.940 19.200,328.400 19.020,328.400 18.800 C 328.400 18.580,327.961 18.400,327.424 18.400 C 326.887 18.400,326.336 18.220,326.200 18.000 C 326.064 17.780,325.524 17.600,325.000 17.600 C 324.476 17.600,323.936 17.420,323.800 17.200 C 323.664 16.980,323.124 16.800,322.600 16.800 C 322.076 16.800,321.536 16.620,321.400 16.400 C 321.264 16.180,320.544 16.000,319.800 16.000 C 319.056 16.000,318.336 15.820,318.200 15.600 C 318.064 15.380,317.164 15.200,316.200 15.200 C 315.236 15.200,314.336 15.020,314.200 14.800 C 314.064 14.580,312.793 14.400,311.376 14.400 C 309.925 14.400,308.800 14.225,308.800 14.000 C 308.800 13.742,304.400 13.600,296.400 13.600 C 288.400 13.600,284.000 13.742,284.000 14.000 C 284.000 14.225,282.875 14.400,281.424 14.400 C 280.007 14.400,278.736 14.580,278.600 14.800 C 278.464 15.020,277.564 15.200,276.600 15.200 C 275.636 15.200,274.736 15.380,274.600 15.600 C 274.464 15.820,273.553 16.000,272.576 16.000 C 271.599 16.000,270.800 16.180,270.800 16.400 C 270.800 16.620,270.181 16.800,269.424 16.800 C 268.667 16.800,267.936 16.980,267.800 17.200 C 267.664 17.420,267.023 17.600,266.376 17.600 C 265.729 17.600,265.200 17.780,265.200 18.000 C 265.200 18.220,264.660 18.400,264.000 18.400 C 263.340 18.400,262.800 18.580,262.800 18.800 C 262.800 19.020,262.260 19.200,261.600 19.200 C 260.940 19.200,260.400 19.380,260.400 19.600 C 260.400 19.820,259.950 20.000,259.400 20.000 C 258.850 20.000,258.400 20.180,258.400 20.400 C 258.400 20.620,257.860 20.800,257.200 20.800 C 256.540 20.800,256.000 20.980,256.000 21.200 C 256.000 21.420,255.640 21.600,255.200 21.600 C 254.760 21.600,254.400 21.780,254.400 22.000 C 254.400 22.220,253.860 22.400,253.200 22.400 C 252.540 22.400,252.000 22.580,252.000 22.800 C 252.000 23.020,251.640 23.200,251.200 23.200 C 250.760 23.200,250.400 23.380,250.400 23.600 C 250.400 23.820,250.040 24.000,249.600 24.000 C 249.160 24.000,248.800 24.180,248.800 24.400 C 248.800 24.620,248.535 24.800,248.211 24.800 C 247.629 24.800,243.186 26.754,242.800 27.181 C 242.690 27.302,242.105 27.656,241.500 27.968 C 240.895 28.280,240.400 28.685,240.400 28.868 C 240.400 29.050,240.040 29.200,239.600 29.200 C 239.160 29.200,238.800 29.380,238.800 29.600 C 238.800 29.820,238.564 30.000,238.275 30.000 C 237.987 30.000,237.364 30.360,236.892 30.800 C 236.420 31.240,235.796 31.600,235.505 31.600 C 235.214 31.600,234.717 31.960,234.400 32.400 C 234.083 32.840,233.543 33.200,233.200 33.200 C 232.857 33.200,232.317 33.560,232.000 34.000 C 231.683 34.440,231.220 34.800,230.971 34.800 C 230.722 34.800,229.954 35.340,229.263 36.000 C 228.572 36.660,227.888 37.200,227.741 37.200 C 227.595 37.200,226.769 37.920,225.907 38.800 C 225.044 39.680,224.178 40.400,223.983 40.400 C 223.276 40.400,213.200 50.093,213.200 50.772 C 213.200 50.972,212.491 51.872,211.625 52.774 C 210.758 53.676,209.936 54.771,209.798 55.207 C 209.659 55.643,209.413 56.000,209.250 56.000 C 209.087 56.000,208.636 56.720,208.248 57.600 C 207.860 58.480,207.375 59.200,207.171 59.200 C 206.967 59.200,206.800 59.388,206.800 59.617 C 206.800 59.846,206.440 60.420,206.000 60.892 C 205.560 61.364,205.200 61.987,205.200 62.275 C 205.200 62.564,205.020 62.800,204.800 62.800 C 204.580 62.800,204.400 63.074,204.400 63.409 C 204.400 63.743,203.410 65.007,202.200 66.217 L 200.000 68.417 197.800 66.217 C 196.590 65.007,195.600 63.743,195.600 63.409 C 195.600 63.074,195.420 62.800,195.200 62.800 C 194.980 62.800,194.800 62.564,194.800 62.275 C 194.800 61.987,194.440 61.364,194.000 60.892 C 193.560 60.420,193.200 59.886,193.200 59.705 C 193.200 59.524,192.840 59.117,192.400 58.800 C 191.960 58.483,191.600 57.931,191.600 57.573 C 191.600 57.215,191.240 56.507,190.800 56.000 C 190.360 55.493,190.000 54.931,190.000 54.752 C 190.000 54.573,189.412 53.836,188.693 53.113 C 187.975 52.391,186.943 51.170,186.401 50.400 C 184.597 47.837,178.295 41.870,176.301 40.836 C 175.703 40.526,175.117 39.970,175.000 39.600 C 174.883 39.230,174.340 38.689,173.793 38.396 C 173.247 38.104,172.800 37.715,172.800 37.532 C 172.800 37.350,172.618 37.200,172.396 37.200 C 172.174 37.200,171.428 36.660,170.737 36.000 C 170.046 35.340,169.278 34.800,169.029 34.800 C 168.780 34.800,168.317 34.440,168.000 34.000 C 167.683 33.560,167.143 33.200,166.800 33.200 C 166.457 33.200,165.917 32.840,165.600 32.400 C 165.283 31.960,164.743 31.600,164.400 31.600 C 164.057 31.600,163.517 31.240,163.200 30.800 C 162.883 30.360,162.303 30.000,161.912 30.000 C 161.520 30.000,161.200 29.820,161.200 29.600 C 161.200 29.380,160.840 29.200,160.400 29.200 C 159.960 29.200,159.600 29.050,159.600 28.868 C 159.600 28.685,159.105 28.280,158.500 27.968 C 157.895 27.656,157.310 27.302,157.200 27.181 C 156.814 26.754,152.371 24.800,151.789 24.800 C 151.465 24.800,151.200 24.620,151.200 24.400 C 151.200 24.180,150.840 24.000,150.400 24.000 C 149.960 24.000,149.600 23.820,149.600 23.600 C 149.600 23.380,149.240 23.200,148.800 23.200 C 148.360 23.200,148.000 23.020,148.000 22.800 C 148.000 22.580,147.460 22.400,146.800 22.400 C 146.140 22.400,145.600 22.220,145.600 22.000 C 145.600 21.780,145.240 21.600,144.800 21.600 C 144.360 21.600,144.000 21.420,144.000 21.200 C 144.000 20.980,143.460 20.800,142.800 20.800 C 142.140 20.800,141.600 20.620,141.600 20.400 C 141.600 20.180,141.150 20.000,140.600 20.000 C 140.050 20.000,139.600 19.820,139.600 19.600 C 139.600 19.380,139.060 19.200,138.400 19.200 C 137.740 19.200,137.200 19.020,137.200 18.800 C 137.200 18.580,136.660 18.400,136.000 18.400 C 135.340 18.400,134.800 18.220,134.800 18.000 C 134.800 17.780,134.260 17.600,133.600 17.600 C 132.940 17.600,132.400 17.420,132.400 17.200 C 132.400 16.980,131.680 16.800,130.800 16.800 C 129.920 16.800,129.200 16.620,129.200 16.400 C 129.200 16.180,128.300 16.000,127.200 16.000 C 126.100 16.000,125.200 15.820,125.200 15.600 C 125.200 15.380,124.401 15.200,123.424 15.200 C 122.447 15.200,121.536 15.020,121.400 14.800 C 121.264 14.580,119.993 14.400,118.576 14.400 C 117.125 14.400,116.000 14.225,116.000 14.000 C 116.000 13.742,111.600 13.600,103.600 13.600 C 95.600 13.600,91.200 13.742,91.200 14.000 M117.800 26.961 C 136.294 29.957,154.376 38.365,168.500 50.538 C 171.957 53.517,171.869 53.571,165.600 52.301 C 158.438 50.850,155.666 50.614,145.800 50.616 C 139.488 50.617,134.620 50.810,132.600 51.139 C 125.700 52.263,122.534 52.821,121.000 53.183 C 120.120 53.391,118.590 53.743,117.600 53.965 C 108.849 55.927,101.487 58.900,100.086 61.037 C 96.475 66.546,102.259 71.216,109.402 68.559 C 110.941 67.987,112.740 67.367,113.400 67.182 C 114.060 66.997,115.230 66.667,116.000 66.449 C 121.439 64.910,126.249 63.921,133.698 62.808 C 140.208 61.835,154.379 62.042,160.800 63.202 C 169.253 64.730,174.510 66.417,180.328 69.469 C 187.400 73.178,194.694 80.015,193.869 82.163 C 193.766 82.434,192.628 82.881,191.340 83.158 C 172.208 87.276,159.097 103.034,158.057 123.163 L 157.800 128.126 155.800 128.806 C 151.625 130.224,147.318 132.754,142.281 136.746 C 141.225 137.583,139.245 138.865,137.881 139.595 C 115.381 151.635,89.918 172.242,75.584 190.011 C 69.821 197.155,63.814 206.047,61.001 211.599 C 60.443 212.699,59.737 213.600,59.431 213.600 C 58.132 213.600,51.815 193.422,49.601 182.200 C 48.419 176.205,48.280 175.198,47.200 164.732 C 46.686 159.757,46.689 152.438,47.208 147.827 C 47.988 140.892,48.462 137.393,48.784 136.200 C 48.962 135.540,49.333 133.920,49.609 132.600 C 53.253 115.140,66.605 94.680,81.600 83.579 C 83.250 82.358,85.294 80.849,86.142 80.226 C 90.865 76.761,88.774 69.600,83.039 69.600 C 78.939 69.600,64.790 81.488,56.856 91.600 C 55.044 93.910,53.313 96.102,53.009 96.471 C 52.703 96.844,51.600 97.249,50.529 97.382 C 46.451 97.888,42.536 98.465,41.000 98.787 C 40.120 98.971,38.410 99.327,37.200 99.578 C 35.990 99.828,34.280 100.221,33.400 100.450 C 32.520 100.679,31.170 101.023,30.400 101.214 C 27.395 101.961,20.419 104.242,16.815 105.656 C 12.123 107.498,12.214 107.575,13.800 103.103 C 24.605 72.631,39.807 51.321,60.023 38.308 C 62.907 36.451,70.397 32.569,73.000 31.581 C 73.440 31.415,74.790 30.903,76.000 30.445 C 86.737 26.380,104.877 24.868,117.800 26.961 M310.516 26.946 C 314.793 27.701,321.022 29.318,324.000 30.445 C 325.210 30.903,326.560 31.414,327.000 31.579 C 348.257 39.590,369.318 62.221,380.808 89.400 C 381.552 91.160,382.304 92.771,382.480 92.980 C 382.656 93.189,382.800 93.596,382.800 93.884 C 382.800 94.173,383.139 95.172,383.554 96.104 C 385.188 99.778,387.582 106.685,387.314 106.952 C 387.131 107.136,386.725 107.001,383.800 105.791 C 381.797 104.962,374.346 102.474,371.900 101.818 C 367.520 100.642,365.389 100.117,363.000 99.627 C 361.680 99.356,359.880 98.981,359.000 98.793 C 357.484 98.470,353.570 97.889,349.600 97.399 C 347.343 97.120,347.441 97.197,344.759 93.600 C 341.766 89.586,335.889 83.109,332.795 80.414 C 331.414 79.211,330.035 77.978,329.730 77.673 C 321.223 69.166,298.865 57.948,282.600 54.025 C 277.216 52.726,276.044 52.479,273.200 52.045 C 271.770 51.826,269.160 51.416,267.400 51.134 C 259.824 49.918,241.908 50.601,233.600 52.422 C 232.610 52.639,231.080 52.915,230.200 53.036 L 228.600 53.254 230.749 51.208 C 239.155 43.203,252.493 35.686,266.600 31.003 C 273.522 28.706,278.113 27.695,288.200 26.246 C 291.005 25.843,307.138 26.349,310.516 26.946 M267.600 62.839 C 312.361 69.904,342.600 96.209,351.012 135.400 C 352.827 143.852,353.609 156.506,352.800 164.332 C 352.033 171.765,351.548 175.814,351.210 177.600 C 351.023 178.590,350.668 180.480,350.421 181.800 C 349.541 186.504,348.635 190.219,346.766 196.800 C 345.381 201.677,344.519 204.310,342.052 211.200 C 341.027 214.063,340.410 214.127,339.010 211.515 C 335.558 205.077,330.383 197.336,325.428 191.200 C 317.362 181.212,306.218 170.279,295.177 161.520 C 285.869 154.136,270.886 144.199,262.257 139.687 C 261.163 139.115,259.263 137.867,258.034 136.913 C 252.617 132.707,248.387 130.228,244.200 128.806 L 242.200 128.126 241.957 122.963 C 241.021 103.102,227.780 87.273,208.660 83.158 C 205.859 82.556,205.577 82.053,206.940 80.089 C 212.969 71.401,225.097 65.319,241.400 62.808 C 246.819 61.973,262.232 61.991,267.600 62.839 M206.600 94.603 C 232.558 101.233,238.831 131.660,217.798 148.920 C 209.811 155.474,195.643 156.679,186.562 151.579 C 185.873 151.192,184.880 150.633,184.355 150.338 C 177.952 146.732,172.353 139.074,170.370 131.208 C 165.045 110.081,185.658 89.255,206.600 94.603 M161.639 141.900 C 166.468 153.813,178.935 163.309,193.328 166.040 C 196.836 166.706,197.029 167.054,196.234 171.272 C 192.300 192.128,165.916 200.704,150.137 186.255 C 135.393 172.754,139.786 147.713,158.200 140.286 C 160.534 139.345,160.620 139.385,161.639 141.900 M241.692 140.271 C 256.614 146.137,263.346 165.928,255.163 179.876 C 244.793 197.553,219.268 198.016,207.832 180.735 L 206.333 178.469 207.139 174.935 C 207.582 172.991,208.092 170.163,208.272 168.651 C 208.636 165.602,208.441 165.772,213.200 164.364 C 223.118 161.430,232.998 152.866,237.715 143.116 C 239.607 139.204,239.383 139.364,241.692 140.271 M203.432 193.542 C 218.796 208.780,242.187 209.051,258.393 194.179 C 259.976 192.726,261.342 191.609,261.429 191.695 C 262.055 192.322,267.504 212.362,269.179 220.200 C 269.461 221.520,269.836 223.140,270.012 223.800 C 270.189 224.460,270.549 226.260,270.813 227.800 C 271.077 229.340,271.452 231.122,271.646 231.760 C 272.467 234.452,272.232 234.654,267.600 235.229 C 263.874 235.692,258.738 236.332,254.800 236.823 C 228.015 240.165,212.219 241.409,197.000 241.377 C 175.887 241.333,155.617 239.564,135.800 236.036 C 127.854 234.622,127.862 234.625,128.123 233.243 C 128.485 231.329,129.270 227.420,129.637 225.700 C 129.974 224.122,130.152 223.315,131.178 218.700 C 131.386 217.765,131.738 216.280,131.960 215.400 C 132.182 214.520,132.528 213.080,132.730 212.200 C 132.931 211.320,133.479 209.205,133.948 207.500 C 134.417 205.795,135.152 203.095,135.583 201.500 C 136.014 199.905,136.877 196.991,137.500 195.026 L 138.634 191.451 141.576 194.150 C 157.819 209.056,181.857 208.797,196.480 193.557 C 200.098 189.788,199.647 189.789,203.432 193.542 M131.400 246.765 C 145.769 249.399,154.041 250.449,171.400 251.842 C 182.011 252.694,215.118 252.839,225.400 252.079 C 236.658 251.246,250.285 249.809,256.400 248.809 C 257.610 248.611,259.950 248.253,261.600 248.014 C 265.587 247.435,268.939 246.861,271.502 246.317 C 274.032 245.780,274.074 245.815,274.434 248.708 C 274.591 249.968,274.926 252.530,275.178 254.400 C 277.348 270.496,278.181 283.956,278.180 302.939 C 278.180 320.438,278.279 319.725,275.800 320.182 C 272.980 320.703,270.003 321.308,268.800 321.606 C 266.402 322.199,260.254 323.205,248.883 324.865 C 244.964 325.438,243.589 326.172,242.622 328.211 C 241.162 331.287,242.691 334.974,245.861 336.020 C 247.299 336.495,255.520 335.578,264.000 333.996 C 264.990 333.812,266.970 333.455,268.400 333.204 C 269.830 332.952,271.720 332.583,272.600 332.383 C 277.065 331.369,277.306 331.710,276.426 337.800 C 273.879 355.421,261.203 368.808,244.600 371.409 C 228.235 373.973,195.491 375.074,177.800 373.655 C 156.312 371.931,152.844 371.392,146.684 368.815 C 138.273 365.297,131.167 358.453,127.052 349.907 C 124.877 345.389,122.855 336.381,123.257 333.000 C 123.414 331.686,124.384 331.545,127.600 332.370 C 129.610 332.885,141.226 334.936,144.629 335.376 C 169.916 338.647,188.485 339.599,212.600 338.861 C 228.017 338.390,229.184 338.046,229.823 333.785 C 230.450 329.602,227.956 327.386,222.672 327.431 C 177.301 327.820,167.218 327.338,142.600 323.610 C 139.645 323.163,133.860 322.106,129.200 321.161 C 128.210 320.961,126.680 320.683,125.800 320.543 C 124.920 320.404,123.705 320.040,123.100 319.735 L 122.000 319.179 121.900 312.090 C 121.591 290.179,122.864 266.734,125.183 251.600 C 125.403 250.170,125.688 248.303,125.818 247.451 L 126.055 245.902 127.727 246.150 C 128.647 246.287,130.300 246.563,131.400 246.765 M147.559 273.708 C 143.673 276.304,143.462 289.338,147.261 292.044 C 149.827 293.870,153.233 293.116,155.375 290.246 C 156.577 288.636,156.623 277.699,155.436 275.738 C 153.778 272.998,150.057 272.039,147.559 273.708 M246.955 273.562 C 244.254 275.209,244.000 276.026,244.000 283.071 L 244.000 289.418 245.221 290.899 C 247.902 294.152,253.070 293.523,254.645 289.753 C 255.516 287.669,255.412 277.824,254.499 276.008 C 253.045 273.113,249.550 271.980,246.955 273.562 M184.897 281.998 C 176.878 286.887,187.260 297.690,200.000 297.715 C 212.804 297.740,222.982 287.322,215.241 282.114 C 212.854 280.509,209.809 281.022,207.600 283.401 C 204.294 286.961,197.652 287.389,193.627 284.301 C 189.805 281.369,189.490 281.200,187.841 281.201 C 186.910 281.202,185.636 281.547,184.897 281.998 " stroke="none" fill="#040404" fill-rule="evenodd"></path></g></svg>