<?xml version="1.0" encoding="UTF-8"?>
<svg width="53px" height="64px" viewBox="0 0 53 64" version="1.1" xmlns="http://www.w3.org/2000/svg" xmlns:xlink="http://www.w3.org/1999/xlink">
    <!-- Generator: Sketch 53.2 (72643) - https://sketchapp.com -->
    <title>salt</title>
    <desc>Created with Sketch.</desc>
    <g id="Page-1" stroke="none" stroke-width="1" fill="none" fill-rule="evenodd">
        <g id="salt" fill-rule="nonzero">
            <path d="M44.4258667,20.2666667 L49.3965333,42.3573333 L49.3858667,42.3573333 C42.0685333,40.5653333 34.7512,36.2453333 27.4232,36.2453333 C20.0952,36.2453333 12.7778667,40.5653333 5.46053333,42.3573333 L5.33253333,42.3253333 L10.2925333,20.2666667 L44.4258667,20.2666667 Z" id="Path" fill="#D4EDFF" opacity="0.5"></path>
            <path d="M51.572544,55.1253333 C52.0002718,57.0219159 51.5426868,59.0100983 50.3289038,60.5288832 C49.1151208,62.047668 47.2767599,62.9323615 45.332544,62.9333333 L7.99921067,62.9333333 C6.05499474,62.9323615 4.21663386,62.047668 3.00285089,60.5288832 C1.78906791,59.0100983 1.33148287,57.0219159 1.75921067,55.1253333 L4.63921067,42.3253333 L4.76721067,42.3573333 C12.084544,40.5653333 19.4018773,36.2453333 26.7298773,36.2453333 C34.0578773,36.2453333 41.3752107,40.5653333 48.692544,42.3573333 L48.7032107,42.3573333 L51.572544,55.1253333 Z" id="Path" fill="#EEF6FF"></path>
            <path d="M21.389952,55.128384 L24.2268053,20.2666667 L15.4281707,20.2666667 L8.669312,55.128384 C7.8936,59.1296853 10.5155413,62.9333333 14.0495253,62.9333333 L23.64816,62.9333333 C22.1648213,62.9333333 21.0643733,59.1296853 21.389952,55.128384 Z" id="Path" fill="#FFFFFF"></path>
            <path d="M4.127232,45.5573333 C11.4445653,43.7653333 19.4018987,39.4453333 26.7298987,39.4453333 C34.0578987,39.4453333 42.1218987,43.7653333 49.439232,45.5573333 L48.703232,42.3573333 C48.703232,42.3573333 34.0578987,36.2453333 26.7298987,36.2453333 C19.4018987,36.2453333 12.0845653,40.5653333 4.767232,42.3573333 L4.127232,45.5573333 Z" id="Path" fill="#FFFFFF" opacity="0.75"></path>
            <g id="Group" opacity="0.2" transform="translate(1.066667, 20.266667)" fill="#2C4B75">
                <path d="M50.5317547,34.8617173 L42.6658667,0 L35.1992,0 L38.0360533,34.8617173 C38.3616,38.8630187 37.261184,42.6666667 35.7778453,42.6666667 L45.1516053,42.6666667 C48.6855893,42.6666667 51.3074667,38.8630187 50.5317547,34.8617173 Z" id="Path"></path>
                <path d="M50.464,34.6579413 C49.7377796,37.4877122 47.1873388,39.466432 44.2658667,39.4666667 L6.93253333,39.4666667 C4.01107694,39.4663996 1.46065981,37.4876914 0.734421333,34.6579413 L0.688554667,34.8616747 C0.261779485,36.7584946 0.720367153,38.7464686 1.93492147,40.2646651 C3.14947578,41.7828616 4.98829496,42.6666531 6.93253333,42.6666667 L44.2658667,42.6666667 C46.2100944,42.6666526 48.0489034,41.7828659 49.2634513,40.2646779 C50.4779992,38.7464899 50.9365851,36.7585271 50.5098133,34.8617173 L50.464,34.6579413 Z" id="Path"></path>
                <polygon id="Path" points="43.3856 3.2 42.6656 0 8.53226667 0 7.81333333 3.2"></polygon>
            </g>
            <path d="M50.260544,14.8053333 C51.1765968,15.7197686 51.4511138,17.0962163 50.9559413,18.2921046 C50.4607688,19.4879929 49.2935614,20.2674766 47.9992107,20.2666667 L5.332544,20.2666667 C3.5652328,20.2666667 2.132544,18.8339779 2.132544,17.0666667 C2.132544,15.2993555 3.5652328,13.8666667 5.332544,13.8666667 L8.58587733,13.8666667 C11.2876264,6.19708574 18.5343388,1.06667203 26.6658773,1.06667203 C34.7974159,1.06667203 42.0441283,6.19708574 44.7458773,13.8666667 L47.9992107,13.8666667 C48.8477857,13.8665706 49.6614815,14.2043311 50.260544,14.8053333 Z" id="Path" fill="#CED8EE"></path>
            <g id="Group" opacity="0.75" transform="translate(10.666667, 1.066667)" fill="#FFFFFF">
                <path d="M11.7325333,13.8666667 C11.7325333,6.20833067 14.5978987,0 18.1325333,0 C10.4741848,-1.0658141e-15 4.26586667,6.20831814 4.26586667,13.8666667 C4.26586667,19.2 11.7325333,17.0666667 11.7325333,13.8666667 Z" id="Path"></path>
                <rect id="Rectangle" x="1.06586667" y="12.7999893" width="13.8666667" height="6.4" rx="3"></rect>
            </g>
            <g id="Group" opacity="0.2" transform="translate(24.533333, 1.066667)" fill="#2C4B75">
                <path d="M23.4658667,12.8 L10.6658667,12.8 C11.7325333,12.8 12.7992,14.2326827 12.7992,16 C12.7992,17.7673173 11.7325333,19.2 10.6658667,19.2 L23.4658667,19.2 C25.2331779,19.2 26.6658667,17.7673112 26.6658667,16 C26.6658667,14.2326888 25.2331779,12.8 23.4658667,12.8 Z" id="Path"></path>
                <path d="M13.3626773,12.8 L17.0658667,14.9333333 L20.2125333,12.8 C17.5078941,5.13260105 10.2629742,0.00345422763 2.13253333,2.22044605e-16 C1.71957333,2.22044605e-16 1.312352,0.0232426667 0.905866667,0.04896 C6.68090667,0.543818667 11.5116373,5.71269333 13.3626773,12.8 Z" id="Path"></path>
                <path d="M23.4658667,19.2000029 C24.3149067,19.2011343 25.1294984,18.8643567 25.7298609,18.2639942 C26.3302234,17.6636318 26.667001,16.84904 26.6658695,16 C26.6658667,16.8486928 26.3287248,17.6626253 25.7286084,18.2627417 C25.128492,18.8628581 24.3145594,19.2 23.4658667,19.2000029 Z" id="Path"></path>
            </g>
            <path d="M45.3322667,64 L7.99893333,64 C5.73060329,63.9999473 3.5852891,62.9687698 2.16834895,61.1974421 C0.751408794,59.4261144 0.216499453,57.106724 0.71456,54.8937493 L8.55831467,20.032288 C8.66787454,19.5456444 9.10010937,19.1999425 9.59893333,19.2 L43.7322667,19.2 C44.2310946,19.1999375 44.6633352,19.5456405 44.772896,20.032288 L52.6166507,54.8937493 C53.1152537,57.1067906 52.5805507,59.4264844 51.1634942,61.1979549 C49.7464377,62.9694254 47.6007809,64.0004651 45.3322667,64 L45.3322667,64 Z M10.4520853,21.3333333 L2.79582933,55.362496 C2.43987549,56.943182 2.82188459,58.5999662 3.83403097,59.8652057 C4.84617735,61.1304452 6.37866444,61.8668882 7.99893333,61.8666667 L45.3322667,61.8666667 C46.9525883,61.8670187 48.4851695,61.130615 49.4973602,59.8653434 C50.5095509,58.6000718 50.891531,56.9432112 50.5354667,55.362496 L42.879168,21.3333333 L10.4520853,21.3333333 Z" id="Shape" fill="#6D6DAA"></path>
            <path d="M48.6937493,43.4229333 C48.6081181,43.423173 48.5227736,43.4130297 48.439584,43.3927253 C45.6464657,42.6470171 42.8985292,41.741345 40.209376,40.680192 C35.758336,39.021856 31.156256,37.3072747 26.728128,37.3072747 C22.29792,37.3072747 17.6947947,39.0229013 13.2416747,40.6812373 C10.5547467,41.7414059 7.80926746,42.6467125 5.01874133,43.392704 C4.64830739,43.4839034 4.25736464,43.3704235 3.99333478,43.0950567 C3.72930491,42.8196899 3.63235148,42.4243243 3.73903491,42.0580495 C3.84571835,41.6917746 4.13981024,41.4103072 4.51041067,41.3197867 C7.22058617,40.5933235 9.88707597,39.7127226 12.496864,38.6822827 C17.127072,36.95728 21.913536,35.173952 26.7281173,35.173952 C31.5406187,35.173952 36.325984,36.9562453 40.9541547,38.6802027 C43.5655087,39.7117981 46.233761,40.5931003 48.945824,41.3197867 C49.4701633,41.4477614 49.8163083,41.9472012 49.7520748,42.4830961 C49.6878412,43.018991 49.2334692,43.4224791 48.6937387,43.422912 L48.6937493,43.4229333 Z" id="Path" fill="#6D6DAA"></path>
            <path d="M47.9989333,21.3333333 L5.33226667,21.3333333 C2.97585173,21.3333333 1.0656,19.4230816 1.0656,17.0666667 C1.0656,14.7102517 2.97585173,12.8 5.33226667,12.8 L7.84372267,12.8 C10.8968106,5.07514906 18.3598197,-2.75299654e-06 26.6661227,-2.75299655e-06 C34.9724256,-2.75299655e-06 42.4354347,5.07514906 45.4885227,12.8 L47.9989333,12.8 C50.3553483,12.8 52.2656,14.7102517 52.2656,17.0666667 C52.2656,19.4230816 50.3553483,21.3333333 47.9989333,21.3333333 L47.9989333,21.3333333 Z M5.33226667,14.9333333 C4.1540592,14.9333333 3.19893333,15.8884592 3.19893333,17.0666667 C3.19893333,18.2448741 4.1540592,19.2 5.33226667,19.2 L47.9989333,19.2 C49.1771408,19.2 50.1322667,18.2448741 50.1322667,17.0666667 C50.1322667,15.8884592 49.1771408,14.9333333 47.9989333,14.9333333 L44.7499733,14.9333333 C44.2981271,14.933761 43.8951992,14.6490034 43.744768,14.2229333 C41.1919654,6.97885738 34.3468412,2.13335031 26.6661227,2.13335031 C18.9854041,2.13335031 12.14028,6.97885738 9.58747733,14.2229333 C9.43679692,14.6488055 9.03403626,14.9334511 8.58229333,14.9333333 L5.33226667,14.9333333 Z" id="Shape" fill="#6D6DAA"></path>
            <path d="M32.1054507,14.9562453 C31.2217951,14.9562453 30.5054507,14.2399009 30.5054507,13.3562453 C30.5054507,12.4725897 31.2217951,11.7562453 32.1054507,11.7562453 C32.9891063,11.7562453 33.7054507,12.4725897 33.7054507,13.3562453 C33.7044866,14.2395013 32.9887066,14.9552812 32.1054507,14.9562453 L32.1054507,14.9562453 Z" id="Path" fill="#6D6DAA"></path>
            <path d="M21.438784,14.9562453 C20.5551284,14.9562453 19.838784,14.2399009 19.838784,13.3562453 C19.838784,12.4725897 20.5551284,11.7562453 21.438784,11.7562453 C22.3224396,11.7562453 23.038784,12.4725897 23.038784,13.3562453 C23.0378199,14.2395013 22.3220399,14.9552812 21.438784,14.9562453 L21.438784,14.9562453 Z" id="Path" fill="#6D6DAA"></path>
            <path d="M26.7721173,9.63125333 C25.8886006,9.63125314 25.1723139,8.91512533 25.1721177,8.03160865 C25.1719215,7.14809197 25.8878901,6.4316461 26.7714067,6.43125349 C27.6549233,6.43086088 28.3715283,7.14667016 28.3721173,8.03018667 C28.3712483,8.91365485 27.6555847,9.6297955 26.7721173,9.63125333 L26.7721173,9.63125333 Z" id="Path" fill="#6D6DAA"></path>
        </g>
    </g>
</svg>