<?xml version="1.0" standalone="no"?>
<!DOCTYPE svg PUBLIC "-//W3C//DTD SVG 20010904//EN"
 "http://www.w3.org/TR/2001/REC-SVG-20010904/DTD/svg10.dtd">
<svg version="1.0" xmlns="http://www.w3.org/2000/svg"
 width="450.000000pt" height="450.000000pt" viewBox="0 0 450.000000 450.000000"
 preserveAspectRatio="xMidYMid meet">
<metadata>
Created by potrace 1.10, written by Peter Selinger 2001-2011
</metadata>
<g transform="translate(0.000000,450.000000) scale(0.100000,-0.100000)"
fill="#e69138" stroke="none">
<path d="M576 4388 c-25 -114 -40 -201 -41 -243 -2 -38 -7 -51 -20 -53 -14 -3
-16 -11 -12 -37 7 -41 -17 -76 -63 -95 -36 -15 -38 -26 -6 -51 16 -13 26 -34
31 -65 10 -66 -8 -100 -66 -130 -64 -32 -75 -53 -47 -90 12 -16 25 -31 28 -34
3 -3 17 -20 32 -39 l26 -34 -31 -22 c-23 -15 -32 -29 -30 -46 1 -20 -8 -30
-47 -52 -54 -30 -90 -70 -90 -98 0 -12 22 -32 60 -56 63 -40 100 -93 100 -145
0 -22 -11 -30 -87 -63 -96 -43 -143 -78 -143 -105 0 -20 39 -55 153 -137 75
-55 91 -73 64 -73 -22 0 -205 -77 -236 -100 -16 -11 -35 -36 -41 -54 -28 -86
60 -167 248 -227 l74 -24 -6 -40 c-10 -62 -56 -150 -143 -272 -90 -126 -108
-162 -99 -198 14 -57 128 -72 306 -40 135 24 231 29 289 15 47 -11 59 -21 163
-133 374 -404 562 -569 913 -804 609 -407 1353 -743 1646 -743 63 0 81 4 104
22 68 53 72 179 9 250 -15 15 -14 23 7 85 30 91 102 166 175 181 28 6 60 9 72
5 29 -7 64 32 107 121 37 76 75 208 75 262 0 24 15 53 53 107 164 229 277 629
277 983 0 275 -77 569 -196 750 -32 48 -52 93 -66 149 -37 146 -142 318 -304
501 -82 91 -108 150 -145 325 -53 244 -88 309 -199 367 -60 31 -71 34 -135 30
-124 -8 -253 -75 -488 -252 -220 -165 -243 -186 -202 -186 19 0 19 0 -7 -49
-12 -22 -25 -38 -29 -35 -4 2 -8 -4 -8 -13 0 -10 -2 -52 -5 -93 l-5 -75 9 68
c5 39 20 91 35 120 35 70 124 164 221 233 15 10 56 40 91 66 63 47 183 127
213 142 14 7 -4 -11 -90 -88 -19 -17 -66 -66 -104 -109 -47 -52 -73 -74 -80
-67 -10 10 -46 -34 -46 -55 1 -5 8 2 16 18 8 15 19 27 24 27 15 0 12 -16 -5
-30 -8 -7 -15 -17 -15 -22 0 -5 -9 -19 -21 -31 -33 -35 -110 -171 -104 -185 3
-7 1 -11 -4 -8 -12 8 -35 -50 -27 -69 3 -9 2 -13 -4 -10 -6 3 -11 1 -11 -4 -2
-16 -4 -23 -17 -53 -6 -15 -10 -47 -8 -72 2 -42 1 -45 -22 -43 -18 1 -23 6
-19 23 3 16 0 21 -10 17 -7 -3 -13 0 -13 5 0 6 10 14 21 17 12 4 17 10 12 14
-6 3 -13 23 -16 45 -7 42 -13 53 -24 42 -4 -4 -2 -16 5 -26 17 -27 15 -57 -4
-64 -12 -4 -14 -1 -9 14 4 11 3 20 -2 20 -4 0 -9 12 -10 28 -1 15 -4 61 -7
102 -3 41 -1 89 4 105 9 30 20 87 22 114 1 11 4 11 13 -2 8 -12 19 13 49 122
49 170 56 229 31 248 -28 19 -90 16 -138 -8 -23 -12 -96 -52 -162 -90 -127
-72 -275 -139 -312 -139 -25 0 -53 32 -81 93 -124 265 -153 311 -207 326 -16
4 -45 4 -63 -1 -28 -8 -38 -19 -68 -81 -19 -39 -34 -78 -34 -87 0 -8 -4 -21
-9 -28 -5 -9 -21 9 -51 62 -24 41 -50 78 -59 81 -26 10 -58 -38 -77 -119 -9
-41 -24 -78 -31 -80 -8 -3 -11 -2 -8 4 3 5 -9 31 -28 57 -18 26 -42 65 -53 87
-10 21 -25 40 -32 43 -18 8 -50 -24 -83 -82 -23 -41 -29 -46 -34 -30 -16 49
-36 85 -47 85 -8 0 -35 -22 -61 -50 -52 -54 -59 -56 -167 -41 -69 10 -86 -1
-131 -87 -46 -86 -71 -107 -158 -131 -41 -11 -81 -27 -90 -34 -16 -14 -51 -12
-51 3 0 4 14 13 30 20 39 16 52 42 44 85 l-6 35 44 0 c66 0 88 20 88 82 0 44
2 49 18 43 60 -26 105 -17 122 25 18 43 24 44 69 14 45 -29 70 -27 100 12 l20
25 3 -43 c2 -24 8 -42 13 -40 6 2 9 22 7 45 -4 69 -8 72 -47 38 -43 -37 -52
-38 -99 -6 -41 28 -53 30 -58 14 -6 -19 -94 26 -150 76 -28 25 -54 45 -59 45
-5 0 -11 -10 -13 -22z m134 -103 c6 3 10 1 10 -4 0 -6 3 -10 8 -9 16 4 52 -14
52 -27 0 -27 -38 -38 -87 -26 -24 7 -48 9 -54 6 -5 -4 -9 -23 -9 -43 0 -20 -5
-44 -10 -52 -8 -13 -12 -12 -31 7 -21 21 -21 24 -9 120 7 54 14 104 16 110 2
7 25 -9 54 -38 27 -27 55 -47 60 -44z m1093 35 c31 -25 75 -101 110 -190 14
-36 44 -114 67 -173 41 -105 88 -177 115 -177 7 0 29 17 48 38 18 20 56 61 83
91 56 61 185 152 311 217 148 78 160 53 84 -164 -66 -186 -85 -281 -79 -392 5
-82 9 -94 71 -221 146 -299 220 -528 276 -849 21 -124 46 -313 86 -670 37
-337 81 -539 161 -755 97 -258 216 -456 396 -657 67 -76 78 -93 78 -124 0 -50
-52 -100 -114 -109 -89 -14 -312 43 -551 139 -122 50 -468 222 -585 292 -52
31 -113 67 -135 79 -95 54 -459 295 -475 314 -3 4 -50 40 -105 81 -192 144
-397 364 -610 657 -35 49 -65 81 -73 78 -7 -3 -11 -1 -8 4 12 19 -74 70 -154
91 -28 8 -113 12 -227 11 -188 -1 -189 -1 -183 38 1 8 23 41 48 74 114 143
152 212 152 272 0 33 0 33 -67 45 -110 19 -214 49 -278 80 -44 21 -62 26 -68
17 -6 -8 -7 -5 -3 7 4 12 -1 26 -14 38 -13 13 -20 29 -18 46 3 29 34 44 173
82 81 23 237 84 265 104 8 6 31 20 50 30 77 42 195 152 246 229 l25 39 -43 36
c-143 121 -238 237 -238 292 0 36 39 74 98 96 37 13 102 18 312 24 146 4 279
12 297 18 97 32 159 86 208 181 30 59 56 158 105 401 17 85 42 179 55 208 21
45 28 52 53 52 16 0 41 -9 55 -20z m-260 -100 c14 -28 22 -52 16 -55 -12 -8
-11 -56 1 -75 7 -10 8 -2 4 29 -5 30 -4 42 3 38 27 -17 20 -83 -25 -217 -112
-340 -158 -372 -592 -421 -243 -27 -314 -49 -346 -110 -33 -64 -7 -128 107
-263 l83 -99 -54 -50 c-30 -28 -80 -62 -110 -76 -49 -23 -67 -26 -165 -26 -94
0 -118 4 -163 24 -29 13 -51 29 -49 35 2 6 21 16 43 22 22 6 59 21 83 33 24
13 49 20 57 17 8 -3 13 -2 10 3 -3 5 7 17 22 26 42 27 92 87 101 120 13 51
-17 114 -103 214 -25 30 -46 61 -46 68 0 27 63 47 205 68 271 38 336 98 354
327 12 150 21 156 171 111 83 -24 182 -23 217 3 59 44 84 100 104 229 5 39 12
76 15 84 7 20 27 -1 57 -59z m-263 47 c0 -38 95 -181 113 -170 7 4 0 -9 -14
-28 -52 -70 -167 -99 -269 -69 -19 5 -52 10 -72 10 -61 0 -80 -31 -137 -216
-17 -56 -40 -113 -51 -127 -28 -35 -105 -70 -236 -106 -125 -35 -124 -35 -124
-18 0 6 -10 31 -22 54 -15 28 -19 46 -13 52 6 5 55 21 109 36 134 35 190 61
227 103 48 54 62 97 56 168 -7 88 -1 94 91 94 164 1 220 30 278 148 35 72 64
104 64 69z m-160 -29 c0 -7 7 -26 15 -42 15 -28 14 -31 -12 -58 -33 -35 -107
-58 -185 -58 -92 0 -108 -16 -144 -145 -19 -70 -68 -141 -121 -178 -36 -24
-121 -56 -190 -71 -32 -7 -55 -28 -66 -58 -4 -10 -2 -18 3 -18 6 0 10 6 10 13
0 15 49 -84 50 -100 0 -23 -19 -14 -26 12 -3 14 -10 25 -15 25 -5 0 -9 5 -9
11 0 6 -7 17 -15 26 -8 8 -13 19 -10 23 3 5 -3 14 -14 20 -28 14 -17 34 30 55
58 27 79 67 79 153 l0 71 38 10 c20 6 63 15 94 21 75 15 103 38 129 111 41
113 62 123 182 95 31 -7 57 -10 57 -6 0 4 11 10 24 14 12 3 36 24 51 46 28 40
45 51 45 28z m2339 -58 c88 -44 136 -133 176 -321 44 -213 65 -260 159 -364
143 -156 259 -353 295 -495 12 -48 32 -95 56 -130 76 -112 135 -269 166 -440
21 -114 18 -457 -5 -595 -22 -134 -75 -345 -111 -440 -37 -97 -108 -232 -147
-280 -25 -30 -36 -55 -45 -108 -23 -137 -110 -263 -188 -273 -65 -8 -117 -38
-189 -110 -71 -71 -113 -104 -132 -104 -21 0 -163 224 -228 360 -140 292 -217
601 -266 1070 -63 606 -138 952 -282 1300 l-39 95 16 75 c44 198 251 522 431
671 137 114 234 140 333 89z m-2012 -32 c-3 -8 -6 -5 -6 6 -1 11 2 17 5 13 3
-3 4 -12 1 -19z m182 -19 c-6 -11 -8 -27 -5 -34 3 -8 -1 -36 -8 -62 -7 -26
-21 -84 -31 -128 -25 -116 -37 -155 -46 -149 -5 3 -6 -2 -3 -10 14 -38 -97
-196 -138 -196 -10 0 -18 -4 -18 -8 0 -5 -26 -16 -57 -25 -74 -23 -323 -35
-323 -17 0 7 6 10 14 7 8 -3 27 -2 43 3 15 5 60 14 98 21 129 22 203 51 255
102 30 29 109 160 112 184 0 5 4 18 9 31 5 13 9 31 9 41 0 10 9 30 21 45 11
14 16 26 10 26 -8 0 -8 6 -2 18 17 29 42 132 36 142 -7 12 17 40 28 33 4 -2 2
-13 -4 -24z m-469 1 c0 -5 -5 -10 -11 -10 -5 0 -7 5 -4 10 3 6 8 10 11 10 2 0
4 -4 4 -10z m273 -27 c-6 -2 -9 -12 -6 -21 7 -30 -52 -100 -94 -111 -79 -22
-102 -6 -28 20 24 9 46 13 48 10 2 -3 2 -1 1 6 -2 7 7 20 19 30 12 10 23 25
25 33 2 8 11 26 19 40 12 18 18 21 21 10 3 -8 0 -16 -5 -17z m-843 13 c0 -11
-19 -15 -25 -6 -3 5 1 10 9 10 9 0 16 -2 16 -4z m130 -106 c-6 -11 -13 -20
-16 -20 -2 0 0 9 6 20 6 11 13 20 16 20 2 0 0 -9 -6 -20z m1523 -55 c-31 -30
-60 -55 -65 -55 -4 0 -7 -3 -6 -7 4 -13 -34 -63 -47 -63 -7 0 -16 -8 -19 -17
-6 -15 -11 -13 -35 12 -16 18 -26 37 -23 48 3 10 0 17 -7 15 -7 -2 -19 15 -26
37 -18 50 -18 57 0 25 7 -14 16 -24 19 -22 17 7 25 0 19 -15 -6 -17 -6 -17 10
-2 9 9 33 20 54 24 21 4 49 13 63 20 24 13 47 22 63 23 4 1 15 8 23 17 9 8 19
15 24 15 5 0 -16 -25 -47 -55z m-1415 -80 c-4 -16 -14 -34 -21 -40 -7 -5 -16
-18 -20 -27 -3 -10 -14 -18 -22 -18 -9 0 -14 -4 -11 -9 3 -4 -6 -13 -20 -20
-32 -14 -43 -14 -24 2 9 7 29 31 46 54 17 24 34 39 38 35 5 -4 7 0 5 8 -2 8 3
40 11 70 l14 55 6 -40 c3 -22 2 -53 -2 -70z m129 -42 c-5 -7 -7 -23 -3 -37 6
-26 -21 -116 -35 -116 -5 0 -9 -7 -9 -16 0 -8 -4 -12 -10 -9 -5 3 -8 0 -5 -7
6 -15 -59 -62 -89 -64 -11 -1 -38 -9 -58 -18 -42 -18 -72 -21 -63 -6 3 6 13
10 21 10 24 0 121 51 144 75 12 13 32 48 44 80 13 31 26 51 28 43 3 -7 5 1 6
17 0 17 6 55 13 85 l14 55 5 -40 c3 -22 2 -46 -3 -52z m1732 -19 c-17 -21 -31
-17 -17 5 7 11 16 17 20 14 5 -2 4 -11 -3 -19z m-2224 -450 c22 -27 44 -52 49
-55 5 -4 5 -12 1 -19 -5 -8 -4 -11 2 -7 24 15 47 -87 28 -123 -23 -44 -128
-131 -141 -117 -3 3 2 12 10 20 26 26 -2 120 -47 160 -11 9 -18 20 -15 23 3 3
12 -1 19 -9 7 -8 22 -12 33 -9 14 4 17 2 11 -8 -5 -9 -4 -11 3 -6 13 8 42 -17
60 -49 11 -20 11 -20 12 2 0 25 -59 78 -99 88 -50 13 -121 48 -121 60 0 26
114 96 129 79 36 -39 101 -140 101 -158 0 -11 5 -28 10 -36 14 -22 13 18 -2
61 -11 32 -17 42 -46 74 -7 8 -11 15 -8 15 3 0 -2 9 -11 19 -35 38 -43 50 -43
63 1 9 4 8 13 -3 7 -8 30 -37 52 -65z m2188 -17 c6 4 8 0 4 -10 -4 -11 2 -25
16 -38 17 -16 18 -19 4 -13 -17 6 -48 54 -46 71 0 4 3 2 6 -5 2 -6 10 -9 16
-5z m-1953 -152 c13 -14 21 -25 18 -25 -2 0 -15 11 -28 25 -13 14 -21 25 -18
25 2 0 15 -11 28 -25z m2029 -40 c0 -5 -6 1 -14 15 -8 14 -14 30 -14 35 0 6 6
-1 14 -15 8 -14 14 -29 14 -35z m-1968 -22 c8 -9 36 -34 62 -55 27 -21 45 -38
40 -38 -4 0 -2 -4 4 -8 16 -10 -15 -51 -102 -137 -85 -84 -235 -182 -257 -169
-7 4 -8 2 -4 -4 4 -7 1 -13 -8 -13 -24 -2 -29 -4 -61 -21 -16 -8 -36 -13 -44
-10 -9 3 -11 0 -6 -8 6 -10 2 -12 -13 -8 -12 3 -22 3 -24 -1 -7 -14 -96 -39
-109 -30 -10 6 -6 9 14 9 16 0 26 4 23 8 -3 5 19 15 49 22 32 8 62 22 75 37
19 22 19 26 6 51 -9 15 -15 23 -16 18 0 -5 -11 3 -25 18 -13 14 -27 26 -30 26
-7 0 -106 69 -122 86 -18 18 -16 37 6 51 16 10 20 9 25 -11 4 -16 20 -30 50
-42 24 -10 42 -22 40 -26 -3 -5 0 -8 5 -8 6 0 11 5 11 12 0 9 3 9 11 1 7 -7
26 -9 46 -6 21 4 38 1 42 -5 8 -14 142 11 183 33 14 8 34 15 43 15 10 0 13 5
9 12 -5 8 -2 9 10 5 10 -4 15 -3 11 3 -3 6 -2 10 2 10 17 0 91 75 96 98 3 12
2 20 -1 18 -4 -2 -22 16 -39 40 -31 41 -32 64 -2 27z m-371 -87 c0 -2 -8 -10
-17 -17 -16 -13 -17 -12 -4 4 13 16 21 21 21 13z m-175 -426 c-3 -5 -11 -10
-16 -10 -6 0 -7 5 -4 10 3 6 11 10 16 10 6 0 7 -4 4 -10z m38 -202 c12 -7 27
-13 32 -14 6 -1 21 -7 35 -13 l25 -12 -25 7 c-14 3 -33 6 -42 5 -10 0 -18 4
-18 8 0 4 -10 13 -22 19 -13 6 -19 11 -15 11 5 1 18 -4 30 -11z m126 -47 c10
-7 7 -9 -12 -8 -14 1 -23 5 -20 10 6 9 15 9 32 -2z m95 -16 c25 -4 43 -11 40
-17 -3 -5 6 -6 21 -2 32 8 49 -11 34 -37 -5 -10 -9 -29 -9 -43 0 -14 -4 -26
-10 -26 -5 0 -9 -3 -8 -7 3 -9 -26 -53 -54 -84 -10 -10 -18 -23 -18 -27 0 -15
-46 -52 -55 -45 -4 5 -5 2 -1 -4 4 -7 -5 -30 -19 -50 -27 -41 -32 -77 -12 -90
6 -4 100 -8 207 -9 167 -1 202 -4 245 -20 65 -25 103 -51 111 -76 3 -11 8 -17
11 -14 7 7 21 -8 73 -79 83 -112 109 -153 102 -161 -4 -4 -2 -4 4 -1 7 4 18
-3 27 -16 31 -48 161 -193 239 -269 33 -32 57 -61 54 -66 -3 -6 0 -9 8 -8 7 0
33 -16 57 -36 75 -62 155 -125 210 -165 30 -21 60 -43 67 -50 7 -7 17 -13 21
-13 5 0 20 -12 35 -26 14 -15 26 -24 26 -20 0 3 21 -10 48 -29 26 -19 77 -53
115 -75 37 -23 67 -43 67 -45 0 -2 -9 -9 -20 -15 -16 -9 -18 -8 -14 5 5 11 2
13 -10 9 -11 -4 -16 -1 -16 10 0 9 -6 13 -14 10 -14 -5 -21 -1 -59 32 -15 13
-50 28 -60 25 -4 -1 -2 9 4 21 11 21 11 22 -5 9 -14 -12 -19 -11 -34 3 -10 9
-24 16 -31 16 -6 0 -14 7 -17 15 -3 8 -16 17 -27 21 -12 4 -39 22 -60 40 -20
19 -42 34 -48 34 -5 0 -7 5 -3 12 4 7 3 8 -5 4 -7 -5 -19 0 -29 11 -21 23 -78
63 -90 63 -4 0 -22 15 -39 33 -42 44 -60 57 -67 49 -4 -3 -4 2 0 13 6 15 4 17
-11 11 -11 -4 -16 -4 -13 0 7 6 2 13 -42 49 -13 11 -20 14 -15 6 5 -10 4 -12
-3 -7 -7 4 -12 14 -12 22 0 8 -4 12 -10 9 -5 -3 -10 -1 -10 5 0 6 -7 18 -15
26 -8 9 -15 13 -15 9 0 -3 -12 6 -27 22 -16 15 -27 31 -26 35 2 4 0 7 -5 5
-10 -3 -58 46 -54 56 1 5 -2 6 -8 2 -5 -3 -15 5 -21 19 -7 14 -17 23 -22 19
-6 -4 -8 0 -4 11 5 12 3 16 -5 13 -12 -3 -35 17 -81 72 -10 12 -14 27 -10 34
4 7 -2 5 -12 -3 -19 -15 -19 -15 -1 15 17 28 17 29 1 13 -18 -16 -20 -16 -42
14 -13 18 -23 28 -23 24 0 -5 -9 3 -20 17 -49 62 -119 128 -141 133 -55 12
-136 21 -159 18 -14 -2 -88 -12 -164 -24 -153 -22 -221 -25 -211 -10 4 6 -3 6
-21 0 -25 -10 -26 -9 -13 6 13 16 12 16 -8 5 -20 -10 -22 -9 -16 5 4 12 3 15
-5 10 -8 -5 -12 2 -12 19 0 14 4 24 9 21 4 -3 8 5 7 17 -1 13 10 33 28 49 16
16 27 31 23 34 -8 8 18 34 35 34 9 0 10 2 1 8 -8 5 -8 12 3 26 10 14 14 16 14
5 1 -8 10 6 22 31 11 25 24 47 28 50 14 10 59 114 53 123 -4 6 -1 7 7 2 10 -6
12 -3 7 14 -3 14 0 24 9 28 12 4 12 8 2 20 -9 11 -9 17 3 25 12 8 12 9 0 6 -8
-2 -25 7 -38 19 -26 27 -30 38 -9 30 7 -3 34 -9 60 -12z m3507 -1512 c-5 -10
-20 -42 -33 -70 -14 -29 -27 -50 -30 -47 -3 3 -5 -3 -4 -13 0 -10 -5 -17 -11
-15 -7 1 -13 -4 -13 -11 0 -8 -13 -14 -32 -15 -18 0 -50 -5 -70 -10 -21 -6
-38 -7 -38 -3 0 3 -5 -2 -11 -11 -5 -10 -15 -18 -20 -18 -13 0 -78 -68 -91
-95 -5 -11 -16 -33 -25 -49 -8 -16 -16 -39 -17 -51 -1 -31 -14 -27 -58 18 -42
42 -45 47 -22 47 9 0 13 -5 9 -12 -4 -7 7 3 24 22 17 19 31 31 31 27 0 -11 70
63 70 75 0 5 5 6 10 3 6 -3 10 0 10 8 0 17 136 91 150 82 5 -3 11 -1 15 5 3 5
15 10 25 10 10 0 33 15 51 33 17 17 28 26 24 18 -6 -10 -4 -12 4 -7 7 5 10 14
7 22 -3 8 1 14 10 14 8 0 13 4 10 8 -3 5 2 18 10 30 18 26 28 29 15 5z m-1833
-120 c15 -10 29 -20 32 -23 3 -4 37 -24 75 -45 39 -21 94 -54 123 -72 28 -19
52 -31 52 -28 0 4 5 3 11 -1 8 -4 7 -9 -2 -16 -11 -7 -9 -8 5 -4 17 6 87 -28
94 -46 2 -5 8 -6 13 -2 5 3 26 -5 47 -18 20 -12 41 -23 45 -23 4 0 11 -6 16
-13 5 -8 10 -12 12 -10 3 1 25 -6 49 -16 96 -41 139 -64 132 -71 -4 -4 3 -5
14 -1 14 4 28 1 38 -9 9 -9 20 -14 25 -10 5 3 12 1 15 -3 3 -5 26 -15 51 -22
24 -7 42 -16 40 -21 -3 -4 3 -8 12 -7 10 0 50 -11 88 -25 39 -14 84 -28 100
-32 17 -5 35 -9 40 -11 92 -26 219 -35 260 -18 47 19 85 60 86 91 0 27 1 27 9
5 6 -13 6 -32 0 -47 -5 -14 -9 -29 -8 -33 3 -15 -22 -62 -34 -63 -7 0 -34 -2
-60 -5 -29 -3 -49 0 -54 7 -4 7 -9 8 -13 1 -10 -17 -191 25 -278 64 -17 8 -37
14 -45 14 -7 0 -33 10 -58 21 -25 12 -55 23 -68 24 -12 2 -50 17 -83 35 -33
17 -63 29 -68 26 -4 -3 -18 4 -30 15 -12 11 -25 18 -29 15 -5 -3 -16 4 -25 15
-19 21 -42 26 -32 7 4 -7 0 -5 -8 5 -8 9 -19 17 -26 17 -6 0 -11 6 -11 13 0 9
-2 9 -8 0 -6 -10 -17 -7 -42 10 -19 13 -56 31 -82 41 -31 11 -48 24 -48 34 0
15 -2 15 -10 2 -5 -8 -10 -10 -10 -5 0 6 -36 27 -80 49 -46 22 -77 43 -73 49
3 5 1 7 -5 3 -12 -7 -62 13 -62 26 0 5 -4 6 -10 3 -5 -3 -10 1 -10 9 0 10 -6
13 -15 10 -8 -4 -15 -1 -15 5 0 6 -7 11 -15 11 -8 0 -15 5 -15 11 0 5 -4 8 -9
5 -4 -3 -16 3 -26 14 -10 11 -24 20 -30 20 -16 0 -37 25 -28 33 9 10 10 9 41
-10z"/>
<path d="M606 4275 c8 -36 10 -38 23 -34 6 3 2 16 -10 34 l-20 30 7 -30z"/>
<path d="M1745 4260 c-3 -11 -2 -28 4 -37 8 -15 10 -11 11 20 0 41 -5 47 -15
17z"/>
<path d="M1807 4250 c10 -11 19 -20 21 -20 1 0 -2 9 -8 20 -6 11 -15 20 -20
20 -6 0 -2 -9 7 -20z"/>
<path d="M1679 4193 c0 -16 -2 -43 -3 -60 -2 -18 0 -33 4 -33 5 0 9 27 9 60 0
58 -8 87 -10 33z"/>
<path d="M1832 4212 c2 -4 11 -28 22 -55 10 -26 23 -47 28 -47 5 0 7 3 5 8 -3
4 -14 28 -26 55 -12 26 -24 47 -27 47 -3 0 -4 -3 -2 -8z"/>
<path d="M1745 4163 c3 -24 10 -89 16 -145 5 -56 15 -109 20 -117 9 -14 10
-13 5 2 -3 10 -11 70 -17 133 -6 64 -15 128 -20 143 -7 20 -8 17 -4 -16z"/>
<path d="M1885 4070 c3 -19 10 -39 15 -44 7 -7 7 -1 1 19 -17 54 -21 61 -16
25z"/>
<path d="M2525 4089 c-4 -6 -5 -12 -2 -15 2 -3 7 2 10 11 7 17 1 20 -8 4z"/>
<path d="M2627 4093 c-4 -3 -7 -11 -7 -17 0 -6 5 -5 12 2 6 6 9 14 7 17 -3 3
-9 2 -12 -2z"/>
<path d="M1671 4023 c0 -38 -3 -93 -5 -123 -4 -45 -3 -49 4 -20 7 30 8 27 6
-23 -1 -32 1 -60 6 -63 4 -3 8 63 8 145 0 83 -4 151 -9 151 -5 0 -9 -30 -10
-67z"/>
<path d="M2472 4033 c-18 -21 -32 -44 -32 -50 0 -7 -4 -13 -8 -13 -5 0 -14
-11 -20 -25 -7 -14 -16 -31 -22 -38 -23 -27 -90 -133 -90 -141 0 -10 34 23 41
39 3 9 67 113 102 169 7 10 24 32 40 48 23 25 35 48 24 48 -2 0 -18 -17 -35
-37z"/>
<path d="M2611 4034 c0 -11 3 -14 6 -6 3 7 2 16 -1 19 -3 4 -6 -2 -5 -13z"/>
<path d="M2578 3987 c-22 -59 -59 -149 -69 -168 -13 -27 -30 -210 -25 -270 4
-55 40 -176 56 -193 5 -5 8 0 7 13 -1 11 -4 21 -8 21 -14 0 -34 90 -33 155 0
47 -2 60 -7 40 -10 -44 -10 -11 1 90 10 100 30 186 41 180 4 -3 7 1 6 8 -1 32
4 48 13 42 6 -4 9 -3 8 2 -3 12 23 87 33 93 4 3 5 11 1 17 -5 7 -14 -5 -24
-30z"/>
<path d="M1915 3969 c8 -23 15 -51 16 -63 0 -12 3 -15 6 -8 6 16 -16 100 -28
108 -5 2 -2 -14 6 -37z"/>
<path d="M1780 3859 c0 -13 9 -87 20 -164 11 -77 24 -174 29 -215 l9 -75 -5
90 c-2 50 -9 117 -13 150 -5 33 -12 83 -15 110 -11 89 -15 119 -20 124 -3 2
-5 -7 -5 -20z"/>
<path d="M1946 3868 c3 -5 10 -6 15 -3 13 9 11 12 -6 12 -8 0 -12 -4 -9 -9z"/>
<path d="M1978 3775 c15 -41 28 -72 31 -70 2 3 -3 24 -12 47 -8 24 -18 55 -21
71 -4 15 -10 27 -15 27 -5 0 3 -34 17 -75z"/>
<path d="M1684 3743 c2 -23 0 -43 -4 -45 -5 -2 -5 -23 -1 -48 8 -41 6 -196 -2
-260 -9 -72 -18 -89 -51 -98 -33 -10 -146 5 -146 19 0 4 -8 5 -17 3 -10 -3
-53 7 -96 21 -43 14 -84 25 -93 25 -8 0 -12 4 -9 10 3 5 0 7 -8 4 -8 -3 -43 5
-78 16 -35 12 -95 28 -134 36 -38 7 -79 15 -91 18 -52 11 -214 10 -214 -2 0
-4 33 -6 73 -4 102 5 223 -21 565 -122 68 -20 154 -39 192 -42 59 -6 70 -4 88
14 11 11 25 43 31 71 13 63 13 378 0 406 -7 15 -8 10 -5 -22z"/>
<path d="M2277 3730 c-19 -22 -21 -30 -9 -30 5 0 14 11 20 25 14 30 12 31 -11
5z"/>
<path d="M2020 3683 c0 -10 31 -56 50 -75 22 -22 62 -28 87 -15 32 17 105 88
98 95 -3 3 -21 -10 -39 -29 -58 -58 -65 -61 -102 -55 -25 5 -41 17 -61 46 -25
40 -33 47 -33 33z"/>
<path d="M2422 3614 c0 -47 1 -47 8 -14 5 19 5 41 1 49 -5 8 -8 -6 -9 -35z"/>
<path d="M1989 3593 c11 -23 25 -44 30 -47 11 -7 -25 64 -40 78 -6 6 -2 -8 10
-31z"/>
<path d="M1931 3604 c0 -11 3 -14 6 -6 3 7 2 16 -1 19 -3 4 -6 -2 -5 -13z"/>
<path d="M1942 3555 c0 -16 2 -22 5 -12 2 9 2 23 0 30 -3 6 -5 -1 -5 -18z"/>
<path d="M2296 3533 c-6 -14 -5 -15 5 -6 7 7 10 15 7 18 -3 3 -9 -2 -12 -12z"/>
<path d="M2245 3447 c-25 -29 -26 -40 -2 -18 15 14 27 26 27 28 0 7 -16 1 -25
-10z"/>
<path d="M2344 3400 c2 -36 7 -73 11 -82 4 -9 4 -21 2 -25 -3 -5 -1 -38 4 -73
5 -36 10 -82 12 -102 1 -20 5 -39 8 -43 3 -3 4 14 2 37 -2 24 -5 68 -8 98 l-4
55 14 -35 15 -35 -6 35 c-4 19 -11 41 -16 48 -6 6 -8 12 -4 12 3 0 1 11 -4 24
-5 14 -10 47 -11 75 -2 28 -6 56 -11 63 -5 8 -7 -14 -4 -52z"/>
<path d="M2440 3455 c0 -5 5 -17 10 -25 5 -8 10 -10 10 -5 0 6 -5 17 -10 25
-5 8 -10 11 -10 5z"/>
<path d="M2080 3433 c0 -6 8 -17 18 -24 16 -13 16 -13 2 6 -8 11 -16 22 -17
24 -2 2 -3 0 -3 -6z"/>
<path d="M686 3421 c-4 -5 3 -7 14 -4 23 6 26 13 6 13 -8 0 -17 -4 -20 -9z"/>
<path d="M825 3399 c22 -4 51 -8 65 -7 23 0 22 1 -5 8 -16 4 -46 8 -65 8 l-35
0 40 -9z"/>
<path d="M1991 3394 c0 -11 3 -14 6 -6 3 7 2 16 -1 19 -3 4 -6 -2 -5 -13z"/>
<path d="M2461 3400 c0 -8 4 -22 9 -30 12 -18 12 -2 0 25 -6 13 -9 15 -9 5z"/>
<path d="M658 3376 c8 -29 59 -83 178 -191 135 -122 255 -248 250 -262 -3 -7
1 -10 9 -7 7 3 16 -3 20 -15 3 -12 11 -21 17 -21 5 0 8 -7 4 -15 -3 -8 -1 -15
3 -15 5 0 12 -7 15 -15 5 -14 4 -14 -16 0 -51 35 -184 13 -337 -57 -36 -16
-75 -33 -86 -37 -11 -5 -31 -13 -45 -19 -39 -18 -84 -35 -95 -37 -5 0 -17 -4
-25 -7 -12 -5 -60 -19 -80 -22 -3 -1 -9 -4 -15 -7 -10 -6 -74 -25 -164 -49
-23 -6 -41 -13 -39 -16 13 -13 398 106 488 151 51 25 152 66 223 89 90 30 161
15 210 -43 36 -43 34 -20 -4 54 -52 99 -109 162 -372 409 -73 69 -127 127
-127 138 0 10 -4 18 -9 18 -5 0 -6 -11 -3 -24z"/>
<path d="M1843 3385 c3 -11 8 -42 12 -70 4 -27 11 -54 15 -60 5 -5 10 -21 13
-35 2 -14 3 -7 0 15 -6 60 -27 153 -37 162 -5 4 -6 -1 -3 -12z"/>
<path d="M2205 3390 c-3 -5 -1 -10 4 -10 6 0 11 5 11 10 0 6 -2 10 -4 10 -3 0
-8 -4 -11 -10z"/>
<path d="M920 3386 c0 -2 14 -6 30 -8 17 -3 30 -1 30 4 0 4 -13 8 -30 8 -16 0
-30 -2 -30 -4z"/>
<path d="M2100 3386 c0 -2 7 -7 16 -10 8 -3 12 -2 9 4 -6 10 -25 14 -25 6z"/>
<path d="M765 3370 c3 -5 13 -10 21 -10 8 0 12 5 9 10 -3 6 -13 10 -21 10 -8
0 -12 -4 -9 -10z"/>
<path d="M995 3373 c6 -6 24 -14 40 -17 20 -5 27 -4 20 3 -5 5 -23 13 -40 17
-20 4 -27 3 -20 -3z"/>
<path d="M2160 3370 l-25 -8 28 -1 c15 -1 27 4 27 9 0 6 -1 10 -2 9 -2 -1 -14
-5 -28 -9z"/>
<path d="M817 3359 c7 -7 15 -10 18 -7 3 3 -2 9 -12 12 -14 6 -15 5 -6 -5z"/>
<path d="M1070 3351 c0 -10 59 -30 64 -22 3 3 -11 11 -30 17 -19 6 -34 8 -34
5z"/>
<path d="M846 3343 c-3 -4 11 -12 31 -19 48 -17 52 -12 9 9 -19 8 -37 13 -40
10z"/>
<path d="M2006 3332 c-2 -4 1 -18 8 -31 9 -15 16 -20 20 -12 4 6 2 11 -4 11
-6 0 -8 5 -5 10 3 6 1 10 -5 10 -6 0 -8 5 -5 10 3 6 4 10 1 10 -3 0 -7 -3 -10
-8z"/>
<path d="M1170 3303 c19 -9 62 -30 95 -46 33 -16 54 -23 47 -15 -6 8 -32 23
-57 34 -25 10 -45 22 -45 27 0 5 -7 7 -15 4 -8 -4 -17 -2 -20 3 -4 6 -14 10
-23 10 -9 0 -1 -8 18 -17z"/>
<path d="M2490 3309 c0 -5 5 -7 10 -4 6 3 10 8 10 11 0 2 -4 4 -10 4 -5 0 -10
-5 -10 -11z"/>
<path d="M930 3300 c0 -5 12 -13 28 -16 15 -4 44 -18 65 -31 20 -13 37 -20 37
-15 0 7 -111 72 -124 72 -3 0 -6 -4 -6 -10z"/>
<path d="M2560 3301 c0 -6 4 -11 9 -11 5 0 11 -13 15 -30 3 -16 11 -30 18 -30
9 0 9 3 0 12 -7 7 -12 20 -12 29 0 9 -7 22 -15 29 -10 9 -15 9 -15 1z"/>
<path d="M1078 3223 c7 -3 16 -2 19 1 4 3 -2 6 -13 5 -11 0 -14 -3 -6 -6z"/>
<path d="M1335 3220 c3 -5 11 -10 16 -10 6 0 7 5 4 10 -3 6 -11 10 -16 10 -6
0 -7 -4 -4 -10z"/>
<path d="M1120 3205 c7 -8 17 -15 22 -15 6 0 5 7 -2 15 -7 8 -17 15 -22 15 -6
0 -5 -7 2 -15z"/>
<path d="M2063 3207 c4 -11 10 -30 13 -43 3 -13 10 -24 15 -24 4 0 1 17 -8 38
-16 38 -31 61 -20 29z"/>
<path d="M2543 3181 c12 -22 23 -38 25 -37 5 6 -31 76 -39 76 -4 0 2 -18 14
-39z"/>
<path d="M2610 3212 c0 -7 7 -27 16 -44 9 -17 21 -49 28 -71 11 -37 36 -63 36
-37 0 6 -4 9 -9 6 -11 -7 -32 73 -24 88 3 6 2 8 -2 3 -5 -4 -17 10 -26 30 -10
21 -18 32 -19 25z"/>
<path d="M1385 3190 c3 -5 8 -10 11 -10 2 0 4 5 4 10 0 6 -5 10 -11 10 -5 0
-7 -4 -4 -10z"/>
<path d="M1160 3182 c0 -4 13 -13 28 -20 16 -6 38 -21 51 -33 12 -12 25 -18
28 -15 7 7 10 4 -49 44 -48 33 -58 37 -58 24z"/>
<path d="M1415 3170 c3 -5 8 -10 11 -10 2 0 4 5 4 10 0 6 -5 10 -11 10 -5 0
-7 -4 -4 -10z"/>
<path d="M1890 3171 c0 -7 7 -25 15 -40 8 -16 11 -32 7 -36 -4 -5 -1 -5 5 -1
10 6 10 15 -2 44 -18 41 -25 51 -25 33z"/>
<path d="M1440 3151 c0 -6 6 -11 14 -11 8 0 16 -7 20 -15 3 -8 10 -15 16 -15
19 0 10 16 -20 33 -17 10 -30 13 -30 8z"/>
<path d="M1714 3137 c36 -59 76 -128 76 -133 0 -3 9 -15 21 -27 18 -19 18 -15
-5 28 -41 77 -64 114 -88 138 l-22 22 18 -28z"/>
<path d="M1750 3151 c0 -5 5 -13 10 -16 6 -3 10 -2 10 4 0 5 -4 13 -10 16 -5
3 -10 2 -10 -4z"/>
<path d="M2093 3117 c10 -7 24 -30 32 -52 8 -23 14 -31 15 -20 0 25 -36 85
-52 85 -6 0 -4 -6 5 -13z"/>
<path d="M1797 3090 c9 -16 21 -30 26 -30 4 0 0 14 -10 30 -9 17 -21 30 -26
30 -4 0 0 -13 10 -30z"/>
<path d="M2581 3110 c0 -8 4 -22 9 -30 12 -18 12 -2 0 25 -6 13 -9 15 -9 5z"/>
<path d="M1285 3097 c3 -7 18 -21 33 -30 15 -9 47 -34 72 -57 40 -35 60 -47
60 -36 0 4 -139 119 -157 130 -8 4 -11 2 -8 -7z"/>
<path d="M1510 3104 c0 -5 35 -40 77 -79 42 -38 71 -60 65 -50 -9 18 -55 64
-120 119 -12 11 -22 15 -22 10z"/>
<path d="M1921 3073 c0 -5 7 -24 15 -43 l14 -35 -5 34 c-3 18 -5 37 -5 42 0 5
-4 9 -10 9 -5 0 -10 -3 -9 -7z"/>
<path d="M2381 3050 c0 -8 4 -24 9 -35 5 -13 9 -14 9 -5 0 8 -4 24 -9 35 -5
13 -9 14 -9 5z"/>
<path d="M2060 3041 c0 -6 4 -13 10 -16 6 -3 7 1 4 9 -7 18 -14 21 -14 7z"/>
<path d="M2605 3041 c-3 -5 -1 -12 5 -16 5 -3 10 1 10 9 0 18 -6 21 -15 7z"/>
<path d="M1847 3015 c10 -13 21 -25 26 -25 4 0 7 -7 7 -15 0 -8 5 -15 10 -15
6 0 10 -8 11 -17 0 -10 3 -13 5 -6 5 11 -15 49 -46 85 -22 27 -33 21 -13 -7z"/>
<path d="M2677 3032 c6 -4 15 -20 18 -35 7 -26 25 -48 25 -29 0 19 -32 72 -43
72 -9 0 -9 -2 0 -8z"/>
<path d="M2080 3006 c0 -15 82 -176 90 -176 5 0 7 -6 4 -14 -3 -8 -1 -23 5
-33 9 -16 10 -15 11 9 0 31 -19 78 -32 78 -4 0 -7 4 -5 8 2 8 -61 132 -69 132
-2 0 -4 -2 -4 -4z"/>
<path d="M1955 2968 c4 -13 11 -27 16 -33 5 -5 4 5 -2 23 -12 36 -24 44 -14
10z"/>
<path d="M2402 2970 c0 -14 2 -19 5 -12 2 6 2 18 0 25 -3 6 -5 1 -5 -13z"/>
<path d="M2455 2981 c-3 -5 -1 -12 5 -16 5 -3 10 1 10 9 0 18 -6 21 -15 7z"/>
<path d="M2631 2985 c1 -19 18 -51 18 -35 0 8 -4 22 -9 30 -5 8 -9 11 -9 5z"/>
<path d="M1457 2957 c-2 -7 9 -22 24 -35 35 -29 37 -20 5 19 -15 17 -26 24
-29 16z"/>
<path d="M1345 2909 c28 -30 65 -73 82 -94 18 -21 35 -36 38 -33 8 7 -13 34
-80 103 -71 73 -100 90 -40 24z"/>
<path d="M1670 2957 c0 -4 35 -47 78 -96 43 -48 98 -118 122 -155 25 -36 48
-66 53 -66 4 0 7 -6 7 -13 0 -7 8 -22 18 -33 9 -10 28 -39 41 -64 13 -25 30
-52 38 -61 7 -9 10 -19 6 -24 -5 -4 -2 -5 5 -1 7 5 12 1 12 -9 0 -9 7 -29 15
-43 22 -41 75 -161 75 -172 0 -6 4 -10 9 -10 5 0 -4 37 -21 83 -16 45 -35 96
-41 112 -6 17 -18 43 -28 59 -10 16 -15 35 -12 42 3 8 0 14 -6 14 -6 0 -11 -5
-11 -11 0 -6 -7 -4 -15 5 -17 17 -20 36 -5 36 6 0 10 -5 10 -12 0 -6 3 -9 6
-5 7 6 -24 96 -38 112 -13 14 2 -46 15 -63 7 -9 7 -16 0 -23 -8 -8 -15 -4 -24
12 -6 13 -15 26 -18 29 -3 3 -31 43 -62 90 -32 47 -74 104 -95 128 -96 107
-134 146 -134 139z"/>
<path d="M1830 2944 c0 -7 7 -25 15 -40 12 -24 15 -26 15 -8 0 21 -29 68 -30
48z"/>
<path d="M1916 2922 c-3 -5 1 -15 9 -22 16 -14 20 -3 6 19 -5 8 -11 9 -15 3z"/>
<path d="M2410 2909 c0 -11 4 -18 10 -14 5 3 7 12 3 20 -7 21 -13 19 -13 -6z"/>
<path d="M2470 2921 c0 -6 4 -13 10 -16 6 -3 7 1 4 9 -7 18 -14 21 -14 7z"/>
<path d="M1980 2903 c0 -12 5 -25 10 -28 13 -8 13 15 0 35 -8 12 -10 11 -10
-7z"/>
<path d="M2204 2900 c0 -11 4 -20 8 -20 4 0 17 -18 28 -40 11 -22 23 -40 26
-40 3 0 -6 21 -20 46 -14 26 -26 53 -26 60 0 8 -4 14 -8 14 -4 0 -8 -9 -8 -20z"/>
<path d="M2730 2913 c0 -12 63 -164 67 -160 2 2 -10 37 -26 77 -17 40 -28 77
-25 82 3 4 0 8 -5 8 -6 0 -11 -3 -11 -7z"/>
<path d="M1520 2883 c0 -5 12 -21 28 -38 53 -59 172 -241 172 -265 0 -4 7 -13
15 -20 8 -7 15 -10 15 -7 0 11 -97 178 -117 201 -13 15 -23 30 -23 34 0 4 -16
25 -35 47 -19 22 -35 43 -35 48 0 4 -4 7 -10 7 -5 0 -10 -3 -10 -7z"/>
<path d="M1870 2881 c0 -6 9 -29 20 -51 11 -22 20 -46 20 -55 0 -8 4 -15 9
-15 5 0 15 -16 21 -35 11 -32 30 -48 30 -25 0 6 -4 10 -10 10 -5 0 -10 9 -10
19 0 11 -7 26 -15 35 -8 8 -15 19 -15 25 0 5 -11 31 -25 57 -14 26 -25 42 -25
35z"/>
<path d="M1940 2870 c0 -5 4 -10 8 -10 5 0 19 -21 32 -47 13 -27 28 -51 34
-55 6 -4 7 -8 2 -8 -5 0 -4 -6 2 -13 6 -7 36 -63 66 -125 54 -108 83 -152 50
-74 -8 20 -38 91 -66 157 -27 66 -54 125 -60 130 -6 6 -5 -1 2 -13 6 -13 9
-26 7 -29 -5 -5 -38 51 -37 62 1 7 -27 35 -34 35 -3 0 -6 -4 -6 -10z"/>
<path d="M2431 2864 c0 -11 3 -14 6 -6 3 7 2 16 -1 19 -3 4 -6 -2 -5 -13z"/>
<path d="M2491 2864 c0 -11 3 -14 6 -6 3 7 2 16 -1 19 -3 4 -6 -2 -5 -13z"/>
<path d="M1995 2850 c-3 -5 -1 -10 4 -10 6 0 11 5 11 10 0 6 -2 10 -4 10 -3 0
-8 -4 -11 -10z"/>
<path d="M965 2780 c-22 -5 -53 -16 -70 -25 -33 -18 -37 -19 60 7 22 6 44 15
50 19 5 5 7 9 5 8 -3 -1 -23 -5 -45 -9z"/>
<path d="M1021 2786 c12 -10 60 -16 54 -6 -3 5 -18 10 -32 10 -15 0 -24 -2
-22 -4z"/>
<path d="M2270 2771 c0 -5 7 -15 17 -22 15 -13 15 -12 4 9 -12 23 -21 28 -21
13z"/>
<path d="M1135 2746 c28 -13 73 -47 100 -75 28 -28 54 -51 58 -51 16 0 -84 97
-118 116 -19 10 -35 22 -35 26 0 5 -12 8 -27 8 -24 0 -21 -3 22 -24z"/>
<path d="M2193 2736 c5 -16 24 -18 30 -4 3 9 -3 14 -14 14 -11 0 -18 -5 -16
-10z"/>
<path d="M820 2730 c-8 -4 -49 -24 -90 -44 -41 -20 -68 -35 -60 -32 29 9 181
74 187 80 9 9 -19 6 -37 -4z"/>
<path d="M2793 2734 c3 -6 8 -23 11 -38 3 -16 8 -31 12 -35 4 -3 4 10 0 29 -3
19 -11 39 -18 45 -7 7 -9 7 -5 -1z"/>
<path d="M2722 2700 c0 -14 2 -19 5 -12 2 6 2 18 0 25 -3 6 -5 1 -5 -13z"/>
<path d="M1510 2696 c0 -8 4 -17 9 -20 5 -4 7 3 4 14 -6 23 -13 26 -13 6z"/>
<path d="M2540 2694 c0 -10 5 -26 10 -34 8 -11 9 -7 4 15 -8 37 -14 45 -14 19z"/>
<path d="M1955 2670 c3 -5 11 -10 16 -10 6 0 7 5 4 10 -3 6 -11 10 -16 10 -6
0 -7 -4 -4 -10z"/>
<path d="M2826 2643 c-3 -10 -2 -31 3 -48 8 -27 8 -25 7 17 -1 53 -2 56 -10
31z"/>
<path d="M565 2630 c-27 -10 -43 -18 -35 -19 8 0 40 9 70 19 30 10 46 18 35
18 -11 0 -42 -9 -70 -18z"/>
<path d="M1590 2620 c6 -11 13 -20 16 -20 2 0 0 9 -6 20 -6 11 -13 20 -16 20
-2 0 0 -9 6 -20z"/>
<path d="M1840 2634 c0 -3 16 -40 36 -81 19 -41 44 -105 56 -142 11 -36 24
-70 29 -76 14 -14 11 9 -6 41 -9 18 -13 41 -9 62 4 20 2 32 -5 32 -6 0 -11 6
-11 14 0 8 -18 46 -41 85 -38 65 -49 81 -49 65z"/>
<path d="M1555 2620 c3 -5 8 -10 11 -10 2 0 4 5 4 10 0 6 -5 10 -11 10 -5 0
-7 -4 -4 -10z"/>
<path d="M2741 2620 c0 -8 4 -22 9 -30 12 -18 12 -2 0 25 -6 13 -9 15 -9 5z"/>
<path d="M477 2614 c-3 -4 -32 -12 -64 -19 -37 -8 -48 -13 -30 -14 35 -1 116
19 123 30 6 10 -19 12 -29 3z"/>
<path d="M1030 2599 c-41 -10 -131 -29 -200 -43 -91 -18 -113 -25 -81 -25 24
-1 67 6 95 14 156 44 334 66 405 51 l26 -6 -24 14 c-34 19 -134 17 -221 -5z"/>
<path d="M2256 2603 c-6 -14 -5 -15 5 -6 7 7 10 15 7 18 -3 3 -9 -2 -12 -12z"/>
<path d="M2512 2560 c0 -14 2 -19 5 -12 2 6 2 18 0 25 -3 6 -5 1 -5 -13z"/>
<path d="M2752 2550 c0 -14 2 -19 5 -12 2 6 2 18 0 25 -3 6 -5 1 -5 -13z"/>
<path d="M242 2550 c6 -20 90 -60 158 -76 59 -13 94 -18 210 -29 121 -10 167
-17 179 -24 17 -11 -18 -66 -97 -150 -66 -70 -81 -112 -51 -142 9 -9 14 -21
11 -25 -4 -4 -2 -5 3 -2 13 7 213 -19 240 -31 11 -5 39 -16 61 -26 48 -20 140
-108 130 -124 -4 -7 -1 -9 8 -5 9 3 17 -2 21 -15 3 -12 10 -21 15 -21 5 0 12
-10 16 -22 5 -17 79 -119 137 -188 6 -8 11 -21 9 -28 -2 -8 1 -12 6 -9 7 5 42
-26 42 -38 0 -5 56 -68 137 -153 35 -35 60 -69 56 -75 -3 -6 -1 -7 6 -3 7 5
29 -9 56 -36 24 -23 56 -53 72 -65 15 -12 46 -37 68 -54 39 -31 38 -30 -5 12
-25 24 -88 85 -140 134 -129 122 -214 215 -285 310 -33 44 -62 82 -65 85 -3 3
-17 21 -30 40 -13 19 -27 37 -30 40 -3 3 -16 21 -28 40 -19 32 -38 56 -91 115
-30 34 -64 59 -111 81 -63 30 -74 33 -184 43 -155 15 -162 38 -51 162 75 84
111 141 100 158 -3 5 -31 12 -63 16 -349 38 -419 52 -486 98 -18 13 -27 15
-24 7z"/>
<path d="M2835 2540 c3 -14 8 -49 12 -78 3 -29 9 -48 13 -42 8 13 -3 83 -20
120 l-11 25 6 -25z"/>
<path d="M385 2540 c30 -8 122 -13 114 -6 -2 2 -35 6 -74 9 -42 3 -58 2 -40
-3z"/>
<path d="M1750 2533 c0 -5 7 -18 15 -29 12 -16 14 -16 15 -3 0 9 -7 22 -15 29
-8 7 -15 8 -15 3z"/>
<path d="M563 2523 c20 -2 54 -2 75 0 20 2 3 4 -38 4 -41 0 -58 -2 -37 -4z"/>
<path d="M1610 2513 c0 -6 8 -17 18 -24 16 -13 16 -13 2 6 -8 11 -16 22 -17
24 -2 2 -3 0 -3 -6z"/>
<path d="M2370 2513 c0 -5 5 -15 10 -23 8 -12 10 -11 10 8 0 12 -4 22 -10 22
-5 0 -10 -3 -10 -7z"/>
<path d="M2587 2513 c-3 -5 -1 -17 4 -28 7 -17 8 -17 8 8 1 27 -4 34 -12 20z"/>
<path d="M1666 2497 c3 -10 9 -15 12 -12 3 3 0 11 -7 18 -10 9 -11 8 -5 -6z"/>
<path d="M2526 2497 c3 -10 9 -15 12 -12 3 3 0 11 -7 18 -10 9 -11 8 -5 -6z"/>
<path d="M1475 2470 c5 -8 30 -48 56 -88 27 -40 51 -82 54 -93 4 -10 11 -17
16 -14 5 4 9 -1 9 -9 0 -9 5 -16 10 -16 17 0 11 26 -10 45 -12 11 -27 33 -35
50 -8 16 -26 42 -40 57 -14 15 -25 31 -25 36 0 5 -10 17 -22 28 -13 12 -18 13
-13 4z"/>
<path d="M1778 2468 c7 -7 12 -20 12 -29 0 -10 4 -19 8 -21 4 -1 18 -32 31
-67 13 -36 31 -72 39 -80 14 -15 15 -14 7 4 -4 11 -13 35 -19 53 -6 17 -14 32
-18 32 -5 0 -8 5 -8 11 0 21 -43 109 -53 109 -7 0 -7 -4 1 -12z"/>
<path d="M2398 2464 c-4 -5 0 -18 8 -29 15 -20 17 -12 5 19 -4 11 -10 15 -13
10z"/>
<path d="M2542 2460 c0 -8 3 -24 7 -34 7 -18 8 -18 14 -3 3 9 2 17 -3 17 -5 0
-11 8 -13 18 -3 11 -5 12 -5 2z"/>
<path d="M1341 2432 c-1 -7 10 -32 23 -55 49 -88 126 -239 126 -250 0 -7 9
-25 20 -42 13 -20 20 -25 20 -13 0 9 -7 23 -15 32 -8 8 -15 20 -15 26 0 13
-121 253 -132 260 -4 3 -11 17 -17 30 -5 14 -10 19 -10 12z"/>
<path d="M1402 2398 c13 -18 28 -38 35 -45 6 -7 33 -49 59 -93 26 -45 52 -84
57 -87 13 -8 9 1 -33 70 -19 32 -40 66 -45 76 -19 34 -80 110 -88 111 -4 0 3
-15 15 -32z"/>
<path d="M1700 2420 c0 -17 17 -47 23 -40 2 3 -2 16 -10 30 -7 14 -13 18 -13
10z"/>
<path d="M1950 2420 c0 -6 8 -23 18 -37 9 -15 22 -43 28 -62 8 -22 12 -28 13
-16 0 11 -10 44 -24 73 -23 50 -35 64 -35 42z"/>
<path d="M2601 2404 c0 -11 3 -14 6 -6 3 7 2 16 -1 19 -3 4 -6 -2 -5 -13z"/>
<path d="M2315 2401 c-3 -5 -1 -12 5 -16 5 -3 10 1 10 9 0 18 -6 21 -15 7z"/>
<path d="M826 2385 c-9 -26 -7 -32 5 -12 6 10 9 21 6 23 -2 3 -7 -2 -11 -11z"/>
<path d="M872 2375 c0 -16 2 -22 5 -12 2 9 2 23 0 30 -3 6 -5 -1 -5 -18z"/>
<path d="M2421 2384 c0 -11 3 -14 6 -6 3 7 2 16 -1 19 -3 4 -6 -2 -5 -13z"/>
<path d="M2561 2395 c1 -19 18 -51 18 -35 0 8 -4 22 -9 30 -5 8 -9 11 -9 5z"/>
<path d="M2866 2320 c3 -41 7 -76 10 -79 8 -8 2 103 -7 129 -5 16 -6 -2 -3
-50z"/>
<path d="M2431 2345 c1 -19 18 -51 18 -35 0 8 -4 22 -9 30 -5 8 -9 11 -9 5z"/>
<path d="M2621 2334 c0 -11 3 -14 6 -6 3 7 2 16 -1 19 -3 4 -6 -2 -5 -13z"/>
<path d="M872 2320 c0 -14 2 -19 5 -12 2 6 2 18 0 25 -3 6 -5 1 -5 -13z"/>
<path d="M2380 2314 c0 -8 5 -12 10 -9 6 4 8 11 5 16 -9 14 -15 11 -15 -7z"/>
<path d="M2781 2314 c0 -11 3 -14 6 -6 3 7 2 16 -1 19 -3 4 -6 -2 -5 -13z"/>
<path d="M1969 2303 c5 -10 17 -46 27 -80 9 -35 21 -63 27 -63 5 0 6 8 2 18
-4 9 -8 23 -8 30 0 6 -4 12 -8 12 -4 0 -10 15 -14 33 -11 54 -16 67 -26 67 -6
0 -6 -7 0 -17z"/>
<path d="M2624 2295 c3 -11 6 -41 7 -67 2 -26 6 -45 10 -43 9 6 -1 96 -13 115
-7 12 -8 10 -4 -5z"/>
<path d="M2592 2280 c0 -14 2 -19 5 -12 2 6 2 18 0 25 -3 6 -5 1 -5 -13z"/>
<path d="M848 2251 c-24 -51 -23 -64 3 -22 11 18 19 39 17 46 -2 7 -11 -4 -20
-24z"/>
<path d="M2783 2245 c0 -27 2 -38 4 -22 2 15 2 37 0 50 -2 12 -4 0 -4 -28z"/>
<path d="M2014 2264 c3 -9 9 -27 12 -40 3 -13 11 -24 16 -24 6 0 7 8 3 18 -4
9 -10 27 -12 40 -3 12 -10 22 -15 22 -6 0 -7 -7 -4 -16z"/>
<path d="M2400 2271 c0 -6 4 -13 10 -16 6 -3 7 1 4 9 -7 18 -14 21 -14 7z"/>
<path d="M2455 2271 c-3 -5 -1 -12 5 -16 5 -3 10 1 10 9 0 18 -6 21 -15 7z"/>
<path d="M1060 2252 c0 -4 20 -13 44 -20 66 -17 184 -121 254 -223 13 -19 59
-90 104 -159 122 -188 198 -291 210 -284 6 4 8 2 5 -3 -16 -25 226 -295 348
-388 38 -29 29 -18 -38 50 -81 81 -134 140 -211 238 -16 20 -34 34 -39 30 -6
-3 -7 -1 -4 4 4 6 -5 28 -20 49 -78 114 -163 244 -163 249 0 4 -11 21 -25 39
-14 18 -25 36 -25 40 0 4 -5 12 -11 19 -5 7 -37 54 -71 105 -77 120 -178 221
-244 245 -51 18 -114 23 -114 9z m172 -61 c86 -73 141 -137 133 -151 -6 -9
-11 -6 -20 10 -7 12 -43 53 -80 91 -65 65 -83 93 -33 50z m182 -208 c15 -27
45 -75 66 -108 22 -33 43 -67 47 -75 3 -8 9 -17 12 -20 3 -3 14 -21 24 -40
l18 -35 -20 25 c-12 14 -25 30 -31 37 -5 7 -10 15 -10 19 0 4 -24 43 -54 88
-76 116 -99 156 -88 156 5 0 21 -21 36 -47z m194 -308 c6 -14 10 -25 8 -25 -2
0 -11 11 -20 25 -9 14 -13 25 -8 25 5 0 14 -11 20 -25z m33 -52 c13 -16 12
-17 -3 -4 -17 13 -22 21 -14 21 2 0 10 -8 17 -17z"/>
<path d="M1770 2254 c0 -6 7 -19 15 -30 8 -10 14 -14 14 -9 0 6 -6 19 -14 29
-8 11 -15 15 -15 10z"/>
<path d="M1881 2242 c-1 -7 6 -29 14 -49 8 -19 15 -44 15 -55 0 -10 4 -17 9
-14 5 4 12 -8 16 -26 8 -40 56 -150 62 -144 4 4 -16 58 -38 98 -5 10 -9 23 -9
28 0 6 -10 32 -21 58 -12 26 -28 63 -35 82 -7 19 -13 29 -13 22z"/>
<path d="M1636 2215 c8 -37 14 -45 14 -19 0 10 -5 26 -10 34 -8 11 -9 7 -4
-15z"/>
<path d="M2472 2210 c0 -14 2 -19 5 -12 2 6 2 18 0 25 -3 6 -5 1 -5 -13z"/>
<path d="M2882 2210 c0 -14 2 -19 5 -12 2 6 2 18 0 25 -3 6 -5 1 -5 -13z"/>
<path d="M1660 2211 c0 -6 4 -13 10 -16 6 -3 7 1 4 9 -7 18 -14 21 -14 7z"/>
<path d="M680 2199 c0 -5 5 -7 10 -4 6 3 10 8 10 11 0 2 -4 4 -10 4 -5 0 -10
-5 -10 -11z"/>
<path d="M797 2184 c-3 -3 -30 -10 -59 -14 -49 -7 -50 -8 -13 -8 35 -1 119 25
89 27 -6 1 -13 -2 -17 -5z"/>
<path d="M1800 2176 c0 -8 4 -17 9 -20 5 -4 7 3 4 14 -6 23 -13 26 -13 6z"/>
<path d="M2046 2177 c3 -10 9 -15 12 -12 3 3 0 11 -7 18 -10 9 -11 8 -5 -6z"/>
<path d="M2780 2144 c0 -27 3 -35 9 -25 5 8 8 23 5 34 -6 36 -14 31 -14 -9z"/>
<path d="M2486 2162 c-2 -4 -1 -14 5 -22 7 -12 9 -10 9 8 0 23 -5 28 -14 14z"/>
<path d="M2625 2150 c21 -117 46 -276 48 -309 1 -21 6 -37 10 -34 8 5 2 87
-15 198 -6 39 -11 84 -11 102 0 18 -5 30 -10 26 -5 -3 -6 4 -2 18 4 17 3 20
-3 10 -8 -11 -10 -11 -15 0 -4 8 -4 3 -2 -11z"/>
<path d="M2886 2135 c8 -50 14 -58 14 -19 0 16 -5 36 -11 44 -7 11 -8 4 -3
-25z"/>
<path d="M1607 2053 c30 -60 58 -112 64 -118 5 -5 9 -18 10 -30 0 -11 3 -14 6
-7 5 13 -34 101 -50 113 -5 3 -7 8 -6 10 5 7 -61 139 -70 139 -4 0 16 -48 46
-107z"/>
<path d="M2391 2144 c0 -11 3 -14 6 -6 3 7 2 16 -1 19 -3 4 -6 -2 -5 -13z"/>
<path d="M1700 2140 c0 -5 5 -10 11 -10 5 0 7 5 4 10 -3 6 -8 10 -11 10 -2 0
-4 -4 -4 -10z"/>
<path d="M2026 2135 c4 -8 7 -15 9 -15 2 0 5 7 9 15 3 9 0 15 -9 15 -9 0 -12
-6 -9 -15z"/>
<path d="M1831 2094 c0 -11 3 -14 6 -6 3 7 2 16 -1 19 -3 4 -6 -2 -5 -13z"/>
<path d="M2037 2104 c-4 -4 -3 -12 3 -18 5 -7 12 -27 15 -46 9 -50 19 -52 12
-2 -3 24 -1 42 5 42 5 0 7 -3 5 -7 -6 -10 12 -57 19 -50 9 8 -16 87 -27 87 -6
0 -7 -4 -4 -10 3 -5 2 -10 -4 -10 -5 0 -11 5 -13 11 -2 5 -7 7 -11 3z"/>
<path d="M2511 2084 c0 -11 3 -14 6 -6 3 7 2 16 -1 19 -3 4 -6 -2 -5 -13z"/>
<path d="M1700 2084 c0 -6 7 -19 16 -30 14 -18 14 -18 3 6 -14 31 -19 36 -19
24z"/>
<path d="M1805 2080 c3 -5 8 -10 11 -10 2 0 4 5 4 10 0 6 -5 10 -11 10 -5 0
-7 -4 -4 -10z"/>
<path d="M2905 2040 c2 -25 4 -60 4 -78 1 -18 5 -31 9 -28 5 3 5 34 0 68 -10
75 -20 102 -13 38z"/>
<path d="M2780 1960 c0 -62 2 -111 4 -109 7 7 9 209 2 216 -3 4 -6 -45 -6
-107z"/>
<path d="M1760 2042 c6 -13 14 -21 18 -18 3 4 -2 14 -12 24 -18 16 -18 16 -6
-6z"/>
<path d="M2521 2045 c0 -11 4 -27 9 -35 9 -13 10 -13 9 0 0 8 -4 24 -9 35 -9
20 -9 20 -9 0z"/>
<path d="M1530 2042 c0 -8 6 -28 14 -45 8 -18 17 -41 19 -52 4 -16 5 -15 6 5
0 14 -8 43 -19 65 -11 22 -19 34 -20 27z"/>
<path d="M1857 2029 c7 -7 15 -10 18 -7 3 3 -2 9 -12 12 -14 6 -15 5 -6 -5z"/>
<path d="M2433 2015 c0 -8 4 -12 9 -9 5 3 6 10 3 15 -9 13 -12 11 -12 -6z"/>
<path d="M2090 1998 c0 -7 7 -22 15 -32 8 -11 15 -30 15 -44 0 -15 4 -21 12
-16 8 5 9 2 5 -10 -4 -10 -7 -21 -8 -24 -1 -4 -7 11 -14 33 -9 25 -14 32 -14
19 -1 -19 20 -79 55 -161 8 -17 14 -35 14 -41 0 -5 7 -15 15 -22 13 -11 13 -7
-1 26 -9 22 -20 44 -25 50 -5 6 -11 31 -13 55 -2 24 -1 35 1 24 3 -11 11 -27
18 -35 8 -8 14 -19 15 -25 3 -17 10 -19 10 -4 0 8 -4 19 -8 25 -5 5 -19 38
-31 74 -13 36 -28 77 -34 93 -12 28 -27 36 -27 15z"/>
<path d="M2265 1942 c9 -29 25 -73 35 -98 11 -25 20 -50 20 -56 0 -5 11 -32
24 -58 13 -27 23 -50 21 -52 -2 -2 7 -26 20 -53 13 -28 25 -43 25 -35 0 13 1
13 10 0 13 -20 13 -33 0 -25 -15 9 -13 5 25 -65 40 -75 43 -75 15 -2 -11 29
-18 57 -15 62 8 12 -40 102 -50 93 -4 -5 -5 -3 -1 4 3 6 -7 38 -23 70 -15 32
-46 101 -66 153 -44 109 -62 138 -40 62z"/>
<path d="M2530 1980 c0 -5 5 -10 11 -10 5 0 7 5 4 10 -3 6 -8 10 -11 10 -2 0
-4 -4 -4 -10z"/>
<path d="M1848 1965 c5 -11 12 -27 15 -35 5 -13 6 -13 6 1 1 8 -6 24 -15 35
-15 19 -15 19 -6 -1z"/>
<path d="M2076 1966 c3 -9 11 -16 16 -16 13 0 5 23 -10 28 -7 2 -10 -2 -6 -12z"/>
<path d="M2477 1969 c7 -7 15 -10 18 -7 3 3 -2 9 -12 12 -14 6 -15 5 -6 -5z"/>
<path d="M1886 1955 c4 -8 10 -15 15 -15 4 0 6 7 3 15 -4 8 -10 15 -15 15 -4
0 -6 -7 -3 -15z"/>
<path d="M1585 1920 c4 -14 14 -37 21 -52 8 -15 14 -31 13 -35 0 -4 4 -9 11
-11 6 -2 -1 22 -15 54 -28 63 -42 84 -30 44z"/>
<path d="M2002 1920 c0 -14 2 -19 5 -12 2 6 2 18 0 25 -3 6 -5 1 -5 -13z"/>
<path d="M2450 1923 c0 -4 5 -15 10 -23 8 -13 10 -13 10 2 0 9 -4 20 -10 23
-5 3 -10 3 -10 -2z"/>
<path d="M1240 1917 c0 -4 8 -20 19 -35 16 -23 47 -72 124 -196 7 -11 16 -25
20 -30 4 -6 31 -43 60 -82 105 -144 249 -307 312 -354 24 -18 -12 27 -65 80
-55 56 -130 142 -130 150 0 4 -9 15 -20 25 -11 10 -17 22 -13 28 3 5 1 7 -5 3
-5 -3 -19 9 -31 27 -11 18 -29 43 -40 56 -11 13 -18 28 -14 34 3 6 12 2 20 -9
25 -34 87 -106 130 -151 23 -24 41 -50 39 -56 -1 -7 -1 -9 1 -5 2 4 73 -62
157 -145 163 -163 286 -277 298 -277 4 0 13 -8 20 -18 25 -34 327 -241 458
-314 30 -17 57 -34 60 -37 7 -8 218 -111 228 -111 4 0 -44 29 -107 65 -63 36
-117 65 -119 65 -15 0 -386 239 -435 280 -12 10 -53 44 -92 76 -235 196 -548
527 -794 839 -73 93 -81 102 -81 92z m192 -251 c16 -19 25 -37 20 -39 -4 -3
-19 13 -34 34 -34 48 -23 52 14 5z"/>
<path d="M1825 1910 c3 -5 8 -10 11 -10 2 0 4 5 4 10 0 6 -5 10 -11 10 -5 0
-7 -4 -4 -10z"/>
<path d="M2921 1868 c16 -107 18 -112 14 -39 -2 41 -8 78 -13 83 -5 5 -6 -12
-1 -44z"/>
<path d="M1800 1879 c12 -16 24 -28 27 -25 3 3 -2 12 -11 21 -9 9 -16 21 -16
26 0 5 -5 9 -11 9 -6 0 -1 -14 11 -31z"/>
<path d="M2010 1882 c0 -5 3 -12 8 -16 4 -4 7 -11 7 -14 1 -12 36 -74 40 -70
7 6 -7 48 -15 48 -5 0 -11 14 -15 30 -6 27 -25 43 -25 22z"/>
<path d="M1701 1870 c1 -24 15 -55 21 -44 2 5 -1 20 -8 34 -8 14 -13 18 -13
10z"/>
<path d="M2521 1834 c0 -11 3 -14 6 -6 3 7 2 16 -1 19 -3 4 -6 -2 -5 -13z"/>
<path d="M2570 1839 c0 -5 5 -7 10 -4 6 3 10 8 10 11 0 2 -4 4 -10 4 -5 0 -10
-5 -10 -11z"/>
<path d="M2780 1820 c0 -11 4 -20 8 -20 4 0 8 9 8 20 0 11 -4 20 -8 20 -4 0
-8 -9 -8 -20z"/>
<path d="M1841 1812 c-1 -14 27 -72 35 -72 2 0 -2 12 -9 28 -8 15 -17 34 -20
42 -4 10 -6 11 -6 2z"/>
<path d="M1640 1796 c0 -9 5 -16 10 -16 6 0 10 4 10 9 0 6 -4 13 -10 16 -5 3
-10 -1 -10 -9z"/>
<path d="M1735 1790 c4 -14 14 -36 22 -50 l14 -25 -6 29 c-3 16 -13 39 -22 50
-15 21 -15 21 -8 -4z"/>
<path d="M1946 1798 c3 -4 9 -8 15 -8 5 0 9 4 9 8 0 5 -7 9 -15 9 -8 0 -12 -4
-9 -9z"/>
<path d="M2531 1784 c0 -11 3 -14 6 -6 3 7 2 16 -1 19 -3 4 -6 -2 -5 -13z"/>
<path d="M2591 1784 c0 -11 3 -14 6 -6 3 7 2 16 -1 19 -3 4 -6 -2 -5 -13z"/>
<path d="M1971 1764 c0 -11 3 -14 6 -6 3 7 2 16 -1 19 -3 4 -6 -2 -5 -13z"/>
<path d="M1661 1760 c-1 -18 16 -46 23 -40 2 3 -2 16 -9 30 -8 15 -14 19 -14
10z"/>
<path d="M2070 1760 c0 -8 5 -22 10 -30 9 -13 10 -13 10 0 0 8 -5 22 -10 30
-9 13 -10 13 -10 0z"/>
<path d="M2192 1753 c9 -10 18 -25 21 -33 4 -10 6 -11 6 -2 1 20 -18 52 -31
52 -7 0 -5 -7 4 -17z"/>
<path d="M2546 1735 c4 -8 8 -15 10 -15 2 0 4 7 4 15 0 8 -4 15 -10 15 -5 0
-7 -7 -4 -15z"/>
<path d="M2607 1729 c4 -13 8 -18 11 -10 2 7 -1 18 -6 23 -8 8 -9 4 -5 -13z"/>
<path d="M2790 1724 c0 -8 5 -12 10 -9 6 4 8 11 5 16 -9 14 -15 11 -15 -7z"/>
<path d="M1780 1712 c0 -18 42 -104 48 -98 6 6 -16 62 -35 91 -7 11 -13 14
-13 7z"/>
<path d="M1696 1683 c4 -16 10 -30 14 -33 4 -3 25 -34 46 -70 20 -36 40 -67
44 -70 4 -3 12 -15 19 -27 6 -13 16 -23 21 -23 5 0 -10 29 -33 65 -61 95 -74
116 -93 153 -20 39 -27 41 -18 5z"/>
<path d="M2942 1690 c0 -14 2 -19 5 -12 2 6 2 18 0 25 -3 6 -5 1 -5 -13z"/>
<path d="M2010 1695 c0 -5 5 -17 10 -25 5 -8 10 -10 10 -5 0 6 -5 17 -10 25
-5 8 -10 11 -10 5z"/>
<path d="M2241 1653 c11 -26 25 -50 30 -54 6 -3 11 -15 12 -27 0 -11 5 -18 9
-16 4 3 8 -2 8 -11 0 -9 16 -41 35 -71 19 -30 35 -58 35 -63 0 -5 6 -16 14
-23 7 -8 21 -28 30 -46 9 -18 21 -32 26 -32 8 0 -10 34 -67 125 -21 32 -117
218 -126 243 -5 12 -13 22 -17 22 -5 0 0 -21 11 -47z"/>
<path d="M2105 1680 c3 -5 8 -10 11 -10 2 0 4 5 4 10 0 6 -5 10 -11 10 -5 0
-7 -4 -4 -10z"/>
<path d="M2541 1674 c0 -11 3 -14 6 -6 3 7 2 16 -1 19 -3 4 -6 -2 -5 -13z"/>
<path d="M2190 1676 c0 -11 42 -97 46 -93 5 5 -33 97 -41 97 -3 0 -5 -2 -5 -4z"/>
<path d="M2801 1664 c0 -11 3 -14 6 -6 3 7 2 16 -1 19 -3 4 -6 -2 -5 -13z"/>
<path d="M2576 1655 c4 -8 8 -15 10 -15 2 0 4 7 4 15 0 8 -4 15 -10 15 -5 0
-7 -7 -4 -15z"/>
<path d="M2120 1655 c0 -6 8 -26 19 -45 10 -19 30 -57 45 -85 14 -27 26 -43
26 -35 -1 17 -90 181 -90 165z"/>
<path d="M2955 1620 c3 -19 10 -39 15 -44 7 -7 7 -1 1 19 -17 54 -21 61 -16
25z"/>
<path d="M2580 1621 c0 -6 4 -12 8 -15 5 -3 9 1 9 9 0 8 -4 15 -9 15 -4 0 -8
-4 -8 -9z"/>
<path d="M1840 1591 c0 -10 28 -41 36 -41 2 0 -3 11 -12 25 -17 26 -24 31 -24
16z"/>
<path d="M2660 1595 c0 -5 5 -17 10 -25 5 -8 10 -10 10 -5 0 6 -5 17 -10 25
-5 8 -10 11 -10 5z"/>
<path d="M1975 1570 c-3 -5 -1 -10 4 -10 6 0 11 5 11 10 0 6 -2 10 -4 10 -3 0
-8 -4 -11 -10z"/>
<path d="M2240 1561 c0 -19 29 -71 40 -71 5 0 0 17 -11 38 -25 45 -29 49 -29
33z"/>
<path d="M2597 1564 c-3 -4 -1 -16 5 -28 7 -11 11 -24 10 -28 -1 -5 3 -8 8 -8
14 0 13 7 -7 37 -17 26 -17 27 0 20 11 -4 16 -3 12 3 -7 11 -19 13 -28 4z"/>
<path d="M2450 1551 c0 -5 5 -13 10 -16 6 -3 10 -2 10 4 0 5 -4 13 -10 16 -5
3 -10 2 -10 -4z"/>
<path d="M2970 1534 c0 -16 5 -36 10 -44 6 -10 7 -2 3 25 -7 49 -13 58 -13 19z"/>
<path d="M1870 1536 c0 -2 7 -7 16 -10 8 -3 12 -2 9 4 -6 10 -25 14 -25 6z"/>
<path d="M2090 1537 c0 -3 11 -23 25 -43 14 -20 25 -33 25 -27 0 5 -11 24 -25
43 -14 19 -25 31 -25 27z"/>
<path d="M2470 1517 c0 -15 41 -87 49 -87 5 0 0 17 -10 37 -19 38 -39 63 -39
50z"/>
<path d="M2826 1511 c-3 -5 1 -14 9 -21 10 -9 15 -9 15 -1 0 6 -5 11 -11 11
-5 0 -7 5 -4 10 3 6 4 10 1 10 -3 0 -7 -4 -10 -9z"/>
<path d="M1900 1506 c0 -13 41 -78 67 -106 13 -14 23 -20 23 -14 0 6 -9 19
-20 29 -11 10 -22 27 -26 38 -7 22 -44 66 -44 53z"/>
<path d="M2280 1474 c0 -12 63 -124 67 -120 3 2 -7 25 -21 50 -14 26 -26 53
-26 61 0 8 -4 15 -10 15 -5 0 -10 -3 -10 -6z"/>
<path d="M2222 1450 c7 -11 16 -20 21 -20 4 0 3 9 -3 20 -6 11 -15 20 -20 20
-6 0 -5 -9 2 -20z"/>
<path d="M2053 1450 c2 -8 12 -16 23 -17 13 -2 15 -1 4 4 -8 3 -19 11 -23 17
-6 7 -7 6 -4 -4z"/>
<path d="M2986 1452 c-2 -4 -1 -14 5 -22 7 -12 9 -10 9 8 0 23 -5 28 -14 14z"/>
<path d="M1848 1443 c6 -2 12 -9 12 -15 0 -6 14 -26 30 -45 17 -18 30 -31 30
-29 0 13 -65 96 -74 95 -6 0 -5 -3 2 -6z"/>
<path d="M2695 1383 c25 -38 49 -75 53 -85 4 -9 27 -38 51 -65 107 -116 151
-161 151 -154 0 3 -14 22 -31 41 -53 58 -157 188 -170 212 -7 13 -17 26 -23
30 -6 4 -11 12 -11 18 0 6 -7 15 -15 20 -8 5 -12 10 -8 10 10 0 -24 40 -34 40
-4 0 13 -30 37 -67z"/>
<path d="M2857 1429 c4 -13 8 -18 11 -10 2 7 -1 18 -6 23 -8 8 -9 4 -5 -13z"/>
<path d="M2505 1383 c14 -29 30 -53 37 -53 6 0 4 7 -5 18 -10 10 -15 21 -12
23 2 3 -7 18 -20 34 l-25 30 25 -52z"/>
<path d="M2263 1381 c14 -25 33 -53 41 -63 9 -10 16 -22 16 -26 1 -4 17 -25
36 -47 45 -51 29 -18 -30 63 -25 34 -46 66 -46 70 0 5 -10 17 -22 28 -19 17
-19 15 5 -25z"/>
<path d="M2520 1410 c0 -5 5 -10 10 -10 6 0 10 5 10 10 0 6 -4 10 -10 10 -5 0
-10 -4 -10 -10z"/>
<path d="M2750 1413 c0 -5 7 -18 15 -29 13 -18 14 -18 8 4 -5 22 -23 41 -23
25z"/>
<path d="M3000 1400 c0 -8 5 -22 10 -30 9 -13 10 -13 10 0 0 8 -5 22 -10 30
-9 13 -10 13 -10 0z"/>
<path d="M2090 1396 c0 -2 8 -10 18 -17 15 -13 16 -12 3 4 -13 16 -21 21 -21
13z"/>
<path d="M2181 1383 c7 -12 15 -20 18 -17 3 2 -3 12 -13 22 -17 16 -18 16 -5
-5z"/>
<path d="M2870 1391 c0 -6 4 -13 10 -16 6 -3 7 1 4 9 -7 18 -14 21 -14 7z"/>
<path d="M2546 1378 c4 -7 15 -24 24 -38 10 -14 15 -32 13 -40 -4 -13 -3 -13
6 0 7 10 4 25 -11 52 -12 21 -26 38 -30 38 -5 0 -6 -6 -2 -12z"/>
<path d="M1996 1358 c30 -49 235 -269 274 -295 23 -15 23 -14 -5 19 -16 20
-34 37 -38 37 -5 1 -23 17 -40 37 -18 20 -60 66 -94 102 -35 37 -63 70 -63 75
0 10 -26 37 -35 37 -3 0 -3 -5 1 -12z"/>
<path d="M2790 1342 c6 -13 14 -21 18 -18 3 4 -2 14 -12 24 -18 16 -18 16 -6
-6z"/>
<path d="M2904 1327 c18 -45 45 -94 46 -84 0 4 -9 25 -20 47 -11 22 -20 46
-20 55 0 8 -5 15 -10 15 -6 0 -5 -13 4 -33z"/>
<path d="M1930 1343 c0 -7 11 -25 25 -40 32 -36 32 -17 0 22 -14 17 -25 25
-25 18z"/>
<path d="M2216 1325 c4 -8 11 -15 16 -15 6 0 5 6 -2 15 -7 8 -14 15 -16 15 -2
0 -1 -7 2 -15z"/>
<path d="M2366 1312 c10 -18 20 -28 23 -21 2 6 -7 21 -19 33 l-23 21 19 -33z"/>
<path d="M2161 1310 c14 -31 19 -36 19 -24 0 6 -7 19 -16 30 -14 18 -14 18 -3
-6z"/>
<path d="M2555 1291 c22 -43 38 -49 18 -7 -9 20 -20 36 -25 36 -5 0 -2 -13 7
-29z"/>
<path d="M2600 1295 c0 -11 34 -65 41 -65 4 0 12 -13 19 -30 7 -16 15 -30 19
-30 4 0 15 -13 24 -30 10 -16 23 -30 28 -30 6 0 1 12 -10 28 -12 15 -38 52
-58 82 -39 58 -63 86 -63 75z"/>
<path d="M1990 1276 c0 -5 16 -26 35 -47 19 -22 35 -36 35 -33 0 3 17 -15 38
-40 20 -24 42 -45 49 -45 7 -1 16 -7 20 -14 9 -14 100 -89 123 -102 15 -8 -15
20 -95 91 -22 20 -77 72 -122 117 -46 44 -83 77 -83 73z"/>
<path d="M2460 1278 c0 -17 35 -70 53 -79 16 -9 13 -2 -13 32 -19 24 -35 46
-37 48 -2 2 -3 2 -3 -1z"/>
<path d="M3041 1264 c0 -11 3 -14 6 -6 3 7 2 16 -1 19 -3 4 -6 -2 -5 -13z"/>
<path d="M2202 1256 c7 -8 15 -12 17 -11 5 6 -10 25 -20 25 -5 0 -4 -6 3 -14z"/>
<path d="M2400 1253 c0 -7 4 -13 10 -13 5 0 16 -12 24 -27 8 -16 15 -23 16
-16 0 7 -11 25 -25 40 -13 15 -25 22 -25 16z"/>
<path d="M2876 1228 c58 -69 100 -114 113 -122 9 -5 -6 14 -34 43 -27 29 -57
63 -65 77 -8 13 -19 24 -24 24 -5 0 -1 -10 10 -22z"/>
<path d="M2590 1237 c0 -5 10 -23 23 -40 12 -17 27 -40 32 -51 6 -11 17 -22
25 -24 11 -4 10 -1 -3 12 -9 10 -17 23 -17 29 0 7 -14 28 -30 47 -16 19 -30
31 -30 27z"/>
<path d="M2250 1213 c0 -6 8 -17 18 -24 16 -13 16 -13 2 6 -8 11 -16 22 -17
24 -2 2 -3 0 -3 -6z"/>
<path d="M2315 1190 c3 -5 8 -10 11 -10 2 0 4 5 4 10 0 6 -5 10 -11 10 -5 0
-7 -4 -4 -10z"/>
<path d="M2976 1187 c3 -10 9 -15 12 -12 3 3 0 11 -7 18 -10 9 -11 8 -5 -6z"/>
<path d="M3060 1191 c0 -6 4 -13 10 -16 6 -3 7 1 4 9 -7 18 -14 21 -14 7z"/>
<path d="M2425 1160 c9 -16 18 -30 21 -30 2 0 -2 14 -11 30 -9 17 -18 30 -21
30 -2 0 2 -13 11 -30z"/>
<path d="M2455 1180 c-3 -5 -1 -10 4 -10 6 0 11 5 11 10 0 6 -2 10 -4 10 -3 0
-8 -4 -11 -10z"/>
<path d="M2530 1178 c0 -14 29 -60 51 -81 13 -13 34 -36 45 -53 12 -16 24 -27
27 -24 3 3 -17 30 -44 60 -28 30 -51 57 -51 60 -1 8 -28 45 -28 38z"/>
<path d="M2321 1143 c7 -12 15 -20 18 -17 3 2 -3 12 -13 22 -17 16 -18 16 -5
-5z"/>
<path d="M2370 1126 c0 -3 10 -15 23 -27 20 -20 20 -21 2 -15 -11 3 7 -19 40
-49 58 -54 95 -81 95 -70 0 9 -93 95 -103 95 -5 0 -7 6 -5 13 3 6 -8 22 -23
35 -16 13 -29 21 -29 18z"/>
<path d="M3080 1121 c0 -5 5 -13 10 -16 6 -3 10 -2 10 4 0 5 -4 13 -10 16 -5
3 -10 2 -10 -4z"/>
<path d="M2462 1106 c7 -8 15 -12 17 -11 5 6 -10 25 -20 25 -5 0 -4 -6 3 -14z"/>
<path d="M2680 1095 c0 -11 93 -135 101 -135 6 0 7 -5 3 -12 -4 -7 -3 -8 4 -4
7 4 12 2 12 -5 0 -7 3 -10 6 -7 3 4 -20 39 -50 79 -31 40 -56 76 -56 81 0 4
-4 8 -10 8 -5 0 -10 -2 -10 -5z"/>
<path d="M3090 1081 c0 -6 5 -13 10 -16 6 -3 10 1 10 9 0 9 -4 16 -10 16 -5 0
-10 -4 -10 -9z"/>
<path d="M2750 1073 c0 -6 83 -107 112 -136 10 -10 16 -23 12 -28 -3 -5 -1 -8
5 -7 6 2 24 -13 41 -32 16 -19 30 -30 30 -25 0 6 -15 26 -33 46 -17 20 -48 55
-67 79 -19 23 -43 51 -52 63 -10 11 -18 23 -18 27 0 5 -7 10 -15 14 -8 3 -15
3 -15 -1z"/>
<path d="M3112 1019 c6 -16 12 -28 15 -26 7 7 -8 57 -18 57 -4 0 -3 -14 3 -31z"/>
<path d="M2665 990 c10 -11 20 -18 23 -15 7 6 -18 35 -31 35 -5 0 -2 -9 8 -20z"/>
<path d="M3137 960 c3 -11 7 -20 9 -20 2 0 4 9 4 20 0 11 -4 20 -9 20 -5 0 -7
-9 -4 -20z"/>
<path d="M2700 963 c0 -12 136 -153 147 -153 4 0 -11 19 -33 43 -23 23 -57 60
-77 81 -21 22 -37 34 -37 29z"/>
<path d="M2817 898 c11 -13 29 -33 39 -45 10 -13 22 -23 27 -23 5 0 1 7 -7 16
-9 8 -16 19 -16 24 0 12 -41 50 -54 50 -5 0 0 -10 11 -22z"/>
<path d="M3161 914 c-1 -10 44 -108 74 -164 7 -13 19 -26 26 -29 7 -2 3 7 -9
19 -12 13 -22 29 -22 34 0 15 -69 153 -69 140z"/>
<path d="M2500 862 c0 -10 146 -155 214 -214 22 -18 56 -47 75 -64 20 -17 47
-37 61 -44 23 -12 24 -12 11 3 -7 10 -10 17 -6 17 14 0 75 -41 75 -51 0 -5 3
-8 8 -7 8 1 45 -13 52 -21 16 -19 263 -144 330 -167 84 -30 173 -31 218 -4 17
11 32 25 32 31 0 11 -27 -5 -41 -25 -13 -17 -96 -18 -158 -2 -192 49 -596 301
-823 513 -27 24 -48 40 -48 35z m350 -294 c0 -14 -10 -9 -38 18 l-27 26 33
-18 c17 -10 32 -22 32 -26z"/>
<path d="M2957 834 c-8 -8 247 -249 263 -249 5 0 27 -16 51 -35 39 -31 91 -60
108 -60 3 0 -14 12 -39 27 -25 15 -49 31 -55 35 -127 99 -173 139 -242 206
-44 44 -83 78 -86 76z"/>
<path d="M2895 810 c3 -5 8 -10 11 -10 2 0 4 5 4 10 0 6 -5 10 -11 10 -5 0 -7
-4 -4 -10z"/>
<path d="M3292 655 c11 -20 23 -34 25 -31 5 5 -35 66 -42 66 -3 0 5 -16 17
-35z"/>
<path d="M3330 604 c0 -6 19 -30 41 -55 25 -26 33 -32 20 -14 -37 53 -61 80
-61 69z"/>
<path d="M3380 476 c0 -2 7 -7 16 -10 8 -3 12 -2 9 4 -6 10 -25 14 -25 6z"/>
<path d="M1483 4158 c-9 -79 -8 -84 14 -106 19 -18 27 -21 43 -12 11 6 20 16
19 23 0 9 -2 9 -6 0 -2 -7 -15 -13 -28 -13 -30 0 -35 22 -28 115 3 41 4 75 1
75 -3 0 -9 -37 -15 -82z"/>
<path d="M1350 3929 c-19 -7 -14 -8 21 -4 55 5 69 -6 69 -54 -1 -73 -68 -174
-141 -212 -59 -29 -146 -35 -188 -11 -41 22 -88 105 -101 178 l-9 49 3 -55 c4
-54 33 -140 48 -140 5 0 8 -6 8 -13 0 -23 54 -46 116 -48 60 -2 132 19 166 49
9 7 22 11 29 6 8 -4 10 -3 5 4 -4 7 -2 17 4 24 68 82 94 180 57 226 -11 14
-50 14 -87 1z"/>
<path d="M1145 3920 c27 -12 43 -12 25 0 -8 5 -22 9 -30 9 -10 0 -8 -3 5 -9z"/>
<path d="M1243 3923 c9 -2 23 -2 30 0 6 3 -1 5 -18 5 -16 0 -22 -2 -12 -5z"/>
<path d="M1298 3923 c7 -3 16 -2 19 1 4 3 -2 6 -13 5 -11 0 -14 -3 -6 -6z"/>
<path d="M1034 3896 c5 -36 92 -95 178 -121 42 -13 5 11 -46 30 -28 10 -68 36
-92 60 -23 23 -41 37 -40 31z"/>
<path d="M1278 3893 c7 -3 16 -2 19 1 4 3 -2 6 -13 5 -11 0 -14 -3 -6 -6z"/>
<path d="M1340 3815 c-7 -8 -27 -17 -46 -21 -19 -3 -37 -11 -41 -17 -4 -6 0
-8 9 -4 9 3 34 11 57 18 44 13 76 39 48 39 -8 0 -20 -7 -27 -15z"/>
<path d="M870 3574 c-24 -15 -16 -14 23 1 14 6 20 2 24 -14 3 -11 9 -18 14
-15 12 7 -8 44 -24 44 -7 -1 -23 -8 -37 -16z"/>
<path d="M688 3513 c6 -2 18 -2 25 0 6 3 1 5 -13 5 -14 0 -19 -2 -12 -5z"/>
<path d="M618 3503 c12 -2 30 -2 40 0 9 3 -1 5 -23 4 -22 0 -30 -2 -17 -4z"/>
<path d="M455 3440 c14 -27 48 -60 61 -60 6 0 17 -7 24 -15 7 -8 17 -12 23 -8
5 3 -5 14 -24 24 -19 9 -47 30 -63 46 -16 15 -26 21 -21 13z"/>
<path d="M581 3134 c-17 -14 -31 -31 -31 -37 0 -6 15 4 34 22 19 18 39 30 45
27 19 -12 12 -69 -14 -114 -14 -24 -22 -48 -19 -54 9 -15 44 58 51 107 4 29 1
50 -7 60 -17 20 -24 19 -59 -11z"/>
<path d="M514 3068 l-19 -23 23 19 c21 18 27 26 19 26 -2 0 -12 -10 -23 -22z"/>
<path d="M470 3040 c-9 -6 -10 -10 -3 -10 6 0 15 5 18 10 8 12 4 12 -15 0z"/>
<path d="M531 2958 c-26 -12 -77 -23 -125 -26 -67 -5 -74 -7 -41 -12 63 -9
225 28 225 51 0 12 -8 10 -59 -13z"/>
<path d="M1211 4132 c-2 -51 13 -71 53 -69 34 2 66 21 66 39 0 5 -7 2 -16 -7
-11 -10 -29 -15 -53 -13 -34 3 -36 6 -42 43 -6 39 -6 39 -8 7z"/>
<path d="M1268 4113 c7 -3 16 -2 19 1 4 3 -2 6 -13 5 -11 0 -14 -3 -6 -6z"/>
<path d="M1153 4064 c11 -4 17 -16 17 -37 0 -23 3 -28 9 -18 13 20 -3 56 -25
58 -16 2 -16 1 -1 -3z"/>
<path d="M1108 4053 c7 -3 16 -2 19 1 4 3 -2 6 -13 5 -11 0 -14 -3 -6 -6z"/>
<path d="M870 3980 c0 -13 40 -53 46 -47 3 3 -6 16 -20 30 -14 15 -26 22 -26
17z"/>
<path d="M807 3737 c-4 -10 -7 -28 -7 -40 0 -11 -12 -34 -27 -50 l-28 -30 26
17 c31 20 52 64 47 98 -3 20 -4 21 -11 5z"/>
<path d="M740 3730 c-9 -6 -10 -10 -3 -10 6 0 15 5 18 10 8 12 4 12 -15 0z"/>
<path d="M476 3625 c4 -8 12 -15 20 -15 7 0 17 -6 21 -12 6 -9 25 -11 63 -8
l55 5 -52 7 c-29 4 -66 14 -82 23 -27 13 -30 13 -25 0z"/>
<path d="M658 3593 c7 -3 16 -2 19 1 4 3 -2 6 -13 5 -11 0 -14 -3 -6 -6z"/>
<path d="M1084 4199 c-9 -16 -24 -82 -16 -74 8 7 32 85 27 85 -2 0 -7 -5 -11
-11z"/>
<path d="M820 4132 c0 -14 37 -58 43 -52 3 3 -6 18 -19 33 -13 15 -24 24 -24
19z"/>
<path d="M1020 4131 c0 -6 4 -13 10 -16 6 -3 7 1 4 9 -7 18 -14 21 -14 7z"/>
<path d="M746 3928 c2 -41 -60 -108 -100 -108 -34 0 -76 19 -103 48 -27 27
-31 14 -5 -15 26 -30 56 -43 103 -45 39 -1 46 3 80 42 36 42 50 73 41 98 -7
23 -17 12 -16 -20z"/>
<path d="M3330 4069 c0 -5 5 -7 10 -4 6 3 10 8 10 11 0 2 -4 4 -10 4 -5 0 -10
-5 -10 -11z"/>
<path d="M3388 4073 c7 -3 16 -2 19 1 4 3 -2 6 -13 5 -11 0 -14 -3 -6 -6z"/>
<path d="M3485 4020 c3 -5 8 -10 11 -10 2 0 4 5 4 10 0 6 -5 10 -11 10 -5 0
-7 -4 -4 -10z"/>
<path d="M3225 3970 c-3 -6 1 -7 9 -4 18 7 21 14 7 14 -6 0 -13 -4 -16 -10z"/>
<path d="M3542 3910 c0 -14 2 -19 5 -12 2 6 2 18 0 25 -3 6 -5 1 -5 -13z"/>
<path d="M3105 3630 c-16 -17 -16 -20 -3 -15 9 4 19 13 22 21 7 19 2 18 -19
-6z"/>
<path d="M3059 3573 c-13 -16 -12 -17 4 -4 16 13 21 21 13 21 -2 0 -10 -8 -17
-17z"/>
<path d="M3376 3563 c-6 -14 -5 -15 5 -6 7 7 10 15 7 18 -3 3 -9 -2 -12 -12z"/>
<path d="M2946 3393 c-6 -14 -5 -15 5 -6 7 7 10 15 7 18 -3 3 -9 -2 -12 -12z"/>
<path d="M2931 3354 c0 -11 3 -14 6 -6 3 7 2 16 -1 19 -3 4 -6 -2 -5 -13z"/>
<path d="M3179 3340 c-86 -72 -184 -193 -228 -278 -37 -73 -91 -273 -62 -232
6 8 11 22 11 29 0 8 11 52 25 98 21 68 28 81 43 77 13 -5 14 -4 3 4 -12 8 -8
20 23 66 21 31 41 54 47 51 5 -3 7 0 4 7 -7 19 144 176 177 183 35 9 40 -10
38 -138 -2 -94 11 -259 26 -332 26 -131 47 -231 63 -295 14 -56 16 -79 7 -89
-8 -11 -8 -13 0 -8 12 7 28 -64 43 -183 14 -119 7 -421 -12 -523 -11 -53 -23
-95 -28 -91 -5 3 -6 -2 -3 -10 10 -27 -64 -225 -116 -311 -14 -22 -40 -62 -58
-89 -43 -64 -34 -72 12 -9 58 78 114 193 155 320 60 184 75 279 74 488 0 202
-19 340 -77 585 -48 200 -67 339 -71 515 -2 83 -4 158 -4 168 -1 25 -61 23
-92 -3z"/>
<path d="M3910 3281 c0 -6 4 -13 10 -16 6 -3 7 1 4 9 -7 18 -14 21 -14 7z"/>
<path d="M3461 3264 c0 -11 3 -14 6 -6 3 7 2 16 -1 19 -3 4 -6 -2 -5 -13z"/>
<path d="M3936 3237 c3 -10 9 -15 12 -12 3 3 0 11 -7 18 -10 9 -11 8 -5 -6z"/>
<path d="M2863 3204 c-3 -8 -2 -19 3 -24 5 -5 9 1 9 16 0 28 -3 30 -12 8z"/>
<path d="M3955 3200 c3 -5 8 -10 11 -10 2 0 4 5 4 10 0 6 -5 10 -11 10 -5 0
-7 -4 -4 -10z"/>
<path d="M4000 3111 c0 -6 4 -13 10 -16 6 -3 7 1 4 9 -7 18 -14 21 -14 7z"/>
<path d="M3521 3074 c0 -11 3 -14 6 -6 3 7 2 16 -1 19 -3 4 -6 -2 -5 -13z"/>
<path d="M4000 2906 c0 -2 7 -7 16 -10 8 -3 12 -2 9 4 -6 10 -25 14 -25 6z"/>
<path d="M3620 2780 c0 -5 5 -10 11 -10 5 0 7 5 4 10 -3 6 -8 10 -11 10 -2 0
-4 -4 -4 -10z"/>
<path d="M4176 2707 c3 -10 9 -15 12 -12 3 3 0 11 -7 18 -10 9 -11 8 -5 -6z"/>
<path d="M3931 2604 c0 -11 3 -14 6 -6 3 7 2 16 -1 19 -3 4 -6 -2 -5 -13z"/>
<path d="M3911 2574 c0 -11 3 -14 6 -6 3 7 2 16 -1 19 -3 4 -6 -2 -5 -13z"/>
<path d="M3712 2480 c0 -14 2 -19 5 -12 2 6 2 18 0 25 -3 6 -5 1 -5 -13z"/>
<path d="M3721 2374 c0 -11 3 -14 6 -6 3 7 2 16 -1 19 -3 4 -6 -2 -5 -13z"/>
<path d="M4222 2365 c0 -16 2 -22 5 -12 2 9 2 23 0 30 -3 6 -5 -1 -5 -18z"/>
<path d="M3738 2338 c-2 -7 -1 -29 3 -48 6 -34 6 -33 8 13 1 46 -3 59 -11 35z"/>
<path d="M3892 2295 c0 -16 2 -22 5 -12 2 9 2 23 0 30 -3 6 -5 -1 -5 -18z"/>
<path d="M4261 2304 c0 -11 3 -14 6 -6 3 7 2 16 -1 19 -3 4 -6 -2 -5 -13z"/>
<path d="M3762 2095 c0 -16 2 -22 5 -12 2 9 2 23 0 30 -3 6 -5 -1 -5 -18z"/>
<path d="M3942 2000 c0 -14 2 -19 5 -12 2 6 2 18 0 25 -3 6 -5 1 -5 -13z"/>
<path d="M4222 1935 c0 -16 2 -22 5 -12 2 9 2 23 0 30 -3 6 -5 -1 -5 -18z"/>
<path d="M3953 1900 c0 -30 2 -43 4 -27 2 15 2 39 0 55 -2 15 -4 2 -4 -28z"/>
<path d="M3762 1885 c0 -16 2 -22 5 -12 2 9 2 23 0 30 -3 6 -5 -1 -5 -18z"/>
<path d="M3361 1744 c0 -11 3 -14 6 -6 3 7 2 16 -1 19 -3 4 -6 -2 -5 -13z"/>
<path d="M3739 1648 c-3 -22 -1 -34 4 -29 5 5 7 21 5 37 -3 27 -4 26 -9 -8z"/>
<path d="M3727 1580 c-3 -11 -1 -20 4 -20 5 0 9 9 9 20 0 11 -2 20 -4 20 -2 0
-6 -9 -9 -20z"/>
<path d="M3710 1498 c0 -19 2 -20 10 -8 13 19 13 30 0 30 -5 0 -10 -10 -10
-22z"/>
<path d="M4100 1440 c-9 -6 -10 -10 -3 -10 6 0 15 5 18 10 8 12 4 12 -15 0z"/>
<path d="M3777 1261 c-4 -17 -3 -21 5 -13 5 5 8 16 6 23 -3 8 -7 3 -11 -10z"/>
<path d="M4010 1180 c0 -5 5 -10 10 -10 6 0 10 5 10 10 0 6 -4 10 -10 10 -5 0
-10 -4 -10 -10z"/>
<path d="M3530 1145 c-7 -9 -11 -17 -9 -20 3 -2 10 5 17 15 14 24 10 26 -8 5z"/>
<path d="M3474 1088 l-19 -23 23 19 c21 18 27 26 19 26 -2 0 -12 -10 -23 -22z"/>
<path d="M3278 1023 c12 -2 30 -2 40 0 9 3 -1 5 -23 4 -22 0 -30 -2 -17 -4z"/>
<path d="M3406 897 c3 -10 9 -15 12 -12 3 3 0 11 -7 18 -10 9 -11 8 -5 -6z"/>
<path d="M3640 860 c-9 -6 -10 -10 -3 -10 6 0 15 5 18 10 8 12 4 12 -15 0z"/>
<path d="M3620 780 c0 -5 5 -10 11 -10 5 0 7 5 4 10 -3 6 -8 10 -11 10 -2 0
-4 -4 -4 -10z"/>
<path d="M1740 976 c0 -2 8 -10 18 -17 15 -13 16 -12 3 4 -13 16 -21 21 -21
13z"/>
<path d="M670 4159 c0 -8 11 -26 25 -39 32 -30 32 -14 0 25 -17 20 -25 25 -25
14z"/>
<path d="M667 4089 c7 -7 15 -10 18 -7 3 3 -2 9 -12 12 -14 6 -15 5 -6 -5z"/>
<path d="M680 4060 c0 -5 5 -10 10 -10 6 0 10 5 10 10 0 6 -4 10 -10 10 -5 0
-10 -4 -10 -10z"/>
<path d="M561 4025 c22 -22 77 -25 98 -6 9 9 12 13 7 9 -14 -11 -60 -10 -93 3
-26 9 -27 9 -12 -6z"/>
<path d="M2870 3949 c-71 -59 -92 -79 -84 -79 9 1 123 99 114 99 -3 0 -16 -9
-30 -20z"/>
<path d="M2722 3813 c-13 -13 -22 -28 -20 -34 2 -6 14 4 27 21 28 39 24 46 -7
13z"/>
<path d="M2815 3830 c-3 -5 -1 -10 4 -10 6 0 11 5 11 10 0 6 -2 10 -4 10 -3 0
-8 -4 -11 -10z"/>
<path d="M2786 3785 c-9 -14 -13 -25 -8 -25 5 0 14 11 20 25 6 14 10 25 8 25
-2 0 -11 -11 -20 -25z"/>
<path d="M2661 3720 c-12 -22 -18 -40 -13 -40 9 0 45 70 39 76 -2 2 -14 -14
-26 -36z"/>
<path d="M2741 3715 c-11 -20 -21 -40 -21 -45 0 -4 -5 -10 -11 -12 -7 -2 -10
-10 -8 -16 2 -7 19 13 37 44 18 31 31 59 29 61 -3 2 -14 -12 -26 -32z"/>
<path d="M2633 3630 c0 -25 2 -35 4 -22 2 12 2 32 0 45 -2 12 -4 2 -4 -23z"/>
<path d="M2671 3573 c-6 -20 -9 -39 -6 -41 2 -2 7 9 11 24 4 16 11 35 17 42 6
8 6 12 -1 12 -6 0 -16 -17 -21 -37z"/>
<path d="M2631 3564 c0 -11 3 -14 6 -6 3 7 2 16 -1 19 -3 4 -6 -2 -5 -13z"/>
<path d="M240 3220 c-9 -6 -10 -10 -3 -10 6 0 15 5 18 10 8 12 4 12 -15 0z"/>
</g>
</svg>
