<?xml version="1.0" encoding="UTF-8"?>
<svg width="60px" height="47px" viewBox="0 0 60 47" version="1.1" xmlns="http://www.w3.org/2000/svg" xmlns:xlink="http://www.w3.org/1999/xlink">
    <!-- Generator: Sketch 53.2 (72643) - https://sketchapp.com -->
    <title>iconfinder_shrimp_prawn_crustacean_seafood_food_578561</title>
    <desc>Created with Sketch.</desc>
    <g id="Page-1" stroke="none" stroke-width="1" fill="none" fill-rule="evenodd">
        <g id="iconfinder_shrimp_prawn_crustacean_seafood_food_578561" fill-rule="nonzero">
            <path d="M7.18135922,29.4256311 L8.90970874,28.0899029 C8.7431068,27.9728155 8.57650485,27.8568932 8.41514563,27.7339806 L6.82427184,28.9648544 C5.21533981,30.2050485 2.91029126,29.9102913 1.66601942,28.3048544 C0.785242718,27.1625243 0.682135922,25.6718447 1.26699029,24.4572816 C1.36368932,25.1737864 1.64097087,25.8774757 2.11514563,26.4902913 C3.51902913,28.3031068 6.09436893,28.6695146 7.94912621,27.3535922 C7.83902913,27.2615534 7.72135922,27.1759223 7.61417476,27.0803883 C7.67941748,26.9609709 7.75165049,26.8450485 7.82038835,26.7273786 L7.73708738,26.7914563 C6.12757282,28.0328155 3.82194175,27.7368932 2.5776699,26.1326214 C2.00213592,25.3852427 1.76097087,24.4887379 1.8238835,23.6172816 C1.97417476,23.447767 2.14019417,23.2887379 2.32543689,23.1448544 L24.0524272,6.34427184 C26.9819417,4.07883495 26.616699,2.69359223 26.616699,2.69359223 C26.616699,2.69359223 26.8648544,3.92796117 23.9347573,6.19339806 L2.03009709,22.6368932 C2.2584466,22.0001942 2.66213592,21.4182524 3.23650485,20.9726214 L24.9629126,4.17203883 C27.432233,2.26194175 27.5603883,0.981553398 27.54,0.625631068 C27.5359223,0.559223301 27.527767,0.521359223 27.527767,0.521359223 C27.527767,0.521359223 27.7765049,1.75514563 24.8458252,4.02058252 L2.87941748,20.5112621 C2.76174757,20.6021359 2.65048544,20.6982524 2.54563107,20.7984466 C2.52582524,20.8170874 2.50951456,20.8374757 2.48970874,20.856699 C2.40582524,20.94 2.3231068,21.024466 2.24737864,21.1124272 C2.23223301,21.1304854 2.21883495,21.1502913 2.20368932,21.1683495 C2.12737864,21.2603883 2.05339806,21.3535922 1.98582524,21.4508738 C1.9776699,21.4625243 1.97184466,21.4747573 1.96368932,21.4864078 C1.89203883,21.5918447 1.8238835,21.6996117 1.76213592,21.8102913 C1.7592233,21.815534 1.7568932,21.8207767 1.75398058,21.8260194 C1.48601942,22.3124272 1.31883495,22.8436893 1.25533981,23.3871845 C1.25533981,23.3871845 1.25533981,23.3871845 1.25533981,23.387767 L1.25475728,23.3883495 C0.806213592,23.9458252 0.515533981,24.5959223 0.389708738,25.2763107 C0.386796117,25.2902913 0.384466019,25.3060194 0.381553398,25.3194175 C0.34368932,25.5396117 0.32038835,25.7621359 0.31631068,25.9852427 C0.31631068,25.9928155 0.316893204,25.9974757 0.316893204,26.004466 C0.313980583,26.2264078 0.328543689,26.4495146 0.36,26.6708738 C0.361165049,26.6801942 0.361747573,26.6883495 0.363495146,26.6982524 C0.395533981,26.9079612 0.446213592,27.1165049 0.509708738,27.3209709 C0.520776699,27.3559223 0.530679612,27.3879612 0.542330097,27.4229126 C0.609320388,27.6209709 0.690291262,27.8143689 0.787572816,28.0025243 C0.803883495,28.0351456 0.822524272,28.0642718 0.839417476,28.0957282 C0.946601942,28.2902913 1.06427184,28.4813592 1.20407767,28.6631068 C1.31184466,28.801165 1.42834951,28.9299029 1.54893204,29.052233 C1.55941748,29.063301 1.56990291,29.0708738 1.58038835,29.0819417 C1.69805825,29.1984466 1.8215534,29.3079612 1.95029126,29.4081553 C3.44796117,30.5813592 5.6038835,30.6436893 7.18135922,29.4256311 Z" id="Path" fill="#BD1220"></path>
            <path d="M25.1097087,42.7642718 C25.1097087,42.7642718 25.7114563,42.1398058 26.7099029,41.4099029 C24.9594175,40.967767 23.4530097,40.0165049 22.3992233,39.1963107 C20.8829126,40.1452427 19.9246602,41.1419417 19.9246602,41.1419417 C19.9246602,41.1419417 23.3359223,44.9656311 27.6227184,45.0384466 C27.707767,45.0407767 27.7893204,45.0314563 27.8737864,45.0285437 C26.1798058,43.9625243 25.1097087,42.7642718 25.1097087,42.7642718 Z" id="Path" fill="#BD1220"></path>
            <path d="M26.3248544,28.895534 C28.116699,27.8248544 32.0283495,24.6733981 34.201165,22.8885437 C34.6986408,22.4807767 34.7807767,21.7351456 34.3864078,21.2260194 L34.3864078,21.2254369 L34.3864078,21.2254369 L30.6361165,16.3753398 L26.8852427,11.5246602 C26.4914563,11.015534 25.7598058,10.9223301 25.2512621,11.3161165 L13.0019417,20.7885437 C10.8349515,22.4638835 9.10718447,24.4928155 7.81980583,26.7273786 C7.75165049,26.8450485 7.67941748,26.9609709 7.61359223,27.0803883 C7.72135922,27.1759223 7.8384466,27.2615534 7.94854369,27.3535922 C8.1023301,27.4823301 8.25553398,27.6116505 8.41514563,27.7333981 C8.57592233,27.8563107 8.74252427,27.972233 8.90970874,28.0875728 C13.835534,31.5279612 21.1269903,31.9992233 26.3248544,28.895534 Z M16.3666019,25.7347573 C15.7619417,26.2025243 14.8933981,26.0906796 14.4256311,25.4860194 C13.9578641,24.8813592 14.0697087,24.0128155 14.6737864,23.5456311 C15.2784466,23.0784466 16.1469903,23.1891262 16.6147573,23.7937864 C17.0819417,24.3978641 16.9706796,25.2669903 16.3666019,25.7347573 Z" id="Shape" fill="#EC7531"></path>
            <path d="M49.5320388,9.94834951 L43.223301,20.4460194 C42.8918447,20.9970874 42.9559223,21.6669903 43.3106796,22.0048544 C43.5215534,22.2064078 43.7213592,22.4260194 43.9054369,22.6636893 C44.5333981,23.4763107 44.9126214,24.4019417 45.0535922,25.3520388 C45.1491262,25.9887379 45.6238835,26.6021359 46.2582524,26.7104854 L58.3467961,28.7831068 C58.9817476,28.8926214 59.5706796,28.4638835 59.6207767,27.8236893 C60.0046602,22.9508738 58.6514563,17.9266019 55.4271845,13.7557282 C54.8300971,12.983301 54.1846602,12.2697087 53.5042718,11.6073786 C53.3947573,11.5007767 53.2817476,11.398835 53.171068,11.2945631 C52.9403883,11.0801942 52.7067961,10.871068 52.4691262,10.6695146 C52.3619417,10.5786408 52.2559223,10.4871845 52.1469903,10.3986408 C51.804466,10.1201942 51.456699,9.85048544 51.1013592,9.59708738 C51.0163107,9.5376699 50.9271845,9.4968932 50.8374757,9.46427184 C50.8147573,9.45669903 50.7932039,9.45087379 50.7716505,9.44446602 C50.6871845,9.42058252 50.6027184,9.40660194 50.5165049,9.40368932 C50.5095146,9.40368932 50.5036893,9.40194175 50.496699,9.40194175 C50.291068,9.39961165 50.0906796,9.45902913 49.9130097,9.56854369 C49.7638835,9.66058252 49.6304854,9.78582524 49.5320388,9.94834951 Z" id="Path" fill="#EC7531"></path>
            <path d="M27.8132039,10.8186408 L35.3009709,20.5025243 C35.6947573,21.0116505 36.4421359,21.1170874 37.0357282,20.8660194 C38.1407767,20.3976699 39.3518447,20.292233 40.4947573,20.5304854 C41.1250485,20.6621359 41.8718447,20.4332039 42.2050485,19.8815534 L48.527767,9.36 C48.7998058,8.90912621 48.7194175,8.36097087 48.3640777,8.02368932 C48.2854369,7.94912621 48.1980583,7.88097087 48.0920388,7.83029126 C47.7413592,7.6631068 47.3866019,7.51048544 47.0283495,7.36427184 C46.9223301,7.32116505 46.8180583,7.28038835 46.7108738,7.23902913 C46.4370874,7.13242718 46.1627184,7.03281553 45.8836893,6.93786408 C45.7834951,6.90349515 45.6838835,6.86737864 45.5836893,6.83533981 C45.2347573,6.72291262 44.8846602,6.61980583 44.5304854,6.52660194 C44.4017476,6.49223301 44.2724272,6.46368932 44.1425243,6.43165049 C43.907767,6.37398058 43.6700971,6.32097087 43.4347573,6.27203883 C43.2699029,6.23825243 43.1062136,6.20504854 42.9396117,6.17533981 C42.7246602,6.13631068 42.5097087,6.10368932 42.2924272,6.07165049 C41.9842718,6.02563107 41.6737864,5.98834951 41.3627184,5.95631068 C41.2001942,5.94 41.0359223,5.92194175 40.8733981,5.90912621 C40.6427184,5.89165049 40.4143689,5.87941748 40.1825243,5.86951456 C40.0654369,5.86427184 39.9483495,5.86135922 39.8300971,5.85786408 C38.9924272,5.83572816 38.1547573,5.86485437 37.3182524,5.94582524 C37.2821359,5.94932039 37.2454369,5.95223301 37.2087379,5.95631068 C35.9866019,6.08097087 34.7737864,6.31747573 33.5801942,6.66582524 C31.6596117,7.22679612 29.7937864,8.07029126 28.0526214,9.22485437 C27.516699,9.58194175 27.4194175,10.3095146 27.8132039,10.8186408 Z" id="Path" fill="#EC7531"></path>
            <path d="M39.1159223,33.1980583 C37.7050485,34.0514563 36.2260194,34.9409709 35.2578641,35.5625243 C34.7161165,35.9108738 33.864466,35.94 33.3145631,35.6091262 C32.0242718,34.835534 30.4106796,34.1673786 28.6421359,34.1370874 C24.3553398,34.0631068 20.8141748,37.7656311 20.8141748,37.7656311 C20.8141748,37.7656311 21.4054369,38.4227184 22.3986408,39.1963107 C23.4530097,40.0165049 24.9594175,40.967767 26.7093204,41.4099029 C25.7108738,42.1398058 25.1091262,42.7642718 25.1091262,42.7642718 C25.1091262,42.7642718 26.1792233,43.9625243 27.8726214,45.0302913 C29.2036893,45.8697087 30.9198058,46.6287379 32.8071845,46.6625243 C34.1679612,46.6864078 35.4524272,46.3281553 36.5720388,45.8283495 C37.1598058,45.5667961 38.1093204,45.4666019 38.7407767,45.5930097 C39.6506796,45.7747573 40.6287379,45.8545631 41.6417476,45.8376699 C42.2848544,45.8254369 42.6996117,45.264466 42.5720388,44.6341748 L40.3450485,33.7368932 C40.2168932,33.1048544 39.6669903,32.8648544 39.1159223,33.1980583 Z" id="Path" fill="#EC7531"></path>
            <path d="M44.5345631,28.7580583 C44.2957282,29.2590291 43.9817476,29.7302913 43.5949515,30.1537864 C43.4883495,30.2685437 43.3794175,30.383301 43.2646602,30.491068 C43.1353398,30.6099029 43.0048544,30.7258252 42.8638835,30.8353398 C42.6867961,30.9716505 42.396699,31.1685437 42.0267961,31.4062136 C41.5549515,31.7091262 41.2735922,32.4570874 41.4040777,33.0873786 L43.7335922,44.484466 C43.8629126,45.1153398 44.4821359,45.5481553 45.1100971,45.407767 C47.4809709,44.8759223 49.8343689,43.8530097 51.7724272,42.3559223 C55.5145631,39.4613592 57.9704854,35.5217476 59.0516505,31.2658252 C59.2095146,30.6431068 58.7924272,30.0407767 58.1586408,29.9318447 L46.08,27.8621359 C45.4467961,27.7543689 44.8141748,28.1778641 44.5345631,28.7580583 Z" id="Path" fill="#EC7531"></path>
            <path d="M34.3864078,21.2254369 C34.7866019,20.8945631 35.0219417,20.6965049 35.0219417,20.6965049 C35.112233,20.6266019 35.207767,20.5660194 35.3009709,20.5025243 L27.8132039,10.8192233 C27.7229126,10.8873786 27.6297087,10.9508738 27.5394175,11.0207767 L26.8864078,11.5258252 L30.636699,16.3759223 L34.3864078,21.2254369 L34.3864078,21.2254369 Z" id="Path" fill="#FDEDEA"></path>
            <path d="M48.5260194,9.36058252 L42.2027184,19.8815534 C42.5574757,20.0341748 42.9,20.221165 43.223301,20.4454369 L49.5320388,9.94834951 C49.2029126,9.7415534 48.8667961,9.54757282 48.5260194,9.36058252 Z" id="Path" fill="#FDEDEA"></path>
            <path d="M46.08,27.8621359 L58.1563107,29.9318447 C58.2302913,29.5508738 58.295534,29.1675728 58.3473786,28.7825243 L46.258835,26.7104854 C46.2390291,27.0996117 46.1772816,27.4846602 46.08,27.8621359 Z" id="Path" fill="#FDEDEA"></path>
            <path d="M40.3456311,33.7351456 L42.5726214,44.6324272 C42.9565049,44.5980583 43.344466,44.5462136 43.7318447,44.484466 L41.4023301,33.0873786 C41.075534,33.2900971 40.716699,33.5085437 40.3456311,33.7351456 Z" id="Path" fill="#FDEDEA"></path>
            <circle id="Oval" fill="#21223C" cx="15.5201942" cy="24.6401942" r="1.38349515"></circle>
        </g>
    </g>
</svg>