<?xml version="1.0" encoding="utf-8"?>
<!-- Generator: Adobe Illustrator 25.2.1, SVG Export Plug-In . SVG Version: 6.00 Build 0)  -->
<svg version="1.1" id="Layer_1" xmlns="http://www.w3.org/2000/svg" xmlns:xlink="http://www.w3.org/1999/xlink" x="0px" y="0px"
	 viewBox="0 0 1200 1200" style="enable-background:new 0 0 1200 1200;" xml:space="preserve">
<style type="text/css">
	.st0{fill:#DD8832;}
	.st1{fill:#96D8BC;}
	.st2{fill:#DC5494;}
	.st3{fill:#ED4596;}
	.st4{fill:none;stroke:#000000;stroke-width:0.5;stroke-miterlimit:10;}
	.st5{fill:#9764C9;}
	.st6{fill:#DFB3FC;}
	.st7{fill:#DFB3FC;stroke:#000000;stroke-width:0.25;stroke-miterlimit:10;}
</style>
<g>
	<path class="st0" d="M482.28,538.19c0,8.44,0,16.89,0,25.33c0,8.06,0,16.11,0,24.17c0,15.19-0.03,17.32-0.01,19.31
		c0,0.64,0.01,1.33,0.01,1.33c0,0.18,0.01,0.93,0.02,2.01c0.01,0.5,0.01,0.9,0.01,0.98c0.08,7.11,0.03,13.63,0.03,13.63
		c-0.01,1.12-0.03,2.73-0.06,4.67c0,0,6.78,90.79,63.81,106.58c7.13,1.97-44.61-29.6-44.61-105.59c0-86.84,0-157.89,0-157.89h-19.2
		c0,2.08,0,4.17,0,6.25"/>
	<g>
		<path d="M479.78,538.19c0,23.23-0.2,46.48-0.01,69.71c0.09,10.56-0.37,20.86,1.16,31.3c4.2,28.68,13.69,59.75,34.28,81.03
			c5.88,6.08,12.81,11.27,20.52,14.8c2.25,1.03,12.13,6.72,13.45,1.78c0.63-2.37-2.45-4.55-3.88-5.97
			c-3.46-3.45-6.82-6.99-9.97-10.73c-10.92-13.02-19.26-28.17-24.48-44.34c-8.56-26.55-6.88-54.27-6.88-81.79
			c0-40.42,0-80.85,0-121.27c0-1.35-1.15-2.5-2.5-2.5c-6.4,0-12.8,0-19.2,0c-1.35,0-2.5,1.15-2.5,2.5c0,2.08,0,4.17,0,6.25
			c0,3.22,5,3.22,5,0c0-2.08,0-4.17,0-6.25c-0.83,0.83-1.67,1.67-2.5,2.5c6.4,0,12.8,0,19.2,0c-0.83-0.83-1.67-1.67-2.5-2.5
			c0,30.91,0,61.81,0,92.72c0,13.91,0,27.83,0,41.74c0,14.07-0.58,28.25,1.1,42.25c2.34,19.55,8.42,38.54,18.45,55.52
			c6.09,10.31,13.56,19.72,22,28.2c1.05,1.05,2.07,2.15,3.17,3.16c0.23,0.22,0.5,0.7,0.79,0.84c-0.04-0.02,1.74-4.36,2.54-3.3
			c-0.48-0.63-3.6-1.08-4.43-1.38c-1.81-0.64-3.57-1.38-5.3-2.21c-4.17-2-8.12-4.47-11.74-7.35c-23.6-18.8-33.97-51-38.95-79.69
			c-1.87-10.8-1.68-20.92-1.8-31.91c-0.25-24.37-0.03-48.75-0.03-73.12C484.78,534.98,479.78,534.97,479.78,538.19L479.78,538.19z"
			/>
	</g>
</g>
<g>
	<path class="st1" d="M482.28,495.4c0,7.46,0,14.91,0,22.37"/>
	<g>
		<path d="M479.78,495.4c0,7.46,0,14.91,0,22.37c0,3.22,5,3.22,5,0c0-7.46,0-14.91,0-22.37
			C484.78,492.19,479.78,492.18,479.78,495.4L479.78,495.4z"/>
	</g>
</g>
<g>
	<path class="st1" d="M482.28,479.52c0,5.29,0,10.59,0,15.88"/>
	<g>
		<path d="M479.78,479.52c0,5.29,0,10.59,0,15.88c0,3.22,5,3.22,5,0c0-5.29,0-10.59,0-15.88
			C484.78,476.31,479.78,476.3,479.78,479.52L479.78,479.52z"/>
	</g>
</g>
<g>
	<path class="st2" d="M550.54,604.5"/>
	<g>
		<path d="M550.54,607c3.22,0,3.22-5,0-5C547.33,602,547.32,607,550.54,607L550.54,607z"/>
	</g>
</g>
<g>
	<path class="st3" d="M550.65,604.5c-0.46-42.1-0.92-84.2-1.38-126.3l-27,31.1c0,0,0,122.49,0,124.46c0,1.34,2.08,45.13,31.41,73.4
		c23.09,22.25,50.39,23.24,61.96,23.55c12.23,0.33,44.33,1.19,69.59-25.85c18.37-19.66,24.1-44.41,25.53-50.95
		c2.33-10.61,2.56-18.73,2.75-29.86c0.36-20.33,0.56-48.06,0-81.99h-28.69v85.15c-0.72,8.52-3.06,23.64-11.85,38.81
		c-2.15,3.71-5.74,9.83-11.87,15.62c-17.94,16.96-40.37,14.86-46.31,14.3c-5.84-0.55-21.3-2.22-36.36-15.11
		c-22.51-19.25-26.76-48.65-27.56-55.13"/>
	<g>
		<path d="M553.15,604.5c-0.46-42.1-0.92-84.2-1.38-126.3c-0.02-2.04-2.8-3.46-4.27-1.77c-8.74,10.06-18.01,19.84-26.29,30.28
			c-1.66,2.09-1.44,3.65-1.44,6.24c0,5.43,0,10.85,0,16.28c0,32.47,0,64.94,0,97.41c0,31.72,11.86,65.76,36.77,86.41
			c17.56,14.56,38.99,19.77,61.33,20.2c21.78,0.43,43.25-4.75,60.5-18.62c18.42-14.81,29.85-37.24,34.81-60.07
			c3-13.8,2.84-27.93,3.01-41.97c0.18-14.68,0.22-29.35,0.13-44.03c-0.05-8.84-0.16-17.68-0.3-26.52c-0.02-1.35-1.13-2.5-2.5-2.5
			c-9.56,0-19.12,0-28.69,0c-1.35,0-2.5,1.15-2.5,2.5c0,27.09,0,54.18,0,81.27c0,21.44-9.35,46.19-26.55,59.6
			c-16.63,12.97-41.34,13.97-60.34,5.68c-24.74-10.79-38.81-37.05-42.06-62.9c-0.4-3.15-5.4-3.19-5,0
			c2.79,22.22,12.58,44.58,30.48,58.68c17,13.4,41.3,18.12,62.11,11.74c28.51-8.74,44.58-40.16,46.32-68.43
			c0.8-12.93,0.04-26.13,0.04-39.08c0-15.52,0-31.04,0-46.56c-0.83,0.83-1.67,1.67-2.5,2.5c9.56,0,19.12,0,28.69,0
			c-0.83-0.83-1.67-1.67-2.5-2.5c0.46,28.52,0.57,57.07-0.07,85.6c-0.53,23.65-6.23,46.64-20.01,66.23
			c-15.16,21.56-38.9,33.32-64.95,34.32c-19.18,0.74-38.79-1.7-55.62-11.52c-29.36-17.14-45.59-53.8-45.59-87.12
			c0-30.31,0-60.62,0-90.92c0-6.5,0-13,0-19.5c0-1.48,1.03-8.34,0-9.51c-0.59-0.67-0.07,1.45-0.65,1.35
			c0.22,0.04,1.31-1.51,1.46-1.68c2.08-2.4,4.16-4.79,6.24-7.19c5.38-6.2,10.77-12.4,16.15-18.6c1.02-1.18,2.04-2.35,3.06-3.53
			c-1.42-0.59-2.85-1.18-4.27-1.77c0.46,42.1,0.92,84.2,1.38,126.3C548.19,607.71,553.19,607.72,553.15,604.5L553.15,604.5z"/>
	</g>
</g>
<g>
	<g>
		<path class="st4" d="M561.73,623.93"/>
	</g>
</g>
<g>
	<path class="st5" d="M667.47,500.77c0,0-0.31,88.96,0,123.16c0.31,34.2-31.63,44.75-31.63,44.75
		c-0.48-54.79-0.96-109.58-1.44-164.37c6.1-14.14,12.19-28.28,18.29-42.42c3.22,6.12,6.43,12.23,9.65,18.35l5.14,9.71"/>
	<g>
		<path d="M666.22,500.77c-0.07,20.69-0.11,41.39-0.13,62.08c-0.01,15.24-0.01,30.47,0.04,45.71c0.05,14.68,1.06,29.24-8,41.82
			c-5.41,7.51-13.75,14.12-22.62,17.1c0.53,0.4,1.05,0.8,1.58,1.21c-0.31-34.99-0.61-69.97-0.92-104.96
			c-0.15-17.16-0.3-34.33-0.45-51.49c-0.05-5.56,0.61-9.25,2.81-14.36c1.52-3.53,3.05-7.07,4.57-10.6
			c3.56-8.25,7.11-16.49,10.67-24.74c-0.72,0-1.44,0-2.16,0c4.92,9.35,9.84,18.71,14.79,28.05c0.75,1.42,2.91,0.16,2.16-1.26
			c-4.94-9.34-9.87-18.7-14.79-28.05c-0.4-0.77-1.79-0.87-2.16,0c-3.56,8.25-7.11,16.49-10.67,24.74
			c-1.78,4.12-3.56,8.25-5.33,12.37c-1.18,2.74-2.42,4.94-2.44,7.91c-0.09,18.15,0.32,36.31,0.48,54.46
			c0.32,35.98,0.63,71.95,0.95,107.93c0.01,0.77,0.8,1.47,1.58,1.21c7-2.35,13.61-6.89,18.82-12.04
			c10.83-10.71,13.78-24.06,13.69-38.82c-0.2-30.87-0.11-61.74-0.03-92.61c0.02-8.55,0.04-17.09,0.07-25.64
			C668.72,499.16,666.22,499.16,666.22,500.77L666.22,500.77z"/>
	</g>
</g>
<g>
	<polyline class="st6" points="652.08,464.2 652.08,509.06 636,505.48 	"/>
	<g>
		<path d="M650.83,464.2c0,14.95,0,29.91,0,44.86c0.53-0.4,1.05-0.8,1.58-1.21c-5.36-1.19-10.72-2.39-16.08-3.58
			c-1.57-0.35-2.24,2.06-0.66,2.41c5.36,1.19,10.72,2.39,16.08,3.58c0.79,0.18,1.58-0.36,1.58-1.21c0-14.95,0-29.91,0-44.86
			C653.33,462.59,650.83,462.59,650.83,464.2L650.83,464.2z"/>
	</g>
</g>
<path class="st7" d="M653.07,508.67"/>
<g>
	<g>
		<path d="M635.84,669.93c9.48-0.9,12.92-12.31,14.73-20.1c2.42-10.43,3.11-21.31,3.22-31.99c0.17-15.85-0.06-31.71-0.03-47.56
			c0.03-11.67,0.07-23.33-0.04-35c-0.06-6.88-0.16-13.77-0.28-20.65c-0.08-4.1,0.48-5.14,4.01-7.04c3.16-1.7,6.31-3.4,9.47-5.1
			c1.42-0.76,0.16-2.92-1.26-2.16c-4.73,2.55-9.47,5.1-14.2,7.64c-0.38,0.2-0.63,0.65-0.62,1.08c0.6,29.17,0.43,58.34,0.43,87.51
			c0,14.21,0.47,28.5-1.36,42.63c-1.05,8.15-3.13,27.18-14.07,28.23C634.25,667.58,634.23,670.08,635.84,669.93L635.84,669.93z"/>
	</g>
</g>
<g>
	<path class="st3" d="M699.11,530.27c0-27.98,19.96-30.6,19.96-30.6c-20.55-0.87-19.96-27.1-19.96-27.1s0.33,26.21-19.41,28.85
		c1.17-0.12,8.03-0.63,13.66,7.15C699.54,517.13,699.18,528.72,699.11,530.27z"/>
	<g>
		<path d="M700.36,530.27c0.16-11.93,5.25-27.46,19.05-29.4c1.47-0.21,0.99-2.37-0.33-2.46c-13.22-0.9-18.91-13.99-18.71-25.85
			c-0.83,0-1.67,0-2.5,0c0.09,12.03-5.42,25.54-18.49,27.65c-1.38,0.22-1.07,2.58,0.33,2.46c13.71-1.19,18.56,16.9,18.16,27.6
			C697.8,531.88,700.3,531.88,700.36,530.27c0.45-11.96-5.49-31.42-20.66-30.1c0.11,0.82,0.22,1.64,0.33,2.46
			c14.17-2.28,20.43-16.97,20.33-30.06c-0.01-1.61-2.47-1.61-2.5,0c-0.23,13.38,6.57,27.35,21.21,28.35
			c-0.11-0.82-0.22-1.64-0.33-2.46c-14.92,2.1-20.7,18.87-20.88,31.81C697.84,531.88,700.34,531.88,700.36,530.27z"/>
	</g>
</g>
</svg>
