<?xml version="1.0" standalone="no"?>
<!DOCTYPE svg PUBLIC "-//W3C//DTD SVG 20010904//EN"
 "http://www.w3.org/TR/2001/REC-SVG-20010904/DTD/svg10.dtd">
<svg version="1.0" xmlns="http://www.w3.org/2000/svg"
 width="150.000000pt" height="150.000000pt" viewBox="0 0 150.000000 150.000000"
 preserveAspectRatio="xMidYMid meet">
<metadata>
Created by potrace 1.16, written by Peter Selinger 2001-2019
</metadata>
<g transform="translate(0.000000,150.000000) scale(0.100000,-0.100000)"
fill="#000000" stroke="none">
<path d="M573 1475 c-50 -13 -101 -28 -112 -35 -12 -6 -21 -7 -21 -3 0 4 -4 3
-8 -3 -4 -6 -23 -19 -42 -29 -19 -9 -50 -28 -67 -42 -18 -13 -33 -22 -33 -19
0 3 -31 -27 -70 -66 -38 -39 -70 -75 -70 -79 0 -4 -6 -14 -13 -21 -31 -32 -90
-166 -113 -256 -20 -76 -25 -118 -23 -192 2 -52 6 -106 10 -120 5 -14 17 -54
29 -90 12 -36 22 -71 24 -78 1 -7 8 -18 14 -24 7 -7 12 -20 12 -30 0 -10 5
-18 10 -18 6 0 10 -6 10 -13 0 -8 9 -22 20 -32 11 -10 20 -22 20 -28 0 -8 115
-124 152 -152 27 -21 114 -70 148 -83 138 -53 152 -56 300 -56 126 -1 154 2
215 22 257 86 424 253 507 508 19 59 22 91 22 219 0 139 -2 156 -28 225 -32
87 -58 144 -68 148 -5 2 -8 9 -8 16 0 7 -9 21 -20 31 -11 10 -20 22 -20 27 0
17 -123 132 -180 169 -188 121 -393 157 -597 104z m377 -15 c250 -70 450 -275
517 -530 24 -90 24 -273 0 -360 -58 -213 -196 -384 -382 -476 -128 -63 -197
-79 -335 -79 -136 1 -209 18 -325 74 -191 94 -328 259 -387 466 -29 103 -31
277 -4 375 79 294 315 504 621 554 61 9 221 -4 295 -24z"/>
<path d="M670 1229 c-85 -15 -193 -70 -253 -131 -48 -49 -115 -150 -89 -134 8
5 10 -3 6 -26 -9 -52 -13 -60 -28 -55 -12 5 -13 0 -4 -24 8 -22 7 -34 -1 -42
-6 -6 -11 -31 -11 -56 0 -30 3 -41 9 -32 7 11 10 11 17 -1 5 -8 27 -22 49 -32
22 -9 49 -21 60 -26 29 -13 234 -6 275 9 58 22 65 27 68 50 3 15 -2 21 -16 21
-11 0 -25 7 -32 15 -15 18 -68 45 -89 45 -21 1 -45 20 -60 49 -9 16 -16 20
-20 12 -11 -17 -53 80 -51 115 4 61 -22 93 -49 60 -6 -8 -20 -16 -31 -19 -18
-5 -18 -3 3 27 30 42 74 86 87 86 6 0 9 4 5 10 -7 12 46 39 110 56 64 17 199
19 189 2 -5 -8 0 -9 15 -5 13 3 20 3 17 -1 -4 -3 4 -12 16 -19 l23 -14 -25 7
c-14 4 -32 9 -40 12 -8 3 -3 -5 12 -19 21 -19 25 -30 21 -56 -6 -36 -17 -34
-60 7 -22 19 -23 20 -23 2 0 -10 18 -33 40 -51 35 -28 54 -55 33 -49 -18 6
-83 -42 -83 -61 0 -11 -5 -23 -11 -27 -6 -3 -8 -17 -5 -30 7 -26 -8 -34 -18
-9 -7 19 -46 19 -74 -1 -26 -18 -28 -36 -7 -54 13 -10 19 -10 35 5 20 18 24
15 21 -17 -2 -11 5 -18 14 -18 9 0 19 -9 22 -19 4 -16 14 -19 77 -18 58 1 77
-2 91 -17 21 -21 60 -38 95 -41 38 -3 141 -33 155 -45 10 -8 11 -3 6 22 -6 30
-10 33 -38 30 -63 -6 -87 88 -37 148 20 23 24 34 15 43 -16 16 -14 42 4 57 14
12 14 15 0 36 -17 27 -19 44 -5 44 6 0 10 -7 10 -17 0 -9 3 -13 7 -9 8 7 73
-101 73 -122 0 -7 -6 -10 -12 -7 -7 4 -5 0 4 -8 10 -8 22 -38 28 -68 l9 -54
-3 63 c-5 75 -53 183 -112 251 -100 116 -278 177 -434 150z"/>
</g>
</svg>
