<?xml version="1.0" encoding="UTF-8"?>
<svg width="32px" height="32px" viewBox="0 0 32 32" version="1.1" xmlns="http://www.w3.org/2000/svg" xmlns:xlink="http://www.w3.org/1999/xlink">
    <!-- Generator: Sketch 53.2 (72643) - https://sketchapp.com -->
    <title>iconfinder_shrimp_prawn_crustacean_seafood_food_578561</title>
    <desc>Created with Sketch.</desc>
    <g id="Page-1" stroke="none" stroke-width="1" fill="none" fill-rule="evenodd">
        <g id="iconfinder_shrimp_prawn_crustacean_seafood_food_578561" transform="translate(1.000000, 4.000000)" fill-rule="nonzero">
            <path d="M3.65274074,14.9671111 L4.53185185,14.2877037 C4.44711111,14.2281481 4.36237037,14.1691852 4.2802963,14.1066667 L3.47111111,14.7327407 C2.65274074,15.3635556 1.4802963,15.2136296 0.847407407,14.397037 C0.399407407,13.816 0.346962963,13.0577778 0.644444444,12.44 C0.69362963,12.8044444 0.834666667,13.1623704 1.07585185,13.4740741 C1.78992593,14.3961481 3.09985185,14.5825185 4.04325926,13.9131852 C3.98725926,13.8663704 3.92740741,13.8228148 3.87288889,13.7742222 C3.90607407,13.7134815 3.94281481,13.6545185 3.97777778,13.5946667 L3.93540741,13.6272593 C3.11674074,14.2586667 1.944,14.1081481 1.31111111,13.2921481 C1.01837037,12.912 0.895703704,12.456 0.927703704,12.0127407 C1.00414815,11.9265185 1.08859259,11.8456296 1.18281481,11.7724444 L12.2340741,3.22696296 C13.7241481,2.07466667 13.5383704,1.37007407 13.5383704,1.37007407 C13.5383704,1.37007407 13.6645926,1.99792593 12.1742222,3.15022222 L1.03259259,11.5140741 C1.14874074,11.1902222 1.35407407,10.8942222 1.64622222,10.6675556 L12.6971852,2.12207407 C13.9531852,1.15051852 14.0183704,0.499259259 14.008,0.318222222 C14.0059259,0.284444444 14.0017778,0.265185185 14.0017778,0.265185185 C14.0017778,0.265185185 14.1282963,0.892740741 12.6376296,2.04503704 L1.46459259,10.4328889 C1.40474074,10.4791111 1.34814815,10.528 1.29481481,10.578963 C1.28474074,10.5884444 1.27644444,10.5988148 1.26637037,10.6085926 C1.2237037,10.650963 1.18162963,10.6939259 1.14311111,10.7386667 C1.13540741,10.7478519 1.12859259,10.7579259 1.12088889,10.7671111 C1.08207407,10.8139259 1.04444444,10.8613333 1.01007407,10.9108148 C1.00592593,10.9167407 1.00296296,10.922963 0.998814815,10.9288889 C0.96237037,10.9825185 0.927703704,11.0373333 0.896296296,11.0936296 C0.894814815,11.0962963 0.89362963,11.098963 0.892148148,11.1016296 C0.755851852,11.349037 0.670814815,11.6192593 0.638518519,11.8957037 C0.638518519,11.8957037 0.638518519,11.8957037 0.638518519,11.896 L0.638222222,11.8962963 C0.410074074,12.1798519 0.262222222,12.5105185 0.198222222,12.8565926 C0.196740741,12.8637037 0.195555556,12.8717037 0.194074074,12.8785185 C0.174814815,12.9905185 0.162962963,13.1037037 0.160888889,13.2171852 C0.160888889,13.221037 0.161185185,13.2234074 0.161185185,13.226963 C0.159703704,13.3398519 0.167111111,13.4533333 0.183111111,13.5659259 C0.183703704,13.5706667 0.184,13.5748148 0.184888889,13.5798519 C0.201185185,13.6865185 0.226962963,13.7925926 0.259259259,13.8965926 C0.264888889,13.9143704 0.269925926,13.9306667 0.275851852,13.9484444 C0.309925926,14.0491852 0.351111111,14.1475556 0.400592593,14.2432593 C0.408888889,14.2598519 0.41837037,14.2746667 0.426962963,14.2906667 C0.481481481,14.3896296 0.541333333,14.4868148 0.612444444,14.5792593 C0.667259259,14.6494815 0.726518519,14.714963 0.787851852,14.7771852 C0.793185185,14.7828148 0.798518519,14.7866667 0.803851852,14.7922963 C0.863703704,14.8515556 0.926518519,14.9072593 0.992,14.9582222 C1.75377778,15.554963 2.85037037,15.5866667 3.65274074,14.9671111 Z" id="Path" fill="#BD1220"></path>
            <path d="M12.7718519,21.7517037 C12.7718519,21.7517037 13.0779259,21.4340741 13.5857778,21.0628148 C12.6954074,20.8379259 11.9291852,20.3540741 11.3931852,19.9368889 C10.6219259,20.4195556 10.1345185,20.9265185 10.1345185,20.9265185 C10.1345185,20.9265185 11.8696296,22.8714074 14.0500741,22.9084444 C14.0933333,22.9096296 14.1348148,22.9048889 14.1777778,22.9034074 C13.3161481,22.3611852 12.7718519,21.7517037 12.7718519,21.7517037 Z" id="Path" fill="#BD1220"></path>
            <path d="M13.3899259,14.6974815 C14.3013333,14.1528889 16.290963,12.5499259 17.3961481,11.6420741 C17.6491852,11.4346667 17.690963,11.0554074 17.4903704,10.7964444 L17.4903704,10.7961481 L17.4903704,10.7961481 L15.5828148,8.32918519 L13.674963,5.86192593 C13.4746667,5.60296296 13.1025185,5.55555556 12.8438519,5.75585185 L6.61333333,10.5739259 C5.51111111,11.4260741 4.6322963,12.4580741 3.97748148,13.5946667 C3.94281481,13.6545185 3.90607407,13.7134815 3.87259259,13.7742222 C3.92740741,13.8228148 3.98696296,13.8663704 4.04296296,13.9131852 C4.12118519,13.9786667 4.19911111,14.0444444 4.2802963,14.1063704 C4.36207407,14.1688889 4.44681481,14.2278519 4.53185185,14.2865185 C7.03733333,16.0364444 10.7460741,16.2761481 13.3899259,14.6974815 Z M8.32474074,13.0897778 C8.01718519,13.3277037 7.57540741,13.2708148 7.33748148,12.9632593 C7.09955556,12.6557037 7.15644444,12.2139259 7.4637037,11.9762963 C7.77125926,11.7386667 8.21303704,11.794963 8.45096296,12.1025185 C8.68859259,12.4097778 8.632,12.8518519 8.32474074,13.0897778 Z" id="Shape" fill="#EC7531"></path>
            <path d="M25.1940741,5.06014815 L21.9851852,10.3997037 C21.8165926,10.68 21.8491852,11.0207407 22.0296296,11.1925926 C22.1368889,11.2951111 22.2385185,11.4068148 22.3321481,11.5277037 C22.6515556,11.941037 22.8444444,12.4118519 22.9161481,12.8951111 C22.9647407,13.218963 23.2062222,13.530963 23.5288889,13.5860741 L29.6776296,14.6402963 C30.0005926,14.696 30.3001481,14.4779259 30.3256296,14.1522963 C30.5208889,11.6737778 29.8325926,9.11822222 28.1925926,6.99674074 C27.8888889,6.60385185 27.5605926,6.24088889 27.2145185,5.904 C27.1588148,5.84977778 27.1013333,5.79792593 27.045037,5.74488889 C26.9277037,5.63585185 26.8088889,5.52948148 26.688,5.42696296 C26.6334815,5.38074074 26.5795556,5.33422222 26.5241481,5.28918519 C26.3499259,5.14755556 26.173037,5.01037037 25.9922963,4.88148148 C25.949037,4.85125926 25.9037037,4.83051852 25.8580741,4.81392593 C25.8465185,4.81007407 25.8355556,4.80711111 25.8245926,4.80385185 C25.7816296,4.7917037 25.7386667,4.78459259 25.6948148,4.78311111 C25.6912593,4.78311111 25.6882963,4.78222222 25.6847407,4.78222222 C25.5801481,4.78103704 25.4782222,4.81125926 25.3878519,4.86696296 C25.312,4.91377778 25.2441481,4.97748148 25.1940741,5.06014815 Z" id="Path" fill="#EC7531"></path>
            <path d="M14.146963,5.50281481 L17.9555556,10.4284444 C18.1558519,10.6874074 18.536,10.741037 18.8379259,10.6133333 C19.4,10.3751111 20.016,10.3214815 20.5973333,10.4426667 C20.9179259,10.5096296 21.2977778,10.3931852 21.4672593,10.1125926 L24.6832593,4.76088889 C24.8216296,4.53155556 24.7807407,4.25274074 24.6,4.08118519 C24.56,4.04325926 24.5155556,4.00859259 24.4616296,3.98281481 C24.2832593,3.89777778 24.1028148,3.82014815 23.9205926,3.74577778 C23.8666667,3.72385185 23.8136296,3.70311111 23.7591111,3.68207407 C23.6198519,3.62785185 23.4802963,3.57718519 23.3383704,3.52888889 C23.2874074,3.51140741 23.2367407,3.49303704 23.1857778,3.47674074 C23.0082963,3.41955556 22.8302222,3.36711111 22.6500741,3.3197037 C22.5845926,3.30222222 22.5188148,3.2877037 22.4527407,3.27140741 C22.3333333,3.24207407 22.2124444,3.21511111 22.0927407,3.19022222 C22.0088889,3.17303704 21.9256296,3.15614815 21.8408889,3.14103704 C21.7315556,3.12118519 21.6222222,3.10459259 21.5117037,3.0882963 C21.354963,3.06488889 21.197037,3.04592593 21.0388148,3.02962963 C20.9561481,3.02133333 20.8725926,3.01214815 20.7899259,3.00562963 C20.6725926,2.99674074 20.5564444,2.99051852 20.4385185,2.98548148 C20.378963,2.98281481 20.3194074,2.98133333 20.2592593,2.97955556 C19.8331852,2.9682963 19.4071111,2.98311111 18.9816296,3.0242963 C18.9632593,3.02607407 18.9445926,3.02755556 18.9259259,3.02962963 C18.3042963,3.09303704 17.6874074,3.21333333 17.0802963,3.39051852 C16.1034074,3.67585185 15.1543704,4.10488889 14.2687407,4.69214815 C13.9961481,4.87377778 13.9466667,5.24385185 14.146963,5.50281481 Z" id="Path" fill="#EC7531"></path>
            <path d="M19.896,16.8859259 C19.1783704,17.32 18.4260741,17.7724444 17.9336296,18.0885926 C17.6580741,18.2657778 17.2248889,18.2805926 16.9451852,18.1122963 C16.2888889,17.7188148 15.4681481,17.378963 14.5685926,17.3635556 C12.3881481,17.3259259 10.586963,19.2091852 10.586963,19.2091852 C10.586963,19.2091852 10.8877037,19.5434074 11.3928889,19.9368889 C11.9291852,20.3540741 12.6954074,20.8379259 13.5854815,21.0628148 C13.0776296,21.4340741 12.7715556,21.7517037 12.7715556,21.7517037 C12.7715556,21.7517037 13.3158519,22.3611852 14.1771852,22.9042963 C14.8542222,23.3312593 15.7271111,23.7173333 16.6871111,23.7345185 C17.3792593,23.7466667 18.0325926,23.5644444 18.6020741,23.3102222 C18.901037,23.1771852 19.384,23.1262222 19.7051852,23.1905185 C20.168,23.282963 20.6654815,23.3235556 21.1807407,23.314963 C21.5078519,23.3087407 21.7188148,23.0234074 21.6539259,22.7028148 L20.5211852,17.16 C20.456,16.8385185 20.1762963,16.7164444 19.896,16.8859259 Z" id="Path" fill="#EC7531"></path>
            <path d="M22.6521481,14.6275556 C22.5306667,14.8823704 22.370963,15.1220741 22.1742222,15.3374815 C22.12,15.3958519 22.0645926,15.4542222 22.0062222,15.509037 C21.9404444,15.5694815 21.8740741,15.6284444 21.8023704,15.6841481 C21.7122963,15.7534815 21.5647407,15.8536296 21.3765926,15.9745185 C21.1365926,16.1285926 20.9934815,16.509037 21.0598519,16.8296296 L22.2447407,22.6266667 C22.3105185,22.9475556 22.6254815,23.1677037 22.9448889,23.0962963 C24.1508148,22.8257778 25.3478519,22.3054815 26.3336296,21.544 C28.237037,20.0717037 29.4862222,18.0678519 30.0361481,15.9031111 C30.1164444,15.5863704 29.9042963,15.28 29.5819259,15.2245926 L23.4382222,14.1718519 C23.1161481,14.117037 22.7943704,14.3324444 22.6521481,14.6275556 Z" id="Path" fill="#EC7531"></path>
            <path d="M17.4903704,10.7961481 C17.6939259,10.6278519 17.8136296,10.5271111 17.8136296,10.5271111 C17.8595556,10.4915556 17.9081481,10.4607407 17.9555556,10.4284444 L14.146963,5.50311111 C14.101037,5.53777778 14.0536296,5.57007407 14.0077037,5.60562963 L13.6755556,5.86251852 L15.5831111,8.32948148 L17.4903704,10.7961481 L17.4903704,10.7961481 Z" id="Path" fill="#FDEDEA"></path>
            <path d="M24.6823704,4.76118519 L21.4660741,10.1125926 C21.6465185,10.1902222 21.8207407,10.2853333 21.9851852,10.3994074 L25.1940741,5.06014815 C25.0266667,4.95496296 24.8557037,4.8562963 24.6823704,4.76118519 Z" id="Path" fill="#FDEDEA"></path>
            <path d="M23.4382222,14.1718519 L29.5807407,15.2245926 C29.6183704,15.0308148 29.6515556,14.8358519 29.6779259,14.64 L23.5291852,13.5860741 C23.5191111,13.784 23.4877037,13.9798519 23.4382222,14.1718519 Z" id="Path" fill="#FDEDEA"></path>
            <path d="M20.5214815,17.1591111 L21.6542222,22.7019259 C21.8494815,22.6844444 22.0468148,22.6580741 22.2438519,22.6266667 L21.058963,16.8296296 C20.8927407,16.9327407 20.7102222,17.0438519 20.5214815,17.1591111 Z" id="Path" fill="#FDEDEA"></path>
            <circle id="Oval" fill="#21223C" cx="7.89422222" cy="12.533037" r="1"></circle>
        </g>
    </g>
</svg>