<svg xmlns="http://www.w3.org/2000/svg" width="235.175" height="80" viewBox="0 0 235.175 80">
  <g id="sweetswap-logo" transform="translate(-0.001 0)">
    <text id="SweetSwap" transform="translate(73.176 46.051)" fill="#404040" font-size="30" font-family="Gilroy-ExtraBold, Gilroy ☞" font-weight="800"><tspan x="0" y="0">SweetSwap</tspan></text>
    <g id="Group_111" data-name="Group 111" transform="translate(0.001 0)">
      <rect id="Rectangle_5" data-name="Rectangle 5" width="3.816" height="35.395" transform="translate(27.882 44.605)" fill="#3b3b3b"/>
      <g id="Group_29" data-name="Group 29">
        <g id="Group_26" data-name="Group 26" transform="translate(5.276 20.893)">
          <path id="Path_19" data-name="Path 19" d="M329.559,279.723a3.2,3.2,0,0,1-3.2-3.2V241.035a3.2,3.2,0,0,1,6.4,0v35.488A3.2,3.2,0,0,1,329.559,279.723Z" transform="translate(-326.359 -237.835)" fill="#fc478c"/>
        </g>
        <g id="Group_27" data-name="Group 27" transform="translate(34.495 42.485)">
          <path id="Path_20" data-name="Path 20" d="M352.241,283.525a4,4,0,0,1-4-4V258a4,4,0,0,1,8,0v21.531a4,4,0,0,1-4,3.995Z" transform="translate(-348.241 -254)" fill="#fc478c"/>
        </g>
        <path id="Path_21" data-name="Path 21" d="M357.525,222.673A29.787,29.787,0,1,0,381.5,257.311a29.787,29.787,0,0,0-23.979-34.637Zm-7.176,39.451a10.3,10.3,0,1,1,7.723-1.659,10.309,10.309,0,0,1-7.723,1.659Z" transform="translate(-322.406 -222.188)" fill="#fc478c"/>
        <path id="Path_22" data-name="Path 22" d="M332.239,267.019a23.379,23.379,0,0,1,5.915-32.533,18.4,18.4,0,0,1,25.6,4.656,14.424,14.424,0,0,1-3.645,20.048A11.141,11.141,0,0,1,351.713,261a11.312,11.312,0,0,1-3.224-1.112,10.3,10.3,0,0,1-2.374-18.805,9.861,9.861,0,0,0-1.168.683,11.733,11.733,0,0,0-2.968,16.323,14.28,14.28,0,0,0,19.869,3.613,17.493,17.493,0,0,0,4.421-24.307,21.451,21.451,0,0,0-29.851-5.429,26.435,26.435,0,0,0-6.688,36.781,32.546,32.546,0,0,0,6.352,6.827,29.867,29.867,0,0,0,17.965,4.064,29.565,29.565,0,0,1-21.81-12.621Z" transform="translate(-321.522 -220.193)" fill="#dd6"/>
        <g id="Group_28" data-name="Group 28" transform="translate(48.498 25.107)">
          <path id="Path_23" data-name="Path 23" d="M361.534,282.249a2.8,2.8,0,0,1-2.8-2.8V243.961a2.8,2.8,0,1,1,5.6,0v35.485a2.8,2.8,0,0,1-2.8,2.8Z" transform="translate(-358.729 -241.036)" fill="#fc478c"/>
        </g>
        <path id="Path_24" data-name="Path 24" d="M326.178,265.623A29.784,29.784,0,1,0,374.5,230.866C372.247,243.674,363.1,270.234,326.178,265.623Z" transform="translate(-321.144 -219.279)" fill="#414042" opacity="0.1"/>
        <path id="Path_25" data-name="Path 25" d="M354.665,226.508c2.347,3.531-5.029,7.352-12.4,12.251s-11.933,9.016-14.283,5.485,1.72-10.365,9.088-15.261S352.318,222.975,354.665,226.508Z" transform="translate(-320.762 -221.433)" fill="#fff" opacity="0.3"/>
        <path id="Path_26" data-name="Path 26" d="M334.02,246.924a4.5,4.5,0,1,1-4.171-4.8,4.5,4.5,0,0,1,4.171,4.8Z" transform="translate(-321.525 -215.503)" fill="#fff" opacity="0.3"/>
      </g>
    </g>
  </g>
</svg>
